{
.appVersion = "3151";
.formatVersion = 3;
customParameters = (
{
name = vendorID;
value = COMM;
},
{
name = panose;
value = (
2,
13,
2,
4,
3,
5,
2,
12,
2,
3
);
},
{
name = unicodeRanges;
value = (
0,
1,
2
);
},
{
name = codePageRanges;
value = (
"1252",
"1250",
"1254",
"1257",
"bit 29"
);
},
{
name = fsType;
value = (
2
);
},
{
name = glyphOrder;
value = (
.notdef,
Eth,
eth,
Lslash,
lslash,
Scaron,
scaron,
Yacute,
yacute,
Thorn,
thorn,
Zcaron,
zcaron,
onehalf,
onequarter,
onesuperior,
threequarters,
threesuperior,
twosuperior,
brokenbar,
minus,
multiply,
space,
exclam,
quotedbl,
numbersign,
dollar,
percent,
ampersand,
quotesingle,
parenleft,
parenright,
asterisk,
plus,
comma,
hyphen,
period,
slash,
zero,
one,
two,
three,
four,
five,
six,
seven,
eight,
nine,
colon,
semicolon,
less,
equal,
greater,
question,
at,
A,
B,
C,
D,
E,
F,
G,
H,
I,
J,
K,
L,
M,
N,
O,
P,
Q,
R,
S,
T,
U,
V,
W,
X,
Y,
Z,
bracketleft,
backslash,
bracketright,
asciicircum,
underscore,
grave,
a,
b,
c,
d,
e,
f,
g,
h,
i,
j,
k,
l,
m,
n,
o,
p,
q,
r,
s,
t,
u,
v,
w,
x,
y,
z,
braceleft,
bar,
braceright,
asciitilde,
Adieresis,
Aring,
Ccedilla,
Eacute,
Ntilde,
Odieresis,
Udieresis,
aacute,
agrave,
acircumflex,
adieresis,
atilde,
aring,
ccedilla,
eacute,
egrave,
ecircumflex,
edieresis,
iacute,
igrave,
icircumflex,
idieresis,
ntilde,
oacute,
ograve,
ocircumflex,
odieresis,
otilde,
uacute,
ugrave,
ucircumflex,
udieresis,
dagger,
degree,
cent,
sterling,
section,
bullet,
paragraph,
germandbls,
registered,
copyright,
trademark,
acute,
dieresis,
notequal,
AE,
Oslash,
infinity,
plusminus,
lessequal,
greaterequal,
yen,
mu,
partialdiff,
summation,
product,
pi,
integral,
ordfeminine,
ordmasculine,
Omega,
ae,
oslash,
questiondown,
exclamdown,
logicalnot,
radical,
florin,
approxequal,
Delta,
guillemotleft,
guillemotright,
ellipsis,
uni00A0,
Agrave,
Atilde,
Otilde,
OE,
oe,
endash,
emdash,
quotedblleft,
quotedblright,
quoteleft,
quoteright,
divide,
lozenge,
ydieresis,
Ydieresis,
fraction,
Euro,
guilsinglleft,

glyphs = (
{
glyphname = Eth;
kernLeft = Eth;
kernRight = Eth;
layers = (
{
hints = (
{
horizontal = 1;
place = (0, 45);
place = (0, 45);
type = Stem;
},
{
horizontal = 1;
place = (337, 44);
place = (337, 44);
type = Stem;
},
{
horizontal = 1;
place = (669, 46);
place = (669, 46);
type = Stem;
},
{
place = (582, 54);
place = (582, 54);
type = Stem;
}
);
layerId = m01;
shapes = (
{
closed = 1;
nodes = (
(21,0,l),
(274,0,ls),
(528,0,o),
(636,210,o),
(636,436,cs),
(636,604,o),
(563,715,o),
(380,715,cs),
(159,715,l),
(94,381,l),
(25,381,l),
(16,337,l),
(86,337,l)
);
},
{
closed = 1;
nodes = (
(80,45,l),
(136,337,l),
(381,337,l),
(390,381,l),
(145,381,l),
(201,669,l),
(377,669,ls),
(525,669,o),
(582,579,o),
(582,434,cs),
(582,222,o),
(489,45,o),
(271,45,cs)
);
}
);
width = 644;
}
);
note = Eth;
unicode = 208;
},
{
glyphname = eth;
kernLeft = eth;
kernRight = eth;
layers = (
{
hints = (
{
horizontal = 1;
place = (-13, 41);
place = (-13, 41);
type = Stem;
},
{
horizontal = 1;
place = (488, 40);
place = (488, 40);
type = Stem;
},
{
horizontal = 1;
place = (715, -20);
target = down;
type = TopGhost;
},
{
place = (22, 49);
place = (22, 49);
type = Stem;
},
{
place = (431, 48);
place = (431, 48);
type = Stem;
}
);
layerId = m01;
shapes = (
{
closed = 1;
nodes = (
(179,597,l),
(192,564,l),
(332,619,l),
(369,574,o),
(397,523,o),
(419,459,c),
(418,459,l),
(391,498,o),
(347,528,o),
(285,528,cs),
(106,528,o),
(22,350,o),
(22,203,cs),
(22,69,o),
(107,-13,o),
(224,-13,cs),
(394,-13,o),
(479,157,o),
(479,326,cs),
(479,469,o),
(431,569,o),
(377,636,c),
(463,670,l),
(451,703,l),
(352,664,l),
(332,685,o),
(312,702,o),
(294,715,c),
(230,715,l),
(259,693,o),
(285,670,o),
(307,647,c)
);
},
{
closed = 1;
nodes = (
(71,338,o),
(142,488,o),
(282,488,cs),
(390,488,o),
(431,403,o),
(431,316,cs),
(431,176,o),
(364,28,o),
(225,28,cs),
(120,28,o),
(71,108,o),
(71,208,cs)
);
}
);
width = 504;
}
);
note = eth;
unicode = 240;
},
{
glyphname = Lslash;
layers = (
{
hints = (
{
horizontal = 1;
place = (0, 47);
place = (0, 47);
type = Stem;
},
{
horizontal = 1;
place = (715, -20);
target = down;
type = TopGhost;
},
{
place = (-16, 473);
place = (-16, 473);
type = Stem;
}
);
layerId = m01;
shapes = (
{
closed = 1;
nodes = (
(414,405,l),
(425,457,l),
(145,325,l),
(220,715,l),
(169,715,l),
(89,299,l),
(-5,255,l),
(-16,203,l),
(79,247,l),
(31,0,l),
(448,0,l),
(457,47,l),
(91,47,l),
(135,273,l)
);
}
);
width = 521;
}
);
note = Lslash;
unicode = 321;
},
{
glyphname = lslash;
layers = (
{
hints = (
{
horizontal = 1;
place = (0, 21);
target = up;
type = BottomGhost;
},
{
horizontal = 1;
place = (715, -20);
target = down;
type = TopGhost;
},
{
place = (12, 230);
place = (12, 230);
type = Stem;
}
);
layerId = m01;
shapes = (
{
closed = 1;
nodes = (
(232,452,l),
(242,507,l),
(156,446,l),
(208,715,l),
(160,715,l),
(100,406,l),
(23,351,l),
(12,297,l),
(90,352,l),
(22,0,l),
(70,0,l),
(145,391,l)
);
}
);
width = 192;
}
);
note = lslash;
unicode = 322;
},
{
glyphname = Scaron;
kernLeft = Scaron;
kernRight = Scaron;
layers = (
{
hints = (
{
horizontal = 1;
place = (-13, 44);
place = (-13, 44);
type = Stem;
},
{
horizontal = 1;
place = (685, 44);
place = (685, 44);
type = Stem;
},
{
place = (5, 51);
place = (5, 51);
type = Stem;
},
{
place = (87, 51);
place = (87, 51);
type = Stem;
},
{
place = (464, 52);
place = (464, 52);
type = Stem;
},
{
place = (500, 50);
place = (500, 50);
type = Stem;
},
{
horizontal = 1;
place = (751, 101);
place = (751, 101);
type = Stem;
}
);
layerId = m01;
shapes = (
{
closed = 1;
nodes = (
(399,-13,o),
(516,63,o),
(516,207,cs),
(516,324,o),
(424,359,o),
(292,402,cs),
(186,436,o),
(138,466,o),
(138,533,cs),
(138,640,o),
(222,685,o),
(322,685,cs),
(426,685,o),
(497,632,o),
(500,530,c),
(550,530,l),
(547,667,o),
(453,729,o),
(324,729,cs),
(196,729,o),
(87,658,o),
(87,533,cs),
(87,436,o),
(150,397,o),
(279,355,cs),
(408,314,o),
(464,280,o),
(464,207,cs),
(464,80,o),
(366,31,o),
(264,31,cs),
(134,31,o),
(54,93,o),
(56,226,c),
(5,226,l),
(3,58,o),
(114,-13,o),
(262,-13,cs)
);
},
{
closed = 1;
nodes = (
(476,852,l),
(420,852,l),
(341,781,l),
(339,781,l),
(285,852,l),
(232,852,l),
(305,751,l),
(367,751,l)
);
}
);
width = 559;
}
);
note = Scaron;
unicode = 352;
},
{
glyphname = scaron;
kernLeft = scaron;
kernRight = scaron;
layers = (
{
hints = (
{
horizontal = 1;
place = (-13, 42);
place = (-13, 42);
type = Stem;
},
{
horizontal = 1;
place = (486, 42);
place = (486, 42);
type = Stem;
},
{
horizontal = 1;
place = (592, 106);
place = (592, 106);
type = Stem;
},
{
place = (-3, 48);
place = (-3, 48);
type = Stem;
},
{
place = (56, 47);
place = (56, 47);
type = Stem;
},
{
place = (329, 48);
place = (329, 48);
type = Stem;
},
{
place = (355, 46);
place = (355, 46);
type = Stem;
},
{
horizontal = 1;
place = (592, 30);
place = (592, 30);
type = Stem;
}
);
layerId = m01;
shapes = (
{
closed = 1;
nodes = (
(300,-13,o),
(377,50,o),
(377,143,cs),
(377,226,o),
(317,256,o),
(232,288,cs),
(135,324,o),
(103,345,o),
(103,393,cs),
(103,463,o),
(163,486,o),
(229,486,cs),
(300,486,o),
(350,450,o),
(355,381,c),
(401,381,l),
(396,473,o),
(332,528,o),
(231,528,cs),
(137,528,o),
(56,482,o),
(56,392,cs),
(56,317,o),
(103,286,o),
(203,249,cs),
(294,215,o),
(329,192,o),
(329,142,cs),
(329,69,o),
(275,29,o),
(194,29,cs),
(100,29,o),
(50,69,o),
(45,156,c),
(-3,156,l),
(-2,36,o),
(86,-13,o),
(192,-13,cs)
);
},
{
closed = 1;
nodes = (
(368,698,l),
(312,698,l),
(246,622,l),
(244,622,l),
(203,698,l),
(150,698,l),
(210,592,l),
(272,592,l)
);
}
);
width = 423;
}
);
note = scaron;
unicode = 353;
},
{
glyphname = Yacute;
kernLeft = Yacute;
kernRight = Yacute;
layers = (
{
hints = (
{
horizontal = 1;
place = (0, 21);
target = up;
type = BottomGhost;
},
{
horizontal = 1;
place = (715, -20);
target = down;
type = TopGhost;
},
{
horizontal = 1;
place = (753, 110);
place = (753, 110);
type = Stem;
},
{
place = (82, 545);
place = (82, 545);
type = Stem;
}
);
layerId = m01;
shapes = (
{
closed = 1;
nodes = (
(197,0,l),
(248,0,l),
(308,312,l),
(627,715,l),
(570,715,l),
(293,360,l),
(291,360,l),
(136,715,l),
(82,715,l),
(258,318,l)
);
},
{
closed = 1;
nodes = (
(330,753,l),
(374,753,l),
(473,863,l),
(405,863,l)
);
}
);
width = 546;
}
);
note = Yacute;
unicode = 221;
},
{
glyphname = yacute;
kernLeft = yacute;
kernRight = yacute;
layers = (
{
hints = (
{
horizontal = 1;
place = (-171, 45);
place = (-171, 45);
type = Stem;
},
{
horizontal = 1;
place = (517, -20);
target = down;
type = TopGhost;
},
{
horizontal = 1;
place = (588, 127);
place = (588, 127);
type = Stem;
},
{
place = (-4, 485);
place = (-4, 485);
type = Stem;
},
{
horizontal = 1;
place = (-165, 21);
target = up;
type = BottomGhost;
}
);
layerId = m01;
shapes = (
{
closed = 1;
nodes = (
(101,-171,o),
(143,-145,o),
(179,-75,cs),
(481,517,l),
(430,517,l),
(259,175,ls),
(232,121,o),
(197,45,o),
(197,45,c),
(195,45,l),
(195,45,o),
(184,121,o),
(172,177,cs),
(101,517,l),
(52,517,l),
(165,-7,l),
(140,-55,ls),
(116,-103,o),
(86,-126,o),
(46,-126,cs),
(22,-126,o),
(15,-123,o),
(7,-121,c),
(5,-121,l),
(-4,-165,l),
(6,-168,o),
(19,-171,o),
(43,-171,cs)
);
},
{
closed = 1;
nodes = (
(246,588,l),
(289,588,l),
(389,715,l),
(321,715,l)
);
}
);
width = 448;
}
);
note = yacute;
unicode = 253;
},
{
glyphname = Thorn;
kernRight = Thorn;
layers = (
{
hints = (
{
horizontal = 1;
place = (0, 21);
target = up;
type = BottomGhost;
},
{
horizontal = 1;
place = (181, 45);
place = (181, 45);
type = Stem;
},
{
horizontal = 1;
place = (531, 184);
place = (531, 184);
type = Stem;
},
{
place = (503, 52);
place = (503, 52);
type = Stem;
},
{
horizontal = 1;
place = (531, 46);
place = (531, 46);
type = Stem;
}
);
layerId = m01;
shapes = (
{
closed = 1;
nodes = (
(200,715,l),
(149,715,l),
(11,0,l),
(62,0,l),
(97,181,l),
(292,181,ls),
(444,181,o),
(555,250,o),
(555,405,cs),
(555,458,o),
(540,496,o),
(507,529,cs),
(474,562,o),
(425,577,o),
(358,577,cs),
(173,577,l)
);
},
{
closed = 1;
nodes = (
(357,531,ls),
(459,531,o),
(503,481,o),
(503,401,cs),
(503,269,o),
(401,226,o),
(293,226,cs),
(105,226,l),
(164,531,l)
);
}
);
width = 561;
}
);
note = Thorn;
unicode = 222;
},
{
glyphname = thorn;
kernRight = thorn;
layers = (
{
hints = (
{
horizontal = 1;
place = (-166, 21);
target = up;
type = BottomGhost;
},
{
horizontal = 1;
place = (-11, 40);
place = (-11, 40);
type = Stem;
},
{
horizontal = 1;
place = (487, 41);
place = (487, 41);
type = Stem;
},
{
horizontal = 1;
place = (715, -20);
target = down;
type = TopGhost;
},
{
place = (439, 50);
place = (439, 50);
type = Stem;
}
);
layerId = m01;
shapes = (
{
closed = 1;
nodes = (
(-34,-166,l),
(14,-166,l),
(65,98,l),
(67,98,l),
(92,29,o),
(158,-11,o),
(233,-11,cs),
(408,-11,o),
(488,158,o),
(489,319,cs),
(490,445,o),
(419,528,o),
(308,528,cs),
(229,528,o),
(174,492,o),
(131,428,c),
(129,428,l),
(185,715,l),
(137,715,l)
);
},
{
closed = 1;
nodes = (
(87,326,o),
(159,487,o),
(299,487,cs),
(399,487,o),
(439,406,o),
(439,318,cs),
(439,188,o),
(380,29,o),
(236,29,cs),
(137,29,o),
(85,93,o),
(86,198,cs)
);
}
);
width = 508;
}
);
note = thorn;
unicode = 254;
},
{
glyphname = Zcaron;
kernLeft = Zcaron;
kernRight = Zcaron;
layers = (
{
hints = (
{
horizontal = 1;
place = (0, 45);
place = (0, 45);
type = Stem;
},
{
horizontal = 1;
place = (671, 44);
place = (671, 44);
type = Stem;
},
{
place = (-22, 619);
place = (-22, 619);
type = Stem;
},
{
horizontal = 1;
place = (671, 181);
place = (671, 181);
type = Stem;
},
{
horizontal = 1;
place = (751, 30);
place = (751, 30);
type = Stem;
}
);
layerId = m01;
shapes = (
{
closed = 1;
nodes = (
(-22,0,l),
(474,0,l),
(482,45,l),
(48,45,l),
(48,48,l),
(588,668,l),
(597,715,l),
(143,715,l),
(135,671,l),
(526,671,l),
(526,668,l),
(-13,50,l)
);
},
{
closed = 1;
nodes = (
(513,852,l),
(457,852,l),
(378,781,l),
(376,781,l),
(322,852,l),
(269,852,l),
(342,751,l),
(404,751,l)
);
}
);
width = 554;
}
);
note = Zcaron;
unicode = 381;
},
{
glyphname = zcaron;
kernLeft = zcaron;
kernRight = zcaron;
layers = (
{
hints = (
{
horizontal = 1;
place = (0, 42);
place = (0, 42);
type = Stem;
},
{
horizontal = 1;
place = (475, 42);
place = (475, 42);
type = Stem;
},
{
horizontal = 1;
place = (592, 106);
place = (592, 106);
type = Stem;
},
{
place = (-26, 457);
place = (-26, 457);
type = Stem;
},
{
horizontal = 1;
place = (592, 30);
place = (592, 30);
type = Stem;
}
);
layerId = m01;
shapes = (
{
closed = 1;
nodes = (
(-26,0,l),
(339,0,l),
(347,42,l),
(41,42,l),
(41,45,l),
(423,477,l),
(431,517,l),
(95,517,l),
(87,475,l),
(360,475,l),
(360,472,l),
(-18,44,l)
);
},
{
closed = 1;
nodes = (
(399,698,l),
(343,698,l),
(277,622,l),
(275,622,l),
(234,698,l),
(181,698,l),
(241,592,l),
(303,592,l)
);
}
);
width = 413;
}
);
note = zcaron;
unicode = 382;
},
{
glyphname = onehalf;
layers = (
{
hints = (
{
horizontal = 1;
place = (0, 38);
place = (0, 38);
type = Stem;
},
{
horizontal = 1;
place = (368, 38);
place = (368, 38);
type = Stem;
},
{
horizontal = 1;
place = (612, 32);
place = (612, 32);
type = Stem;
},
{
horizontal = 1;
place = (715, -20);
target = down;
type = TopGhost;
},
{
place = (642, 48);
place = (642, 48);
type = Stem;
},
{
horizontal = 1;
place = (612, 106);
place = (612, 106);
type = Stem;
}
);
layerId = m01;
shapes = (
{
closed = 1;
nodes = (
(128,317,l),
(174,317,l),
(251,718,l),
(214,718,l),
(198,666,o),
(171,647,o),
(99,644,c),
(93,612,l),
(185,612,l)
);
},
{
closed = 1;
nodes = (
(13,0,l),
(65,0,l),
(681,715,l),
(629,715,l)
);
},
{
closed = 1;
nodes = (
(639,0,l),
(647,38,l),
(432,38,l),
(445,87,o),
(495,117,o),
(553,148,cs),
(630,188,o),
(689,220,o),
(690,299,cs),
(690,373,o),
(630,406,o),
(571,406,cs),
(501,406,o),
(439,363,o),
(426,269,c),
(470,269,l),
(482,337,o),
(521,368,o),
(568,368,cs),
(611,368,o),
(642,341,o),
(642,298,cs),
(642,236,o),
(593,212,o),
(535,181,cs),
(461,142,o),
(390,100,o),
(373,0,c)
);
}
);
width = 731;
}
);
note = onehalf;
unicode = 189;
},
{
glyphname = onequarter;
layers = (
{
hints = (
{
horizontal = 1;
place = (100, 35);
place = (100, 35);
type = Stem;
},
{
horizontal = 1;
place = (612, 32);
place = (612, 32);
type = Stem;
},
{
horizontal = 1;
place = (715, -20);
target = down;
type = TopGhost;
},
{
place = (22, 668);
place = (22, 668);
type = Stem;
},
{
horizontal = 1;
place = (612, 106);
place = (612, 106);
type = Stem;
},
{
horizontal = 1;
place = (0, 135);
place = (0, 135);
type = Stem;
}
);
layerId = m01;
shapes = (
{
closed = 1;
nodes = (
(128,317,l),
(174,317,l),
(251,718,l),
(214,718,l),
(198,666,o),
(171,647,o),
(99,644,c),
(93,612,l),
(185,612,l)
);
},
{
closed = 1;
nodes = (
(22,0,l),
(74,0,l),
(690,715,l),
(638,715,l)
);
},
{
closed = 1;
nodes = (
(514,0,l),
(557,0,l),
(576,100,l),
(636,100,l),
(643,135,l),
(584,135,l),
(635,402,l),
(594,402,l),
(346,143,l),
(337,100,l),
(532,100,l)
);
},
{
closed = 1;
nodes = (
(389,136,l),
(577,335,l),
(578,335,l),
(540,135,l),
(389,135,l)
);
}
);
width = 693;
}
);
note = onequarter;
unicode = 188;
},
{
glyphname = onesuperior;
layers = (
{
hints = (
{
horizontal = 1;
place = (582, 106);
place = (582, 106);
type = Stem;
},
{
place = (78, 158);
place = (78, 158);
type = Stem;
},
{
horizontal = 1;
place = (582, 32);
place = (582, 32);
type = Stem;
}
);
layerId = m01;
shapes = (
{
closed = 1;
nodes = (
(113,287,l),
(159,287,l),
(236,688,l),
(199,688,l),
(183,636,o),
(156,617,o),
(84,614,c),
(78,582,l),
(170,582,l)
);
}
);
width = 216;
}
);
note = onesuperior;
unicode = 185;
},
{
glyphname = threequarters;
layers = (
{
hints = (
{
horizontal = 1;
place = (100, 35);
place = (100, 35);
type = Stem;
},
{
horizontal = 1;
place = (309, 38);
place = (309, 38);
type = Stem;
},
{
horizontal = 1;
place = (525, -20);
target = down;
type = TopGhost;
},
{
horizontal = 1;
place = (687, 36);
place = (687, 36);
type = Stem;
},
{
place = (56, 42);
place = (56, 42);
type = Stem;
},
{
place = (294, 46);
place = (294, 46);
type = Stem;
},
{
horizontal = 1;
place = (509, 36);
place = (509, 36);
type = Stem;
},
{
place = (309, 45);
place = (309, 45);
type = Stem;
},
{
horizontal = 1;
place = (0, 135);
place = (0, 135);
type = Stem;
},
{
horizontal = 1;
place = (715, -20);
target = down;
type = TopGhost;
}
);
layerId = m01;
shapes = (
{
closed = 1;
nodes = (
(276,309,o),
(340,358,o),
(340,438,cs),
(340,476,o),
(316,512,o),
(280,525,c),
(280,527,l),
(323,541,o),
(354,575,o),
(354,625,cs),
(354,694,o),
(301,723,o),
(242,723,cs),
(167,723,o),
(112,674,o),
(100,597,c),
(142,597,l),
(151,655,o),
(189,687,o),
(241,687,cs),
(280,687,o),
(309,666,o),
(309,623,cs),
(309,571,o),
(273,544,o),
(226,545,cs),
(197,545,l),
(190,509,l),
(211,509,ls),
(265,509,o),
(294,479,o),
(294,435,cs),
(293,378,o),
(251,347,o),
(200,347,cs),
(136,347,o),
(102,381,o),
(98,441,c),
(56,441,l),
(58,357,o),
(116,309,o),
(199,309,cs)
);
},
{
closed = 1;
nodes = (
(93,0,l),
(145,0,l),
(761,715,l),
(709,715,l)
);
},
{
closed = 1;
nodes = (
(579,0,l),
(622,0,l),
(641,100,l),
(701,100,l),
(708,135,l),
(649,135,l),
(700,402,l),
(659,402,l),
(411,143,l),
(402,100,l),
(597,100,l)
);
},
{
closed = 1;
nodes = (
(454,136,l),
(642,335,l),
(643,335,l),
(605,135,l),
(454,135,l)
);
}
);
width = 758;
}
);
note = threequarters;
unicode = 190;
},
{
glyphname = threesuperior;
layers = (
{
hints = (
{
horizontal = 1;
place = (279, 38);
place = (279, 38);
type = Stem;
},
{
horizontal = 1;
place = (479, 36);
place = (479, 36);
type = Stem;
},
{
horizontal = 1;
place = (657, 36);
place = (657, 36);
type = Stem;
},
{
place = (44, 44);
place = (44, 44);
type = Stem;
},
{
place = (282, 46);
place = (282, 46);
type = Stem;
},
{
place = (297, 45);
place = (297, 45);
type = Stem;
}
);
layerId = m01;
shapes = (
{
closed = 1;
nodes = (
(264,279,o),
(328,328,o),
(328,408,cs),
(328,446,o),
(304,482,o),
(268,495,c),
(268,497,l),
(311,511,o),
(342,545,o),
(342,595,cs),
(342,664,o),
(289,693,o),
(230,693,cs),
(155,693,o),
(100,644,o),
(88,567,c),
(130,567,l),
(139,625,o),
(177,657,o),
(229,657,cs),
(268,657,o),
(297,636,o),
(297,593,cs),
(297,541,o),
(261,514,o),
(214,515,cs),
(185,515,l),
(178,479,l),
(199,479,ls),
(253,479,o),
(282,449,o),
(282,405,cs),
(281,348,o),
(239,317,o),
(188,317,cs),
(124,317,o),
(92,353,o),
(88,411,c),
(44,411,l),
(46,327,o),
(104,279,o),
(187,279,cs)
);
}
);
width = 332;
}
);
note = threesuperior;
unicode = 179;
},
{
glyphname = twosuperior;
layers = (
{
hints = (
{
horizontal = 1;
place = (287, 38);
place = (287, 38);
type = Stem;
},
{
horizontal = 1;
place = (655, 38);
place = (655, 38);
type = Stem;
},
{
place = (297, 48);
place = (297, 48);
type = Stem;
}
);
layerId = m01;
shapes = (
{
closed = 1;
nodes = (
(294,287,l),
(302,325,l),
(87,325,l),
(100,374,o),
(150,404,o),
(208,435,cs),
(285,475,o),
(344,507,o),
(345,586,cs),
(345,660,o),
(285,693,o),
(226,693,cs),
(156,693,o),
(94,650,o),
(81,556,c),
(125,556,l),
(137,624,o),
(176,655,o),
(223,655,cs),
(266,655,o),
(297,628,o),
(297,585,cs),
(297,523,o),
(248,499,o),
(190,468,cs),
(116,429,o),
(45,387,o),
(28,287,c)
);
}
);
width = 308;
}
);
note = twosuperior;
unicode = 178;
},
{
glyphname = brokenbar;
layers = (
{
hints = (
{
horizontal = 1;
place = (-118, 872);
place = (-118, 872);
type = Stem;
},
{
place = (98, 46);
place = (98, 46);
type = Stem;
}
);
layerId = m01;
shapes = (
{
closed = 1;
nodes = (
(98,-118,l),
(144,-118,l),
(144,293,l),
(98,293,l)
);
},
{
closed = 1;
nodes = (
(144,754,l),
(98,754,l),
(98,359,l),
(144,359,l)
);
}
);
width = 198;
}
);
note = brokenbar;
unicode = 166;
},
{
glyphname = minus;
kernLeft = minus;
kernRight = minus;
layers = (
{
hints = (
{
horizontal = 1;
place = (304, 45);
place = (304, 45);
type = Stem;
},
{
place = (63, 401);
place = (63, 401);
type = Stem;
}
);
layerId = m01;
shapes = (
{
closed = 1;
nodes = (
(63,304,l),
(455,304,l),
(464,349,l),
(72,349,l)
);
}
);
width = 502;
}
);
note = minus;
unicode = 8722;
},
{
glyphname = multiply;
layers = (
{
hints = (
{
horizontal = 1;
place = (144, 360);
place = (144, 360);
type = Stem;
},
{
place = (72, 380);
place = (72, 380);
type = Stem;
}
);
layerId = m01;
shapes = (
{
closed = 1;
nodes = (
(109,476,l),
(232,325,l),
(72,175,l),
(101,144,l),
(259,292,l),
(381,144,l),
(415,172,l),
(291,322,l),
(452,473,l),
(423,504,l),
(264,355,l),
(143,504,l)
);
}
);
width = 499;
}
);
note = multiply;
unicode = 215;
},
{
glyphname = exclam;
kernLeft = exclam;
layers = (
{
hints = (
{
horizontal = 1;
place = (0, 79);
place = (0, 79);
type = Stem;
},
{
horizontal = 1;
place = (715, -20);
target = down;
type = TopGhost;
},
{
place = (17, 195);
place = (17, 195);
type = Stem;
}
);
layerId = m01;
shapes = (
{
closed = 1;
nodes = (
(63,173,l),
(97,173,l),
(167,480,l),
(212,715,l),
(158,715,l),
(114,486,l)
);
},
{
closed = 1;
nodes = (
(17,0,l),
(77,0,l),
(92,79,l),
(32,79,l)
);
}
);
width = 194;
}
);
note = exclam;
unicode = 33;
},
{
glyphname = quotedbl;
kernLeft = quotedbl;
kernRight = quotedbl;
layers = (
{
hints = (
{
horizontal = 1;
place = (501, 214);
place = (501, 214);
type = Stem;
},
{
place = (90, 213);
place = (90, 213);
type = Stem;
}
);
layerId = m01;
shapes = (
{
closed = 1;
nodes = (
(213,501,l),
(262,501,l),
(303,715,l),
(254,715,l)
);
},
{
closed = 1;
nodes = (
(90,501,l),
(139,501,l),
(180,715,l),
(131,715,l)
);
}
);
width = 258;
}
);
note = quotedbl;
unicode = 34;
},
{
glyphname = numbersign;
layers = (
{
hints = (
{
horizontal = 1;
place = (0, 21);
target = up;
type = BottomGhost;
},
{
horizontal = 1;
place = (214, 43);
place = (214, 43);
type = Stem;
},
{
horizontal = 1;
place = (438, 43);
place = (438, 43);
type = Stem;
},
{
horizontal = 1;
place = (686, -20);
target = down;
type = TopGhost;
},
{
place = (31, 512);
place = (31, 512);
type = Stem;
}
);
layerId = m01;
shapes = (
{
closed = 1;
nodes = (
(44,257,l),
(31,214,l),
(133,214,l),
(75,0,l),
(121,0,l),
(179,214,l),
(326,214,l),
(268,0,l),
(313,0,l),
(371,214,l),
(467,214,l),
(480,257,l),
(383,257,l),
(432,438,l),
(530,438,l),
(543,481,l),
(443,481,l),
(499,686,l),
(454,686,l),
(399,481,l),
(251,481,l),
(306,686,l),
(261,686,l),
(205,481,l),
(106,481,l),
(93,438,l),
(194,438,l),
(145,257,l)
);
},
{
closed = 1;
nodes = (
(239,438,l),
(387,438,l),
(338,257,l),
(190,257,l)
);
}
);
width = 542;
}
);
note = numbersign;
unicode = 35;
},
{
glyphname = dollar;
layers = (
{
hints = (
{
horizontal = 1;
place = (2, 42);
place = (2, 42);
type = Stem;
},
{
horizontal = 1;
place = (654, 44);
place = (654, 44);
type = Stem;
},
{
place = (12, 50);
place = (12, 50);
type = Stem;
},
{
place = (97, 49);
place = (97, 49);
type = Stem;
},
{
place = (436, 51);
place = (436, 51);
type = Stem;
},
{
place = (476, 48);
place = (476, 48);
type = Stem;
}
);
layerId = m01;
shapes = (
{
closed = 1;
nodes = (
(182,-85,l),
(221,-85,l),
(238,2,l),
(262,2,ls),
(389,2,o),
(487,72,o),
(487,206,cs),
(487,296,o),
(418,340,o),
(311,380,c),
(363,647,l),
(426,630,o),
(472,585,o),
(476,512,c),
(524,512,l),
(519,612,o),
(457,671,o),
(372,691,c),
(385,757,l),
(346,757,l),
(334,697,l),
(325,697,o),
(317,698,o),
(308,698,cs),
(193,698,o),
(97,634,o),
(97,513,cs),
(97,431,o),
(151,387,o),
(266,346,c),
(208,49,l),
(124,65,o),
(67,123,o),
(62,226,c),
(12,226,l),
(19,100,o),
(96,28,o),
(200,8,c)
);
},
{
closed = 1;
nodes = (
(436,88,o),
(356,44,o),
(262,44,cs),
(246,44,l),
(302,333,l),
(399,296,o),
(436,260,o),
(436,204,cs)
);
},
{
closed = 1;
nodes = (
(146,618,o),
(223,654,o),
(306,654,cs),
(312,654,o),
(319,653,o),
(325,653,c),
(275,393,l),
(183,427,o),
(146,460,o),
(146,515,cs)
);
}
);
width = 530;
}
);
note = dollar;
unicode = 36;
},
{
glyphname = percent;
kernLeft = percent;
layers = (
{
hints = (
{
horizontal = 1;
place = (-13, 38);
place = (-13, 38);
type = Stem;
},
{
horizontal = 1;
place = (335, 38);
place = (335, 38);
type = Stem;
},
{
horizontal = 1;
place = (661, 38);
place = (661, 38);
type = Stem;
},
{
place = (79, 47);
place = (79, 47);
type = Stem;
},
{
place = (328, 47);
place = (328, 47);
type = Stem;
},
{
place = (433, 47);
place = (433, 47);
type = Stem;
},
{
place = (682, 47);
place = (682, 47);
type = Stem;
},
{
horizontal = 1;
place = (313, 38);
place = (313, 38);
type = Stem;
},
{
horizontal = 1;
place = (0, 21);
target = up;
type = BottomGhost;
},
{
horizontal = 1;
place = (685, -20);
target = down;
type = TopGhost;
}
);
layerId = m01;
shapes = (
{
closed = 1;
nodes = (
(143,699,o),
(79,588,o),
(79,465,cs),
(79,373,o),
(130,313,o),
(208,313,cs),
(314,313,o),
(375,426,o),
(375,547,cs),
(375,638,o),
(327,699,o),
(248,699,cs)
);
},
{
closed = 1;
nodes = (
(328,453,o),
(289,350,o),
(209,351,cs),
(153,352,o),
(126,401,o),
(126,465,cs),
(126,561,o),
(166,661,o),
(247,661,cs),
(304,661,o),
(328,611,o),
(328,547,cs)
);
},
{
closed = 1;
nodes = (
(111,0,l),
(159,0,l),
(699,685,l),
(652,685,l)
);
},
{
closed = 1;
nodes = (
(497,373,o),
(433,262,o),
(433,139,cs),
(433,47,o),
(484,-13,o),
(562,-13,cs),
(668,-13,o),
(729,100,o),
(729,221,cs),
(729,312,o),
(681,373,o),
(602,373,cs)
);
},
{
closed = 1;
nodes = (
(682,127,o),
(643,24,o),
(563,25,cs),
(507,26,o),
(480,75,o),
(480,139,cs),
(480,235,o),
(520,335,o),
(601,335,cs),
(658,335,o),
(682,285,o),
(682,221,cs)
);
}
);
width = 777;
}
);
note = percent;
unicode = 37;
},
{
glyphname = ampersand;
kernLeft = ampersand;
kernRight = ampersand;
layers = (
{
hints = (
{
horizontal = 1;
place = (-13, 44);
place = (-13, 44);
type = Stem;
},
{
horizontal = 1;
place = (662, 43);
place = (662, 43);
type = Stem;
},
{
place = (14, 54);
place = (14, 54);
type = Stem;
},
{
place = (157, 51);
place = (157, 51);
type = Stem;
},
{
place = (393, 51);
place = (393, 51);
type = Stem;
},
{
horizontal = 1;
place = (0, 21);
target = up;
type = BottomGhost;
}
);
layerId = m01;
shapes = (
{
closed = 1;
nodes = (
(290,-13,o),
(363,19,o),
(411,70,c),
(454,0,l),
(510,0,l),
(444,109,l),
(483,163,o),
(510,232,o),
(524,321,c),
(476,321,l),
(462,250,o),
(444,195,o),
(419,153,c),
(284,382,l),
(359,419,o),
(444,470,o),
(444,573,cs),
(444,657,o),
(388,705,o),
(310,705,cs),
(220,705,o),
(157,637,o),
(157,553,cs),
(157,502,o),
(176,462,o),
(218,398,c),
(103,345,o),
(14,291,o),
(14,169,cs),
(14,42,o),
(111,-13,o),
(217,-13,cs)
);
},
{
closed = 1;
nodes = (
(68,280,o),
(158,325,o),
(238,362,c),
(388,110,l),
(349,64,o),
(281,31,o),
(218,31,cs),
(132,31,o),
(68,79,o),
(68,169,cs)
);
},
{
closed = 1;
nodes = (
(361,662,o),
(393,623,o),
(393,572,cs),
(393,486,o),
(322,448,o),
(263,418,c),
(224,479,o),
(208,515,o),
(208,554,cs),
(208,618,o),
(247,662,o),
(307,662,cs)
);
}
);
width = 562;
}
);
note = ampersand;
unicode = 38;
},
{
glyphname = quotesingle;
kernLeft = quotedbl;
kernRight = quotedbl;
layers = (
{
hints = (
{
horizontal = 1;
place = (715, -20);
target = down;
type = TopGhost;
},
{
place = (90, 90);
place = (90, 90);
type = Stem;
}
);
layerId = m01;
shapes = (
{
closed = 1;
nodes = (
(90,501,l),
(139,501,l),
(180,715,l),
(131,715,l)
);
}
);
width = 135;
}
);
note = quotesingle;
unicode = 39;
},
{
glyphname = parenleft;
kernRight = parenleft;
layers = (
{
hints = (
{
horizontal = 1;
place = (-118, 872);
place = (-118, 872);
type = Stem;
},
{
place = (70, 54);
place = (70, 54);
type = Stem;
}
);
layerId = m01;
shapes = (
{
closed = 1;
nodes = (
(176,-118,l),
(142,-33,o),
(124,55,o),
(124,155,cs),
(124,392,o),
(207,583,o),
(352,754,c),
(302,754,l),
(156,591,o),
(65,406,o),
(70,155,cs),
(72,48,o),
(94,-37,o),
(131,-118,c)
);
}
);
width = 267;
}
);
note = parenleft;
unicode = 40;
},
{
glyphname = parenright;
kernLeft = parenright;
layers = (
{
hints = (
{
horizontal = 1;
place = (-118, 872);
place = (-118, 872);
type = Stem;
},
{
place = (167, 54);
place = (167, 54);
type = Stem;
}
);
layerId = m01;
shapes = (
{
closed = 1;
nodes = (
(115,754,l),
(149,669,o),
(167,581,o),
(167,481,cs),
(167,244,o),
(84,53,o),
(-61,-118,c),
(-11,-118,l),
(135,45,o),
(226,230,o),
(221,481,cs),
(219,588,o),
(197,673,o),
(160,754,c)
);
}
);
width = 267;
}
);
note = parenright;
unicode = 41;
},
{
glyphname = asterisk;
kernLeft = asterisk;
kernRight = asterisk;
layers = (
{
hints = (
{
horizontal = 1;
place = (715, -20);
target = down;
type = TopGhost;
},
{
place = (102, 271);
place = (102, 271);
type = Stem;
}
);
layerId = m01;
shapes = (
{
closed = 1;
nodes = (
(279,715,l),
(238,715,l),
(215,595,l),
(120,641,l),
(102,608,l),
(194,563,l),
(111,475,l),
(137,450,l),
(227,547,l),
(278,442,l),
(312,461,l),
(264,559,l),
(373,589,l),
(364,624,l),
(256,594,l)
);
}
);
width = 348;
}
);
note = asterisk;
unicode = 42;
},
{
glyphname = plus;
kernLeft = minus;
kernRight = minus;
layers = (
{
hints = (
{
horizontal = 1;
place = (304, 45);
place = (304, 45);
type = Stem;
},
{
place = (63, 401);
place = (63, 401);
type = Stem;
}
);
layerId = m01;
shapes = (
{
closed = 1;
nodes = (
(63,304,l),
(234,304,l),
(197,114,l),
(247,114,l),
(284,304,l),
(455,304,l),
(464,349,l),
(293,349,l),
(330,536,l),
(280,536,l),
(243,349,l),
(72,349,l)
);
}
);
width = 502;
}
);
note = plus;
unicode = 43;
},
{
glyphname = comma;
kernLeft = comma;
kernRight = comma;
layers = (
{
hints = (
{
horizontal = 1;
place = (0, 79);
place = (0, 79);
type = Stem;
},
{
place = (-30, 95);
place = (-30, 95);
type = Stem;
}
);
layerId = m01;
shapes = (
{
closed = 1;
nodes = (
(-30,-94,l),
(15,-88,o),
(37,-65,o),
(47,-13,cs),
(65,79,l),
(5,79,l),
(-10,0,l),
(15,0,l),
(14,-5,ls),
(7,-45,o),
(-3,-59,o),
(-24,-65,c)
);
}
);
width = 141;
}
);
note = comma;
unicode = 44;
},
{
glyphname = hyphen;
kernLeft = hyphen;
kernRight = hyphen;
layers = (
{
hints = (
{
horizontal = 1;
place = (261, 43);
place = (261, 43);
type = Stem;
},
{
place = (32, 254);
place = (32, 254);
type = Stem;
}
);
layerId = m01;
shapes = (
{
closed = 1;
nodes = (
(32,261,l),
(277,261,l),
(286,304,l),
(41,304,l)
);
}
);
width = 309;
}
);
note = hyphen;
unicode = 45;
},
{
glyphname = period;
kernLeft = comma;
kernRight = comma;
layers = (
{
hints = (
{
horizontal = 1;
place = (0, 79);
place = (0, 79);
type = Stem;
},
{
place = (-10, 75);
place = (-10, 75);
type = Stem;
}
);
layerId = m01;
shapes = (
{
closed = 1;
nodes = (
(-10,0,l),
(50,0,l),
(65,79,l),
(5,79,l)
);
}
);
width = 141;
}
);
note = period;
unicode = 46;
},
{
glyphname = slash;
kernLeft = slash;
kernRight = slash;
layers = (
{
hints = (
{
horizontal = 1;
place = (0, 21);
target = up;
type = BottomGhost;
},
{
horizontal = 1;
place = (715, -20);
target = down;
type = TopGhost;
},
{
place = (-34, 468);
place = (-34, 468);
type = Stem;
}
);
layerId = m01;
shapes = (
{
closed = 1;
nodes = (
(-34,0,l),
(19,0,l),
(434,715,l),
(381,715,l)
);
}
);
width = 362;
}
);
note = slash;
unicode = 47;
},
{
glyphname = zero;
kernLeft = zero;
kernRight = zero;
layers = (
{
hints = (
{
horizontal = 1;
place = (-13, 44);
place = (-13, 44);
type = Stem;
},
{
horizontal = 1;
place = (656, 43);
place = (656, 43);
type = Stem;
},
{
place = (40, 53);
place = (40, 53);
type = Stem;
},
{
place = (488, 53);
place = (488, 53);
type = Stem;
}
);
layerId = m01;
shapes = (
{
closed = 1;
nodes = (
(470,-13,o),
(541,275,o),
(541,440,cs),
(541,586,o),
(478,699,o),
(338,699,cs),
(118,699,o),
(40,414,o),
(40,247,cs),
(40,100,o),
(102,-13,o),
(249,-13,cs)
);
},
{
closed = 1;
nodes = (
(93,394,o),
(155,656,o),
(337,656,cs),
(454,656,o),
(489,542,o),
(488,439,cs),
(487,296,o),
(429,31,o),
(250,31,cs),
(126,31,o),
(93,143,o),
(93,246,cs)
);
}
);
width = 549;
}
);
note = zero;
unicode = 48;
},
{
glyphname = one;
kernLeft = one;
kernRight = one;
layers = (
{
hints = (
{
horizontal = 1;
place = (0, 21);
target = up;
type = BottomGhost;
},
{
horizontal = 1;
place = (526, 35);
place = (526, 35);
type = Stem;
},
{
horizontal = 1;
place = (689, -20);
target = down;
type = TopGhost;
},
{
place = (69, 219);
place = (69, 219);
type = Stem;
}
);
layerId = m01;
shapes = (
{
closed = 1;
nodes = (
(105,0,l),
(155,0,l),
(288,689,l),
(252,689,l),
(225,594,o),
(191,568,o),
(76,561,c),
(69,526,l),
(207,526,l)
);
}
);
width = 295;
}
);
note = one;
unicode = 49;
},
{
glyphname = two;
kernLeft = two;
kernRight = two;
layers = (
{
hints = (
{
horizontal = 1;
place = (0, 47);
place = (0, 47);
type = Stem;
},
{
horizontal = 1;
place = (655, 44);
place = (655, 44);
type = Stem;
},
{
place = (439, 53);
place = (439, 53);
type = Stem;
}
);
layerId = m01;
shapes = (
{
closed = 1;
nodes = (
(410,0,l),
(419,47,l),
(52,47,l),
(79,143,o),
(156,197,o),
(265,258,cs),
(378,321,o),
(492,378,o),
(492,523,cs),
(492,644,o),
(402,699,o),
(307,699,cs),
(197,699,o),
(99,635,o),
(75,475,c),
(126,475,l),
(151,601,o),
(216,655,o),
(305,655,cs),
(388,655,o),
(439,605,o),
(439,523,cs),
(439,401,o),
(347,354,o),
(246,298,cs),
(132,235,o),
(15,167,o),
(-11,0,c)
);
}
);
width = 484;
}
);
note = two;
unicode = 50;
},
{
glyphname = three;
kernLeft = three;
kernRight = three;
layers = (
{
hints = (
{
horizontal = 1;
place = (-13, 47);
place = (-13, 47);
type = Stem;
},
{
horizontal = 1;
place = (341, 44);
place = (341, 44);
type = Stem;
},
{
horizontal = 1;
place = (656, 43);
place = (656, 43);
type = Stem;
},
{
place = (9, 51);
place = (9, 51);
type = Stem;
},
{
place = (428, 52);
place = (428, 52);
type = Stem;
},
{
place = (396, 53);
place = (396, 53);
type = Stem;
}
);
layerId = m01;
shapes = (
{
closed = 1;
nodes = (
(355,-13,o),
(449,72,o),
(449,203,cs),
(449,269,o),
(413,332,o),
(357,358,c),
(357,361,l),
(429,387,o),
(480,445,o),
(480,535,cs),
(480,650,o),
(396,699,o),
(302,699,cs),
(181,699,o),
(94,611,o),
(78,487,c),
(130,487,l),
(142,581,o),
(206,656,o),
(300,656,cs),
(372,656,o),
(428,620,o),
(428,533,cs),
(428,438,o),
(365,385,o),
(274,385,cs),
(222,385,l),
(214,341,l),
(250,341,ls),
(348,341,o),
(396,281,o),
(396,201,cs),
(396,90,o),
(323,34,o),
(231,34,cs),
(118,34,o),
(65,101,o),
(60,203,c),
(9,203,l),
(9,67,o),
(97,-13,o),
(229,-13,cs)
);
}
);
width = 495;
}
);
note = three;
unicode = 51;
},
{
glyphname = four;
kernLeft = four;
kernRight = four;
layers = (
{
hints = (
{
horizontal = 1;
place = (0, 21);
target = up;
type = BottomGhost;
},
{
horizontal = 1;
place = (181, 44);
place = (181, 44);
type = Stem;
},
{
horizontal = 1;
place = (692, -20);
target = down;
type = TopGhost;
},
{
place = (6, 471);
place = (6, 471);
type = Stem;
}
);
layerId = m01;
shapes = (
{
closed = 1;
nodes = (
(285,0,l),
(335,0,l),
(369,181,l),
(468,181,l),
(477,225,l),
(378,225,l),
(469,692,l),
(423,692,l),
(16,230,l),
(6,181,l),
(319,181,l)
);
},
{
closed = 1;
nodes = (
(72,228,l),
(398,598,l),
(400,598,l),
(328,225,l),
(72,225,l)
);
}
);
width = 510;
}
);
note = four;
unicode = 52;
},
{
glyphname = five;
kernLeft = five;
kernRight = five;
layers = (
{
hints = (
{
horizontal = 1;
place = (-13, 47);
place = (-13, 47);
type = Stem;
},
{
horizontal = 1;
place = (394, 45);
place = (394, 45);
type = Stem;
},
{
horizontal = 1;
place = (639, 46);
place = (639, 46);
type = Stem;
},
{
place = (8, 52);
place = (8, 52);
type = Stem;
},
{
place = (391, 53);
place = (391, 53);
type = Stem;
},
{
horizontal = 1;
place = (323, 59);
place = (323, 59);
type = Stem;
}
);
layerId = m01;
shapes = (
{
closed = 1;
nodes = (
(364,-13,o),
(444,107,o),
(444,237,cs),
(444,366,o),
(366,439,o),
(258,439,cs),
(204,439,o),
(155,421,o),
(116,382,c),
(114,382,l),
(190,639,l),
(471,639,l),
(480,685,l),
(159,685,l),
(52,323,l),
(102,323,l),
(133,363,o),
(178,394,o),
(249,394,cs),
(340,394,o),
(391,334,o),
(391,237,cs),
(391,122,o),
(333,34,o),
(213,34,cs),
(121,34,o),
(67,89,o),
(60,176,c),
(8,176,l),
(16,54,o),
(108,-13,o),
(212,-13,cs)
);
}
);
width = 476;
}
);
note = five;
unicode = 53;
},
{
glyphname = six;
kernLeft = six;
kernRight = six;
layers = (
{
hints = (
{
horizontal = 1;
place = (-13, 43);
place = (-13, 43);
type = Stem;
},
{
horizontal = 1;
place = (393, 43);
place = (393, 43);
type = Stem;
},
{
horizontal = 1;
place = (655, 44);
place = (655, 44);
type = Stem;
},
{
place = (42, 51);
place = (42, 51);
type = Stem;
},
{
place = (427, 52);
place = (427, 52);
type = Stem;
},
{
place = (469, 51);
place = (469, 51);
type = Stem;
}
);
layerId = m01;
shapes = (
{
closed = 1;
nodes = (
(396,-13,o),
(479,100,o),
(479,236,cs),
(479,365,o),
(391,436,o),
(285,436,cs),
(214,436,o),
(144,400,o),
(102,328,c),
(100,328,l),
(135,532,o),
(221,655,o),
(347,655,cs),
(423,655,o),
(468,605,o),
(469,530,c),
(520,530,l),
(515,639,o),
(451,699,o),
(349,699,cs),
(135,699,o),
(42,421,o),
(42,226,cs),
(42,128,o),
(65,72,o),
(119,28,cs),
(148,5,o),
(193,-13,o),
(248,-13,cs)
);
},
{
closed = 1;
nodes = (
(93,297,o),
(166,393,o),
(282,393,cs),
(371,393,o),
(427,327,o),
(427,235,cs),
(427,125,o),
(373,30,o),
(249,30,cs),
(161,30,o),
(93,86,o),
(93,190,cs)
);
}
);
width = 522;
}
);
note = six;
unicode = 54;
},
{
glyphname = seven;
kernLeft = seven;
kernRight = seven;
layers = (
{
hints = (
{
horizontal = 1;
place = (0, 21);
target = up;
type = BottomGhost;
},
{
horizontal = 1;
place = (640, 45);
place = (640, 45);
type = Stem;
},
{
place = (97, 430);
place = (97, 430);
type = Stem;
}
);
layerId = m01;
shapes = (
{
closed = 1;
nodes = (
(165,0,l),
(228,267,o),
(364,499,o),
(518,639,c),
(527,685,l),
(106,685,l),
(97,640,l),
(461,640,l),
(461,638,l),
(306,490,o),
(166,239,o),
(110,0,c)
);
}
);
width = 465;
}
);
note = seven;
unicode = 55;
},
{
glyphname = eight;
kernLeft = eight;
kernRight = eight;
layers = (
{
hints = (
{
horizontal = 1;
place = (-13, 44);
place = (-13, 44);
type = Stem;
},
{
horizontal = 1;
place = (348, 43);
place = (348, 43);
type = Stem;
},
{
horizontal = 1;
place = (656, 43);
place = (656, 43);
type = Stem;
},
{
place = (21, 53);
place = (21, 53);
type = Stem;
},
{
place = (105, 51);
place = (105, 51);
type = Stem;
},
{
place = (420, 52);
place = (420, 52);
type = Stem;
},
{
place = (442, 51);
place = (442, 51);
type = Stem;
}
);
layerId = m01;
shapes = (
{
closed = 1;
nodes = (
(377,-13,o),
(474,72,o),
(472,204,cs),
(471,278,o),
(428,339,o),
(366,363,c),
(366,366,l),
(443,393,o),
(493,448,o),
(493,532,cs),
(493,648,o),
(400,699,o),
(313,699,cs),
(193,698,o),
(105,618,o),
(105,504,cs),
(105,449,o),
(134,401,o),
(180,378,c),
(180,375,l),
(85,346,o),
(21,283,o),
(21,177,cs),
(21,46,o),
(134,-13,o),
(233,-13,cs)
);
},
{
closed = 1;
nodes = (
(74,289,o),
(157,348,o),
(259,348,cs),
(340,348,o),
(419,302,o),
(420,204,cs),
(421,92,o),
(342,31,o),
(235,31,cs),
(152,31,o),
(74,79,o),
(74,177,cs)
);
},
{
closed = 1;
nodes = (
(156,598,o),
(226,657,o),
(312,656,cs),
(382,656,o),
(442,608,o),
(442,530,cs),
(442,435,o),
(367,391,o),
(285,391,cs),
(211,391,o),
(156,434,o),
(156,506,cs)
);
}
);
width = 514;
}
);
note = eight;
unicode = 56;
},
{
glyphname = nine;
kernLeft = nine;
kernRight = nine;
layers = (
{
hints = (
{
horizontal = 1;
place = (-13, 44);
place = (-13, 44);
type = Stem;
},
{
horizontal = 1;
place = (250, 43);
place = (250, 43);
type = Stem;
},
{
horizontal = 1;
place = (656, 43);
place = (656, 43);
type = Stem;
},
{
place = (64, 52);
place = (64, 52);
type = Stem;
},
{
place = (450, 51);
place = (450, 51);
type = Stem;
},
{
place = (20, 51);
place = (20, 51);
type = Stem;
}
);
layerId = m01;
shapes = (
{
closed = 1;
nodes = (
(157,699,o),
(64,586,o),
(64,453,cs),
(64,323,o),
(152,250,o),
(258,250,cs),
(329,250,o),
(402,287,o),
(444,360,c),
(446,360,l),
(426,235,o),
(383,128,o),
(333,80,cs),
(294,43,o),
(254,31,o),
(206,31,cs),
(130,31,o),
(72,74,o),
(71,156,c),
(20,156,l),
(25,42,o),
(102,-13,o),
(204,-13,cs),
(264,-13,o),
(317,5,o),
(362,45,cs),
(459,132,o),
(501,316,o),
(501,452,cs),
(501,558,o),
(478,614,o),
(424,658,cs),
(395,681,o),
(350,699,o),
(295,699,cs)
);
},
{
closed = 1;
nodes = (
(450,389,o),
(377,293,o),
(257,293,cs),
(172,293,o),
(116,359,o),
(116,454,cs),
(116,561,o),
(180,656,o),
(294,656,cs),
(382,656,o),
(450,600,o),
(450,496,cs)
);
}
);
width = 514;
}
);
note = nine;
unicode = 57;
},
{
glyphname = colon;
kernLeft = colon;
kernRight = colon;
layers = (
{
hints = (
{
horizontal = 1;
place = (0, 79);
place = (0, 79);
type = Stem;
},
{
horizontal = 1;
place = (309, 79);
place = (309, 79);
type = Stem;
},
{
place = (-5, 135);
place = (-5, 135);
type = Stem;
}
);
layerId = m01;
shapes = (
{
closed = 1;
nodes = (
(55,309,l),
(115,309,l),
(130,388,l),
(70,388,l)
);
},
{
closed = 1;
nodes = (
(-5,0,l),
(55,0,l),
(70,79,l),
(10,79,l)
);
}
);
width = 151;
}
);
note = colon;
unicode = 58;
},
{
glyphname = semicolon;
kernLeft = colon;
kernRight = colon;
layers = (
{
hints = (
{
horizontal = 1;
place = (0, 79);
place = (0, 79);
type = Stem;
},
{
horizontal = 1;
place = (309, 79);
place = (309, 79);
type = Stem;
},
{
place = (-25, 155);
place = (-25, 155);
type = Stem;
}
);
layerId = m01;
shapes = (
{
closed = 1;
nodes = (
(55,309,l),
(115,309,l),
(130,388,l),
(70,388,l)
);
},
{
closed = 1;
nodes = (
(-25,-94,l),
(20,-88,o),
(42,-65,o),
(52,-13,cs),
(70,79,l),
(10,79,l),
(-5,0,l),
(20,0,l),
(19,-5,ls),
(12,-45,o),
(2,-59,o),
(-19,-65,c)
);
}
);
width = 151;
}
);
note = semicolon;
unicode = 59;
},
{
glyphname = less;
layers = (
{
hints = (
{
horizontal = 1;
place = (117, 389);
place = (117, 389);
type = Stem;
},
{
place = (54, 424);
place = (54, 424);
type = Stem;
}
);
layerId = m01;
shapes = (
{
closed = 1;
nodes = (
(402,117,l),
(412,164,l),
(102,311,l),
(102,313,l),
(468,455,l),
(478,506,l),
(65,344,l),
(54,287,l)
);
}
);
width = 483;
}
);
note = less;
unicode = 60;
},
{
glyphname = equal;
layers = (
{
hints = (
{
horizontal = 1;
place = (212, 45);
place = (212, 45);
type = Stem;
},
{
horizontal = 1;
place = (362, 45);
place = (362, 45);
type = Stem;
},
{
place = (46, 430);
place = (46, 430);
type = Stem;
}
);
layerId = m01;
shapes = (
{
closed = 1;
nodes = (
(75,362,l),
(467,362,l),
(476,407,l),
(85,407,l)
);
},
{
closed = 1;
nodes = (
(46,212,l),
(438,212,l),
(447,257,l),
(55,257,l)
);
}
);
width = 502;
}
);
note = equal;
unicode = 61;
},
{
glyphname = greater;
layers = (
{
hints = (
{
horizontal = 1;
place = (117, 389);
place = (117, 389);
type = Stem;
},
{
place = (25, 424);
place = (25, 424);
type = Stem;
}
);
layerId = m01;
shapes = (
{
closed = 1;
nodes = (
(101,506,l),
(91,459,l),
(401,312,l),
(401,310,l),
(35,168,l),
(25,117,l),
(438,279,l),
(449,336,l)
);
}
);
width = 483;
}
);
note = greater;
unicode = 62;
},
{
glyphname = question;
kernLeft = question;
layers = (
{
hints = (
{
horizontal = 1;
place = (0, 79);
place = (0, 79);
type = Stem;
},
{
horizontal = 1;
place = (683, 45);
place = (683, 45);
type = Stem;
},
{
place = (441, 53);
place = (441, 53);
type = Stem;
}
);
layerId = m01;
shapes = (
{
closed = 1;
nodes = (
(232,173,l),
(251,278,o),
(282,308,o),
(347,355,cs),
(432,417,o),
(494,466,o),
(494,569,cs),
(494,677,o),
(408,728,o),
(317,728,cs),
(180,728,o),
(96,633,o),
(80,517,c),
(132,517,l),
(151,623,o),
(219,683,o),
(312,683,cs),
(383,683,o),
(441,644,o),
(441,569,cs),
(441,479,o),
(381,436,o),
(319,391,cs),
(238,332,o),
(206,301,o),
(183,173,c)
);
},
{
closed = 1;
nodes = (
(145,0,l),
(205,0,l),
(220,79,l),
(160,79,l)
);
}
);
width = 479;
}
);
note = question;
unicode = 63;
},
{
glyphname = at;
kernLeft = at;
kernRight = at;
layers = (
{
hints = (
{
horizontal = 1;
place = (-100, 42);
place = (-100, 42);
type = Stem;
},
{
horizontal = 1;
place = (82, 41);
place = (82, 41);
type = Stem;
},
{
horizontal = 1;
place = (484, 40);
place = (484, 40);
type = Stem;
},
{
horizontal = 1;
place = (669, 42);
place = (669, 42);
type = Stem;
},
{
place = (42, 46);
place = (42, 46);
type = Stem;
},
{
place = (234, 49);
place = (234, 49);
type = Stem;
},
{
place = (535, 41);
place = (535, 41);
type = Stem;
},
{
place = (781, 46);
place = (781, 46);
type = Stem;
},
{
horizontal = 1;
place = (92, 39);
place = (92, 39);
type = Stem;
}
);
layerId = m01;
shapes = (
{
closed = 1;
nodes = (
(445,82,o),
(505,121,o),
(534,172,c),
(535,172,l),
(537,135,o),
(564,92,o),
(636,92,cs),
(780,92,o),
(827,249,o),
(827,369,cs),
(827,592,o),
(663,711,o),
(474,711,cs),
(218,711,o),
(42,499,o),
(42,262,cs),
(42,42,o),
(181,-100,o),
(415,-100,cs),
(491,-100,o),
(559,-83,o),
(624,-55,c),
(610,-17,l),
(547,-41,o),
(485,-58,o),
(415,-58,cs),
(202,-58,o),
(88,70,o),
(88,264,cs),
(88,500,o),
(257,669,o),
(473,669,cs),
(651,669,o),
(781,568,o),
(781,369,cs),
(781,263,o),
(749,131,o),
(637,131,cs),
(581,131,o),
(567,175,o),
(580,234,cs),
(639,516,l),
(597,516,l),
(580,444,l),
(577,444,l),
(559,490,o),
(521,524,o),
(450,524,cs),
(307,524,o),
(234,372,o),
(234,250,cs),
(234,146,o),
(286,82,o),
(382,82,cs)
);
},
{
closed = 1;
nodes = (
(311,123,o),
(283,175,o),
(283,250,cs),
(283,354,o),
(334,484,o),
(448,484,cs),
(532,484,o),
(561,424,o),
(554,339,cs),
(543,221,o),
(491,123,o),
(383,123,cs)
);
}
);
width = 849;
}
);
note = at;
unicode = 64;
},
{
glyphname = A;
kernLeft = A;
kernRight = A;
layers = (
{
hints = (
{
horizontal = 1;
place = (0, 21);
target = up;
type = BottomGhost;
},
{
horizontal = 1;
place = (230, 43);
place = (230, 43);
type = Stem;
},
{
horizontal = 1;
place = (664, 51);
place = (664, 51);
type = Stem;
},
{
place = (-45, 589);
place = (-45, 589);
type = Stem;
}
);
layerId = m01;
shapes = (
{
closed = 1;
nodes = (
(492,0,l),
(544,0,l),
(399,715,l),
(340,715,l),
(-45,0,l),
(7,0,l),
(131,230,l),
(446,230,l)
);
},
{
closed = 1;
nodes = (
(306,556,ls),
(332,604,o),
(360,664,o),
(360,664,c),
(362,664,l),
(362,664,o),
(373,598,o),
(381,557,cs),
(437,273,l),
(154,273,l)
);
}
);
width = 602;
}
);
note = A;
unicode = 65;
},
{
glyphname = B;
layers = (
{
hints = (
{
horizontal = 1;
place = (0, 47);
place = (0, 47);
type = Stem;
},
{
horizontal = 1;
place = (350, 45);
place = (350, 45);
type = Stem;
},
{
horizontal = 1;
place = (669, 46);
place = (669, 46);
type = Stem;
},
{
place = (530, 52);
place = (530, 52);
type = Stem;
},
{
place = (508, 53);
place = (508, 53);
type = Stem;
}
);
layerId = m01;
shapes = (
{
closed = 1;
nodes = (
(11,0,l),
(304,0,ls),
(386,0,o),
(465,22,o),
(511,74,cs),
(542,109,o),
(561,161,o),
(561,220,cs),
(561,297,o),
(525,351,o),
(455,373,c),
(455,375,l),
(532,402,o),
(582,461,o),
(582,552,cs),
(582,604,o),
(564,645,o),
(533,673,cs),
(502,701,o),
(461,715,o),
(403,715,cs),
(149,715,l)
);
},
{
closed = 1;
nodes = (
(71,47,l),
(129,350,l),
(374,350,ls),
(462,350,o),
(508,300,o),
(508,218,cs),
(508,169,o),
(493,128,o),
(466,101,cs),
(427,61,o),
(369,47,o),
(306,47,cs)
);
},
{
closed = 1;
nodes = (
(138,395,l),
(191,669,l),
(402,669,ls),
(483,669,o),
(530,628,o),
(530,551,cs),
(530,453,o),
(464,395,o),
(364,395,cs)
);
}
);
width = 596;
}
);
note = B;
unicode = 66;
},
{
glyphname = C;
kernLeft = C;
kernRight = C;
layers = (
{
hints = (
{
horizontal = 1;
place = (-13, 45);
place = (-13, 45);
type = Stem;
},
{
horizontal = 1;
place = (685, 44);
place = (685, 44);
type = Stem;
},
{
place = (46, 54);
place = (46, 54);
type = Stem;
}
);
layerId = m01;
shapes = (
{
closed = 1;
nodes = (
(480,-13,o),
(582,95,o),
(621,259,c),
(572,259,l),
(540,123,o),
(450,32,o),
(319,32,cs),
(164,32,o),
(100,139,o),
(100,286,cs),
(100,469,o),
(186,685,o),
(402,685,cs),
(510,685,o),
(578,624,o),
(593,519,c),
(643,519,l),
(625,661,o),
(530,729,o),
(405,729,cs),
(160,729,o),
(46,490,o),
(46,285,cs),
(46,107,o),
(141,-13,o),
(317,-13,cs)
);
}
);
width = 641;
}
);
note = C;
unicode = 67;
},
{
glyphname = D;
kernRight = Eth;
layers = (
{
hints = (
{
horizontal = 1;
place = (0, 45);
place = (0, 45);
type = Stem;
},
{
horizontal = 1;
place = (669, 46);
place = (669, 46);
type = Stem;
},
{
place = (572, 54);
place = (572, 54);
type = Stem;
}
);
layerId = m01;
shapes = (
{
closed = 1;
nodes = (
(11,0,l),
(264,0,ls),
(518,0,o),
(626,210,o),
(626,436,cs),
(626,604,o),
(553,715,o),
(370,715,cs),
(149,715,l)
);
},
{
closed = 1;
nodes = (
(70,45,l),
(191,669,l),
(367,669,ls),
(515,669,o),
(572,579,o),
(572,434,cs),
(572,222,o),
(479,45,o),
(261,45,cs)
);
}
);
width = 634;
}
);
note = D;
unicode = 68;
},
{
glyphname = E;
kernRight = E;
layers = (
{
hints = (
{
horizontal = 1;
place = (0, 47);
place = (0, 47);
type = Stem;
},
{
horizontal = 1;
place = (347, 44);
place = (347, 44);
type = Stem;
},
{
horizontal = 1;
place = (670, 45);
place = (670, 45);
type = Stem;
},
{
place = (11, 580);
place = (11, 580);
type = Stem;
}
);
layerId = m01;
shapes = (
{
closed = 1;
nodes = (
(11,0,l),
(477,0,l),
(486,47,l),
(71,47,l),
(129,347,l),
(498,347,l),
(507,391,l),
(138,391,l),
(192,670,l),
(583,670,l),
(591,715,l),
(149,715,l)
);
}
);
width = 559;
}
);
note = E;
unicode = 69;
},
{
glyphname = F;
kernRight = F;
layers = (
{
hints = (
{
horizontal = 1;
place = (0, 21);
target = up;
type = BottomGhost;
},
{
horizontal = 1;
place = (349, 44);
place = (349, 44);
type = Stem;
},
{
horizontal = 1;
place = (670, 45);
place = (670, 45);
type = Stem;
},
{
place = (11, 570);
place = (11, 570);
type = Stem;
}
);
layerId = m01;
shapes = (
{
closed = 1;
nodes = (
(11,0,l),
(62,0,l),
(130,349,l),
(467,349,l),
(476,393,l),
(138,393,l),
(191,670,l),
(573,670,l),
(581,715,l),
(149,715,l)
);
}
);
width = 518;
}
);
note = F;
unicode = 70;
},
{
glyphname = G;
kernLeft = C;
kernRight = G;
layers = (
{
hints = (
{
horizontal = 1;
place = (0, 21);
target = up;
type = BottomGhost;
},
{
horizontal = 1;
place = (315, 45);
place = (315, 45);
type = Stem;
},
{
horizontal = 1;
place = (685, 44);
place = (685, 44);
type = Stem;
},
{
place = (46, 54);
place = (46, 54);
type = Stem;
},
{
place = (604, 49);
place = (604, 49);
type = Stem;
},
{
horizontal = 1;
place = (-13, 45);
place = (-13, 45);
type = Stem;
}
);
layerId = m01;
shapes = (
{
closed = 1;
nodes = (
(545,0,l),
(584,0,l),
(653,360,l),
(367,360,l),
(359,315,l),
(595,315,l),
(587,274,ls),
(563,149,o),
(485,32,o),
(323,32,cs),
(175,32,o),
(100,118,o),
(100,288,cs),
(100,490,o),
(206,685,o),
(414,685,cs),
(518,685,o),
(598,622,o),
(604,513,c),
(653,513,l),
(640,658,o),
(546,729,o),
(416,729,cs),
(177,729,o),
(46,509,o),
(46,285,cs),
(46,90,o),
(154,-13,o),
(319,-13,cs),
(456,-13,o),
(524,66,o),
(557,113,c),
(560,113,l)
);
}
);
width = 687;
}
);
note = G;
unicode = 71;
},
{
glyphname = H;
layers = (
{
hints = (
{
horizontal = 1;
place = (0, 21);
target = up;
type = BottomGhost;
},
{
horizontal = 1;
place = (358, 44);
place = (358, 44);
type = Stem;
},
{
horizontal = 1;
place = (715, -20);
target = down;
type = TopGhost;
},
{
place = (11, 634);
place = (11, 634);
type = Stem;
}
);
layerId = m01;
shapes = (
{
closed = 1;
nodes = (
(11,0,l),
(62,0,l),
(131,358,l),
(524,358,l),
(455,0,l),
(507,0,l),
(645,715,l),
(593,715,l),
(533,402,l),
(140,402,l),
(200,715,l),
(149,715,l)
);
}
);
width = 618;
}
);
note = H;
unicode = 72;
},
{
glyphname = I;
layers = (
{
hints = (
{
horizontal = 1;
place = (0, 21);
target = up;
type = BottomGhost;
},
{
horizontal = 1;
place = (715, -20);
target = down;
type = TopGhost;
},
{
place = (15, 189);
place = (15, 189);
type = Stem;
}
);
layerId = m01;
shapes = (
{
closed = 1;
nodes = (
(15,0,l),
(66,0,l),
(204,715,l),
(153,715,l)
);
}
);
width = 181;
}
);
note = I;
unicode = 73;
},
{
glyphname = J;
kernLeft = J;
kernRight = J;
layers = (
{
hints = (
{
horizontal = 1;
place = (-13, 46);
place = (-13, 46);
type = Stem;
},
{
horizontal = 1;
place = (715, -20);
target = down;
type = TopGhost;
},
{
place = (0, 52);
place = (0, 52);
type = Stem;
}
);
layerId = m01;
shapes = (
{
closed = 1;
nodes = (
(294,-13,o),
(352,59,o),
(369,148,cs),
(479,715,l),
(427,715,l),
(319,158,ls),
(302,72,o),
(254,33,o),
(174,33,cs),
(65,33,o),
(38,99,o),
(57,201,cs),
(61,222,l),
(11,222,l),
(6,196,ls),
(-22,52,o),
(58,-13,o),
(172,-13,cs)
);
}
);
width = 449;
}
);
note = J;
unicode = 74;
},
{
glyphname = K;
kernRight = K;
layers = (
{
hints = (
{
horizontal = 1;
place = (0, 21);
target = up;
type = BottomGhost;
},
{
horizontal = 1;
place = (715, -20);
target = down;
type = TopGhost;
},
{
place = (11, 631);
place = (11, 631);
type = Stem;
}
);
layerId = m01;
shapes = (
{
closed = 1;
nodes = (
(480,0,l),
(536,0,l),
(306,423,l),
(642,715,l),
(573,715,l),
(123,317,l),
(200,715,l),
(149,715,l),
(11,0,l),
(62,0,l),
(110,252,l),
(268,389,l)
);
}
);
width = 583;
}
);
note = K;
unicode = 75;
},
{
glyphname = L;
kernRight = L;
layers = (
{
hints = (
{
horizontal = 1;
place = (0, 47);
place = (0, 47);
type = Stem;
},
{
horizontal = 1;
place = (715, -20);
target = down;
type = TopGhost;
},
{
place = (11, 426);
place = (11, 426);
type = Stem;
}
);
layerId = m01;
shapes = (
{
closed = 1;
nodes = (
(11,0,l),
(428,0,l),
(437,47,l),
(71,47,l),
(200,715,l),
(149,715,l)
);
}
);
width = 501;
}
);
note = L;
unicode = 76;
},
{
glyphname = M;
layers = (
{
hints = (
{
horizontal = 1;
place = (0, 21);
target = up;
type = BottomGhost;
},
{
horizontal = 1;
place = (648, 67);
place = (648, 67);
type = Stem;
},
{
place = (11, 774);
place = (11, 774);
type = Stem;
},
{
horizontal = 1;
place = (0, 71);
place = (0, 71);
type = Stem;
}
);
layerId = m01;
shapes = (
{
closed = 1;
nodes = (
(11,0,l),
(60,0,l),
(185,648,l),
(187,648,l),
(187,648,o),
(195,587,o),
(202,549,cs),
(307,0,l),
(358,0,l),
(665,549,ls),
(690,595,o),
(720,648,o),
(720,648,c),
(722,648,l),
(597,0,l),
(647,0,l),
(785,715,l),
(706,715,l),
(346,71,l),
(344,71,l),
(220,715,l),
(149,715,l)
);
}
);
width = 758;
}
);
note = M;
unicode = 77;
},
{
glyphname = N;
layers = (
{
hints = (
{
horizontal = 1;
place = (0, 21);
target = up;
type = BottomGhost;
},
{
horizontal = 1;
place = (715, -20);
target = down;
type = TopGhost;
},
{
place = (11, 643);
place = (11, 643);
type = Stem;
},
{
horizontal = 1;
place = (642, 73);
place = (642, 73);
type = Stem;
},
{
horizontal = 1;
place = (0, 75);
place = (0, 75);
type = Stem;
}
);
layerId = m01;
shapes = (
{
closed = 1;
nodes = (
(11,0,l),
(60,0,l),
(184,642,l),
(186,642,l),
(186,642,o),
(218,561,o),
(247,494,cs),
(461,0,l),
(516,0,l),
(654,715,l),
(604,715,l),
(480,75,l),
(478,75,l),
(478,75,o),
(455,142,o),
(425,210,cs),
(206,715,l),
(149,715,l)
);
}
);
width = 627;
}
);
note = N;
unicode = 78;
},
{
glyphname = O;
kernLeft = C;
kernRight = O;
layers = (
{
hints = (
{
horizontal = 1;
place = (-13, 46);
place = (-13, 46);
type = Stem;
},
{
horizontal = 1;
place = (683, 46);
place = (683, 46);
type = Stem;
},
{
place = (45, 54);
place = (45, 54);
type = Stem;
},
{
place = (627, 54);
place = (627, 54);
type = Stem;
}
);
layerId = m01;
shapes = (
{
closed = 1;
nodes = (
(563,-13,o),
(681,207,o),
(681,419,cs),
(681,611,o),
(558,729,o),
(396,729,cs),
(170,729,o),
(45,507,o),
(45,295,cs),
(45,102,o),
(167,-13,o),
(328,-13,cs)
);
},
{
closed = 1;
nodes = (
(99,491,o),
(199,683,o),
(394,683,cs),
(540,683,o),
(627,571,o),
(627,419,cs),
(627,226,o),
(526,33,o),
(330,33,cs),
(182,33,o),
(99,145,o),
(99,295,cs)
);
}
);
width = 689;
}
);
note = O;
unicode = 79;
},
{
glyphname = P;
kernRight = P;
layers = (
{
hints = (
{
horizontal = 1;
place = (0, 21);
target = up;
type = BottomGhost;
},
{
horizontal = 1;
place = (319, 45);
place = (319, 45);
type = Stem;
},
{
horizontal = 1;
place = (669, 46);
place = (669, 46);
type = Stem;
},
{
place = (530, 52);
place = (530, 52);
type = Stem;
}
);
layerId = m01;
shapes = (
{
closed = 1;
nodes = (
(11,0,l),
(62,0,l),
(124,319,l),
(319,319,ls),
(471,319,o),
(582,388,o),
(582,543,cs),
(582,596,o),
(567,634,o),
(534,667,cs),
(501,700,o),
(452,715,o),
(385,715,cs),
(149,715,l)
);
},
{
closed = 1;
nodes = (
(191,669,l),
(384,669,ls),
(486,669,o),
(530,619,o),
(530,539,cs),
(530,407,o),
(428,364,o),
(320,364,cs),
(132,364,l)
);
}
);
width = 556;
}
);
note = P;
unicode = 80;
},
{
glyphname = Q;
kernLeft = C;
kernRight = Q;
layers = (
{
hints = (
{
horizontal = 1;
place = (-13, 46);
place = (-13, 46);
type = Stem;
},
{
horizontal = 1;
place = (683, 46);
place = (683, 46);
type = Stem;
},
{
place = (45, 54);
place = (45, 54);
type = Stem;
},
{
place = (627, 54);
place = (627, 54);
type = Stem;
},
{
horizontal = 1;
place = (-4, 21);
target = up;
type = BottomGhost;
}
);
layerId = m01;
shapes = (
{
closed = 1;
nodes = (
(394,-13,o),
(452,5,o),
(499,35,c),
(581,-41,l),
(613,-4,l),
(539,66,l),
(633,150,o),
(681,288,o),
(681,419,cs),
(681,611,o),
(558,729,o),
(396,729,cs),
(170,729,o),
(45,507,o),
(45,295,cs),
(45,102,o),
(167,-13,o),
(328,-13,cs)
);
},
{
closed = 1;
nodes = (
(99,491,o),
(199,683,o),
(394,683,cs),
(540,683,o),
(627,571,o),
(627,419,cs),
(627,295,o),
(585,171,o),
(504,98,c),
(421,177,l),
(388,141,l),
(464,69,l),
(426,46,o),
(381,33,o),
(330,33,cs),
(182,33,o),
(99,145,o),
(99,295,cs)
);
}
);
width = 689;
}
);
note = Q;
unicode = 81;
},
{
glyphname = R;
kernRight = R;
layers = (
{
hints = (
{
horizontal = 1;
place = (0, 21);
target = up;
type = BottomGhost;
},
{
horizontal = 1;
place = (332, 45);
place = (332, 45);
type = Stem;
},
{
horizontal = 1;
place = (669, 46);
place = (669, 46);
type = Stem;
},
{
place = (480, 51);
place = (480, 51);
type = Stem;
},
{
place = (551, 51);
place = (551, 51);
type = Stem;
}
);
layerId = m01;
shapes = (
{
closed = 1;
nodes = (
(11,0,l),
(62,0,l),
(126,332,l),
(345,332,ls),
(456,332,o),
(496,301,o),
(485,181,cs),
(472,44,o),
(484,11,o),
(495,0,c),
(548,0,l),
(548,4,l),
(536,15,o),
(523,47,o),
(536,181,cs),
(545,272,o),
(522,326,o),
(461,350,c),
(461,353,l),
(548,381,o),
(602,444,o),
(602,545,cs),
(602,652,o),
(539,715,o),
(417,715,cs),
(149,715,l)
);
},
{
closed = 1;
nodes = (
(191,669,l),
(412,669,ls),
(509,669,o),
(551,618,o),
(551,542,cs),
(551,422,o),
(472,377,o),
(358,377,cs),
(135,377,l)
);
}
);
width = 607;
}
);
note = R;
unicode = 82;
},
{
glyphname = S;
kernLeft = Scaron;
kernRight = Scaron;
layers = (
{
hints = (
{
horizontal = 1;
place = (-13, 44);
place = (-13, 44);
type = Stem;
},
{
horizontal = 1;
place = (685, 44);
place = (685, 44);
type = Stem;
},
{
place = (5, 51);
place = (5, 51);
type = Stem;
},
{
place = (87, 51);
place = (87, 51);
type = Stem;
},
{
place = (464, 52);
place = (464, 52);
type = Stem;
},
{
place = (500, 50);
place = (500, 50);
type = Stem;
}
);
layerId = m01;
shapes = (
{
closed = 1;
nodes = (
(399,-13,o),
(516,63,o),
(516,207,cs),
(516,324,o),
(424,359,o),
(292,402,cs),
(186,436,o),
(138,466,o),
(138,533,cs),
(138,640,o),
(222,685,o),
(322,685,cs),
(426,685,o),
(497,632,o),
(500,530,c),
(550,530,l),
(547,667,o),
(453,729,o),
(324,729,cs),
(196,729,o),
(87,658,o),
(87,533,cs),
(87,436,o),
(150,397,o),
(279,355,cs),
(408,314,o),
(464,280,o),
(464,207,cs),
(464,80,o),
(366,31,o),
(264,31,cs),
(134,31,o),
(54,93,o),
(56,226,c),
(5,226,l),
(3,58,o),
(114,-13,o),
(262,-13,cs)
);
}
);
width = 559;
}
);
note = S;
unicode = 83;
},
{
glyphname = T;
kernLeft = T;
kernRight = T;
layers = (
{
hints = (
{
horizontal = 1;
place = (0, 21);
target = up;
type = BottomGhost;
},
{
horizontal = 1;
place = (669, 46);
place = (669, 46);
type = Stem;
},
{
place = (94, 526);
place = (94, 526);
type = Stem;
}
);
layerId = m01;
shapes = (
{
closed = 1;
nodes = (
(94,669,l),
(327,669,l),
(198,0,l),
(249,0,l),
(378,669,l),
(611,669,l),
(620,715,l),
(103,715,l)
);
}
);
width = 551;
}
);
note = T;
unicode = 84;
},
{
glyphname = U;
kernLeft = U;
kernRight = U;
layers = (
{
hints = (
{
horizontal = 1;
place = (-11, 45);
place = (-11, 45);
type = Stem;
},
{
horizontal = 1;
place = (715, -20);
target = down;
type = TopGhost;
},
{
place = (45, 51);
place = (45, 51);
type = Stem;
}
);
layerId = m01;
shapes = (
{
closed = 1;
nodes = (
(416,-11,o),
(509,60,o),
(537,209,cs),
(635,715,l),
(584,715,l),
(487,214,ls),
(463,85,o),
(393,34,o),
(276,34,cs),
(132,34,o),
(75,101,o),
(103,245,cs),
(194,715,l),
(143,715,l),
(52,245,ls),
(17,62,o),
(121,-11,o),
(271,-11,cs)
);
}
);
width = 602;
}
);
note = U;
unicode = 85;
},
{
glyphname = V;
kernLeft = V;
kernRight = V;
layers = (
{
hints = (
{
horizontal = 1;
place = (0, 21);
target = up;
type = BottomGhost;
},
{
horizontal = 1;
place = (715, -20);
target = down;
type = TopGhost;
},
{
place = (84, 563);
place = (84, 563);
type = Stem;
},
{
horizontal = 1;
place = (0, 56);
place = (0, 56);
type = Stem;
}
);
layerId = m01;
shapes = (
{
closed = 1;
nodes = (
(217,0,l),
(271,0,l),
(647,715,l),
(595,715,l),
(322,194,ls),
(291,135,o),
(254,56,o),
(254,56,c),
(252,56,l),
(252,56,o),
(241,135,o),
(230,196,cs),
(135,715,l),
(84,715,l)
);
}
);
width = 569;
}
);
note = V;
unicode = 86;
},
{
glyphname = W;
kernLeft = W;
kernRight = W;
layers = (
{
hints = (
{
horizontal = 1;
place = (0, 65);
place = (0, 65);
type = Stem;
},
{
horizontal = 1;
place = (715, -20);
target = down;
type = TopGhost;
},
{
place = (92, 813);
place = (92, 813);
type = Stem;
},
{
horizontal = 1;
place = (654, 61);
place = (654, 61);
type = Stem;
}
);
layerId = m01;
shapes = (
{
closed = 1;
nodes = (
(157,0,l),
(214,0,l),
(441,532,ls),
(463,585,o),
(487,654,o),
(487,654,c),
(489,654,l),
(489,654,o),
(493,583,o),
(498,532,cs),
(547,0,l),
(603,0,l),
(905,715,l),
(855,715,l),
(649,221,ls),
(624,162,o),
(588,65,o),
(588,65,c),
(586,65,l),
(586,65,o),
(580,161,o),
(575,215,cs),
(526,715,l),
(472,715,l),
(257,213,ls),
(234,160,o),
(196,65,o),
(196,65,c),
(194,65,l),
(194,65,o),
(189,166,o),
(184,221,cs),
(142,715,l),
(92,715,l)
);
}
);
width = 838;
}
);
note = W;
unicode = 87;
},
{
glyphname = X;
kernLeft = X;
kernRight = X;
layers = (
{
hints = (
{
horizontal = 1;
place = (0, 21);
target = up;
type = BottomGhost;
},
{
horizontal = 1;
place = (715, -20);
target = down;
type = TopGhost;
},
{
place = (-49, 647);
place = (-49, 647);
type = Stem;
}
);
layerId = m01;
shapes = (
{
closed = 1;
nodes = (
(-49,0,l),
(9,0,l),
(275,327,l),
(277,327,l),
(418,0,l),
(474,0,l),
(314,361,l),
(598,715,l),
(539,715,l),
(291,402,l),
(289,402,l),
(154,715,l),
(99,715,l),
(252,368,l)
);
}
);
width = 524;
}
);
note = X;
unicode = 88;
},
{
glyphname = Y;
kernLeft = Yacute;
kernRight = Yacute;
layers = (
{
hints = (
{
horizontal = 1;
place = (0, 21);
target = up;
type = BottomGhost;
},
{
horizontal = 1;
place = (715, -20);
target = down;
type = TopGhost;
},
{
place = (82, 545);
place = (82, 545);
type = Stem;
}
);
layerId = m01;
shapes = (
{
closed = 1;
nodes = (
(197,0,l),
(248,0,l),
(308,312,l),
(627,715,l),
(570,715,l),
(293,360,l),
(291,360,l),
(136,715,l),
(82,715,l),
(258,318,l)
);
}
);
width = 546;
}
);
note = Y;
unicode = 89;
},
{
glyphname = Z;
kernLeft = Zcaron;
kernRight = Zcaron;
layers = (
{
hints = (
{
horizontal = 1;
place = (0, 45);
place = (0, 45);
type = Stem;
},
{
horizontal = 1;
place = (671, 44);
place = (671, 44);
type = Stem;
},
{
place = (-22, 619);
place = (-22, 619);
type = Stem;
}
);
layerId = m01;
shapes = (
{
closed = 1;
nodes = (
(-22,0,l),
(474,0,l),
(482,45,l),
(48,45,l),
(48,48,l),
(588,668,l),
(597,715,l),
(143,715,l),
(135,671,l),
(526,671,l),
(526,668,l),
(-13,50,l)
);
}
);
width = 554;
}
);
note = Z;
unicode = 90;
},
{
glyphname = bracketleft;
kernRight = bracketleft;
layers = (
{
hints = (
{
horizontal = 1;
place = (-118, 45);
place = (-118, 45);
type = Stem;
},
{
horizontal = 1;
place = (710, 44);
place = (710, 44);
type = Stem;
},
{
place = (8, 331);
place = (8, 331);
type = Stem;
}
);
layerId = m01;
shapes = (
{
closed = 1;
nodes = (
(8,-118,l),
(170,-118,l),
(179,-73,l),
(66,-73,l),
(217,710,l),
(330,710,l),
(339,754,l),
(177,754,l)
);
}
);
width = 277;
}
);
note = bracketleft;
unicode = 91;
},
{
glyphname = backslash;
kernLeft = backslash;
kernRight = backslash;
layers = (
{
hints = (
{
horizontal = 1;
place = (0, 21);
target = up;
type = BottomGhost;
},
{
horizontal = 1;
place = (715, -20);
target = down;
type = TopGhost;
},
{
place = (89, 222);
place = (89, 222);
type = Stem;
}
);
layerId = m01;
shapes = (
{
closed = 1;
nodes = (
(263,0,l),
(311,0,l),
(137,715,l),
(89,715,l)
);
}
);
width = 362;
}
);
note = backslash;
unicode = 92;
},
{
glyphname = bracketright;
kernLeft = bracketright;
layers = (
{
hints = (
{
horizontal = 1;
place = (-118, 45);
place = (-118, 45);
type = Stem;
},
{
horizontal = 1;
place = (710, 44);
place = (710, 44);
type = Stem;
},
{
place = (-39, 332);
place = (-39, 332);
type = Stem;
}
);
layerId = m01;
shapes = (
{
closed = 1;
nodes = (
(293,754,l),
(130,754,l),
(121,710,l),
(235,710,l),
(84,-73,l),
(-30,-73,l),
(-39,-118,l),
(124,-118,l)
);
}
);
width = 277;
}
);
note = bracketright;
unicode = 93;
},
{
glyphname = asciicircum;
layers = (
{
hints = (
{
horizontal = 1;
place = (677, 38);
place = (677, 38);
type = Stem;
},
{
place = (48, 351);
place = (48, 351);
type = Stem;
}
);
layerId = m01;
shapes = (
{
closed = 1;
nodes = (
(102,458,l),
(261,677,l),
(263,677,l),
(349,458,l),
(399,458,l),
(295,715,l),
(239,715,l),
(48,458,l)
);
}
);
width = 375;
}
);
note = asciicircum;
unicode = 94;
},
{
glyphname = underscore;
layers = (
{
hints = (
{
horizontal = 1;
place = (-166, 40);
place = (-166, 40);
type = Stem;
},
{
place = (-84, 373);
place = (-84, 373);
type = Stem;
}
);
layerId = m01;
shapes = (
{
closed = 1;
nodes = (
(-84,-166,l),
(281,-166,l),
(289,-126,l),
(-76,-126,l)
);
}
);
width = 362;
}
);
note = underscore;
unicode = 95;
},
{
glyphname = grave;
layers = (
{
hints = (
{
horizontal = 1;
place = (588, 127);
place = (588, 127);
type = Stem;
},
{
place = (240, 111);
place = (240, 111);
type = Stem;
}
);
layerId = m01;
shapes = (
{
closed = 1;
nodes = (
(351,588,l),
(304,715,l),
(240,715,l),
(309,588,l)
);
}
);
width = 492;
}
);
note = grave;
unicode = 96;
},
{
glyphname = a;
kernLeft = a;
kernRight = a;
layers = (
{
hints = (
{
horizontal = 1;
place = (-8, 37);
place = (-8, 37);
type = Stem;
},
{
horizontal = 1;
place = (487, 41);
place = (487, 41);
type = Stem;
},
{
place = (-1, 50);
place = (-1, 50);
type = Stem;
},
{
place = (391, 46);
place = (391, 46);
type = Stem;
},
{
horizontal = 1;
place = (-13, 40);
place = (-13, 40);
type = Stem;
}
);
layerId = m01;
shapes = (
{
closed = 1;
nodes = (
(410,-8,o),
(419,-6,o),
(427,-2,c),
(433,32,l),
(430,32,l),
(393,23,o),
(372,35,o),
(380,77,cs),
(432,339,ls),
(460,480,o),
(373,528,o),
(265,528,cs),
(150,528,o),
(75,468,o),
(56,370,c),
(105,370,l),
(122,449,o),
(176,487,o),
(264,487,cs),
(334,487,o),
(391,461,o),
(391,390,cs),
(391,348,o),
(379,326,o),
(351,314,cs),
(313,298,o),
(246,303,o),
(159,292,cs),
(56,279,o),
(-1,221,o),
(-1,129,cs),
(-1,38,o),
(77,-13,o),
(164,-13,cs),
(258,-13,o),
(306,32,o),
(330,68,c),
(333,68,l),
(326,31,o),
(341,-8,o),
(395,-8,cs)
);
},
{
closed = 1;
nodes = (
(48,198,o),
(77,238,o),
(161,252,cs),
(233,264,o),
(313,258,o),
(373,282,c),
(353,181,ls),
(338,105,o),
(283,27,o),
(169,27,cs),
(99,27,o),
(50,66,o),
(49,129,cs)
);
}
);
width = 481;
}
);
note = a;
unicode = 97;
},
{
glyphname = b;
kernLeft = b;
kernRight = thorn;
layers = (
{
hints = (
{
horizontal = 1;
place = (-11, 40);
place = (-11, 40);
type = Stem;
},
{
horizontal = 1;
place = (487, 41);
place = (487, 41);
type = Stem;
},
{
horizontal = 1;
place = (715, -20);
target = down;
type = TopGhost;
},
{
place = (439, 50);
place = (439, 50);
type = Stem;
},
{
horizontal = 1;
place = (0, 21);
target = up;
type = BottomGhost;
}
);
layerId = m01;
shapes = (
{
closed = 1;
nodes = (
(-1,0,l),
(47,0,l),
(66,98,l),
(68,98,l),
(94,28,o),
(158,-11,o),
(233,-11,cs),
(408,-11,o),
(488,158,o),
(489,319,cs),
(490,445,o),
(419,528,o),
(308,528,cs),
(229,528,o),
(174,492,o),
(131,428,c),
(129,428,l),
(185,715,l),
(137,715,l)
);
},
{
closed = 1;
nodes = (
(87,326,o),
(159,487,o),
(299,487,cs),
(399,487,o),
(439,406,o),
(439,318,cs),
(439,188,o),
(380,29,o),
(236,29,cs),
(137,29,o),
(85,93,o),
(86,198,cs)
);
}
);
width = 508;
}
);
note = b;
unicode = 98;
},
{
glyphname = c;
kernLeft = c;
kernRight = c;
layers = (
{
hints = (
{
horizontal = 1;
place = (-13, 42);
place = (-13, 42);
type = Stem;
},
{
horizontal = 1;
place = (487, 41);
place = (487, 41);
type = Stem;
},
{
place = (22, 49);
place = (22, 49);
type = Stem;
},
{
place = (409, 46);
place = (409, 46);
type = Stem;
}
);
layerId = m01;
shapes = (
{
closed = 1;
nodes = (
(330,-13,o),
(407,64,o),
(435,175,c),
(388,175,l),
(366,90,o),
(305,30,o),
(222,29,cs),
(115,29,o),
(71,102,o),
(71,205,cs),
(71,336,o),
(133,487,o),
(280,487,cs),
(369,487,o),
(403,424,o),
(409,368,c),
(455,368,l),
(444,466,o),
(380,528,o),
(281,528,cs),
(105,528,o),
(22,358,o),
(22,204,cs),
(22,59,o),
(103,-13,o),
(221,-13,cs)
);
}
);
width = 461;
}
);
note = c;
unicode = 99;
},
{
glyphname = d;
kernLeft = d;
layers = (
{
hints = (
{
horizontal = 1;
place = (-13, 40);
place = (-13, 40);
type = Stem;
},
{
horizontal = 1;
place = (487, 41);
place = (487, 41);
type = Stem;
},
{
horizontal = 1;
place = (715, -20);
target = down;
type = TopGhost;
},
{
place = (20, 50);
place = (20, 50);
type = Stem;
},
{
horizontal = 1;
place = (0, 21);
target = up;
type = BottomGhost;
}
);
layerId = m01;
shapes = (
{
closed = 1;
nodes = (
(548,715,l),
(500,715,l),
(442,417,l),
(440,417,l),
(416,486,o),
(358,528,o),
(282,528,cs),
(117,528,o),
(21,359,o),
(20,198,cs),
(19,66,o),
(92,-13,o),
(203,-13,cs),
(282,-13,o),
(335,22,o),
(375,83,c),
(377,83,l),
(361,0,l),
(409,0,l)
);
},
{
closed = 1;
nodes = (
(422,191,o),
(349,27,o),
(209,27,cs),
(109,27,o),
(70,105,o),
(70,199,cs),
(70,334,o),
(143,487,o),
(278,487,cs),
(374,487,o),
(424,416,o),
(423,319,cs)
);
}
);
width = 508;
}
);
note = d;
unicode = 100;
},
{
glyphname = e;
kernLeft = c;
kernRight = e;
layers = (
{
hints = (
{
horizontal = 1;
place = (-13, 42);
place = (-13, 42);
type = Stem;
},
{
horizontal = 1;
place = (253, 40);
place = (253, 40);
type = Stem;
},
{
horizontal = 1;
place = (487, 41);
place = (487, 41);
type = Stem;
},
{
place = (22, 49);
place = (22, 49);
type = Stem;
},
{
place = (413, 47);
place = (413, 47);
type = Stem;
}
);
layerId = m01;
shapes = (
{
closed = 1;
nodes = (
(453,253,l),
(465,324,o),
(468,418,o),
(414,477,cs),
(383,511,o),
(343,528,o),
(283,528,cs),
(104,528,o),
(22,348,o),
(22,204,cs),
(22,66,o),
(98,-13,o),
(220,-13,cs),
(324,-13,o),
(402,46,o),
(436,154,c),
(388,154,l),
(363,81,o),
(306,29,o),
(223,29,cs),
(113,29,o),
(71,106,o),
(71,205,cs),
(71,221,o),
(72,237,o),
(74,253,c)
);
},
{
closed = 1;
nodes = (
(389,487,o),
(425,400,o),
(409,293,c),
(81,293,l),
(104,394,o),
(169,487,o),
(281,487,cs)
);
}
);
width = 477;
}
);
note = e;
unicode = 101;
},
{
glyphname = f;
kernLeft = f;
kernRight = f;
layers = (
{
hints = (
{
horizontal = 1;
place = (0, 21);
target = up;
type = BottomGhost;
},
{
horizontal = 1;
place = (477, 40);
place = (477, 40);
type = Stem;
},
{
horizontal = 1;
place = (677, 42);
place = (677, 42);
type = Stem;
},
{
place = (38, 278);
place = (38, 278);
type = Stem;
}
);
layerId = m01;
shapes = (
{
closed = 1;
nodes = (
(54,477,l),
(130,477,l),
(38,0,l),
(86,0,l),
(178,477,l),
(272,477,l),
(280,517,l),
(186,517,l),
(206,619,ls),
(213,655,o),
(229,677,o),
(274,677,cs),
(308,677,l),
(316,719,l),
(275,719,ls),
(210,719,o),
(172,691,o),
(159,626,cs),
(138,517,l),
(62,517,l)
);
}
);
width = 248;
}
);
note = f;
unicode = 102;
},
{
glyphname = g;
kernLeft = g;
kernRight = g;
layers = (
{
hints = (
{
horizontal = 1;
place = (-187, 41);
place = (-187, 41);
type = Stem;
},
{
horizontal = 1;
place = (5, 41);
place = (5, 41);
type = Stem;
},
{
horizontal = 1;
place = (517, -20);
target = down;
type = TopGhost;
},
{
place = (9, 49);
place = (9, 49);
type = Stem;
},
{
horizontal = 1;
place = (487, 41);
place = (487, 41);
type = Stem;
},
{
place = (21, 50);
place = (21, 50);
type = Stem;
}
);
layerId = m01;
shapes = (
{
closed = 1;
nodes = (
(259,-187,o),
(310,-169,o),
(346,-133,cs),
(375,-104,o),
(397,-65,o),
(410,3,cs),
(510,517,l),
(462,517,l),
(443,417,l),
(441,417,l),
(412,490,o),
(354,528,o),
(281,528,cs),
(114,528,o),
(22,359,o),
(21,212,cs),
(20,84,o),
(90,5,o),
(207,5,cs),
(277,5,o),
(332,32,o),
(377,89,c),
(379,89,l),
(362,3,ls),
(345,-82,o),
(301,-146,o),
(196,-146,cs),
(134,-146,o),
(65,-121,o),
(58,-57,c),
(9,-57,l),
(21,-155,o),
(112,-187,o),
(195,-187,cs)
);
},
{
closed = 1;
nodes = (
(71,339,o),
(141,487,o),
(277,487,cs),
(381,487,o),
(422,405,o),
(422,316,cs),
(422,188,o),
(352,45,o),
(213,46,cs),
(115,46,o),
(71,114,o),
(71,212,cs)
);
}
);
width = 508;
}
);
note = g;
unicode = 103;
},
{
glyphname = h;
kernLeft = b;
kernRight = h;
layers = (
{
hints = (
{
horizontal = 1;
place = (0, 21);
target = up;
type = BottomGhost;
},
{
horizontal = 1;
place = (486, 41);
place = (486, 41);
type = Stem;
},
{
horizontal = 1;
place = (715, -20);
target = down;
type = TopGhost;
},
{
place = (402, 48);
place = (402, 48);
type = Stem;
}
);
layerId = m01;
shapes = (
{
closed = 1;
nodes = (
(185,715,l),
(137,715,l),
(-1,0,l),
(47,0,l),
(107,312,ls),
(126,409,o),
(210,486,o),
(310,486,cs),
(382,486,o),
(414,443,o),
(398,363,cs),
(328,0,l),
(376,0,l),
(446,364,ls),
(467,471,o),
(412,527,o),
(320,527,cs),
(231,527,o),
(176,483,o),
(131,426,c),
(129,426,l)
);
}
);
width = 471;
}
);
note = h;
unicode = 104;
},
{
glyphname = i;
kernLeft = b;
layers = (
{
hints = (
{
horizontal = 1;
place = (0, 21);
target = up;
type = BottomGhost;
},
{
horizontal = 1;
place = (517, -20);
target = down;
type = TopGhost;
},
{
horizontal = 1;
place = (636, 79);
place = (636, 79);
type = Stem;
},
{
place = (2, 186);
place = (2, 186);
type = Stem;
}
);
layerId = m01;
shapes = (
{
closed = 1;
nodes = (
(2,0,l),
(50,0,l),
(150,517,l),
(102,517,l)
);
},
{
closed = 1;
nodes = (
(125,636,l),
(173,636,l),
(188,715,l),
(140,715,l)
);
}
);
width = 153;
}
);
note = i;
unicode = 105;
},
{
glyphname = j;
kernLeft = j;
kernRight = j;
layers = (
{
hints = (
{
horizontal = 1;
place = (-166, 42);
place = (-166, 42);
type = Stem;
},
{
horizontal = 1;
place = (517, -20);
target = down;
type = TopGhost;
},
{
horizontal = 1;
place = (636, 79);
place = (636, 79);
type = Stem;
},
{
place = (-97, 285);
place = (-97, 285);
type = Stem;
}
);
layerId = m01;
shapes = (
{
closed = 1;
nodes = (
(-97,-166,l),
(-74,-166,ls),
(-17,-166,o),
(22,-142,o),
(36,-71,cs),
(150,517,l),
(102,517,l),
(-12,-69,ls),
(-20,-108,o),
(-41,-124,o),
(-74,-124,cs),
(-89,-124,l)
);
},
{
closed = 1;
nodes = (
(125,636,l),
(173,636,l),
(188,715,l),
(140,715,l)
);
}
);
width = 153;
}
);
note = j;
unicode = 106;
},
{
glyphname = k;
kernLeft = b;
kernRight = k;
layers = (
{
hints = (
{
horizontal = 1;
place = (0, 21);
target = up;
type = BottomGhost;
},
{
horizontal = 1;
place = (517, -20);
target = down;
type = TopGhost;
},
{
horizontal = 1;
place = (715, -20);
target = down;
type = TopGhost;
},
{
place = (-1, 463);
place = (-1, 463);
type = Stem;
}
);
layerId = m01;
shapes = (
{
closed = 1;
nodes = (
(462,517,l),
(398,517,l),
(94,245,l),
(185,715,l),
(137,715,l),
(-1,0,l),
(47,0,l),
(82,183,l),
(213,298,l),
(349,0,l),
(402,0,l),
(251,332,l)
);
}
);
width = 445;
}
);
note = k;
unicode = 107;
},
{
glyphname = l;
kernLeft = b;
layers = (
{
hints = (
{
horizontal = 1;
place = (0, 21);
target = up;
type = BottomGhost;
},
{
horizontal = 1;
place = (715, -20);
target = down;
type = TopGhost;
},
{
place = (2, 186);
place = (2, 186);
type = Stem;
}
);
layerId = m01;
shapes = (
{
closed = 1;
nodes = (
(2,0,l),
(50,0,l),
(188,715,l),
(140,715,l)
);
}
);
width = 150;
}
);
note = l;
unicode = 108;
},
{
glyphname = m;
kernLeft = m;
kernRight = h;
layers = (
{
hints = (
{
horizontal = 1;
place = (0, 21);
target = up;
type = BottomGhost;
},
{
horizontal = 1;
place = (517, -20);
target = down;
type = TopGhost;
},
{
place = (687, 48);
place = (687, 48);
type = Stem;
},
{
horizontal = 1;
place = (486, 41);
place = (486, 41);
type = Stem;
},
{
place = (380, 43);
place = (380, 43);
type = Stem;
}
);
layerId = m01;
shapes = (
{
closed = 1;
nodes = (
(147,517,l),
(99,517,l),
(-1,0,l),
(47,0,l),
(108,317,ls),
(127,414,o),
(207,486,o),
(297,486,cs),
(359,486,o),
(392,443,o),
(376,363,cs),
(306,0,l),
(354,0,l),
(415,317,ls),
(434,416,o),
(514,486,o),
(604,486,cs),
(666,486,o),
(699,443,o),
(683,363,cs),
(613,0,l),
(661,0,l),
(731,364,ls),
(752,471,o),
(696,527,o),
(614,527,cs),
(538,527,o),
(474,487,o),
(425,421,c),
(423,421,l),
(417,491,o),
(373,527,o),
(307,527,cs),
(228,527,o),
(174,484,o),
(132,431,c),
(130,431,l)
);
}
);
width = 756;
}
);
note = m;
unicode = 109;
},
{
glyphname = n;
kernLeft = m;
kernRight = h;
layers = (
{
hints = (
{
horizontal = 1;
place = (0, 21);
target = up;
type = BottomGhost;
},
{
horizontal = 1;
place = (517, -20);
target = down;
type = TopGhost;
},
{
place = (402, 48);
place = (402, 48);
type = Stem;
},
{
horizontal = 1;
place = (486, 41);
place = (486, 41);
type = Stem;
}
);
layerId = m01;
shapes = (
{
closed = 1;
nodes = (
(147,517,l),
(99,517,l),
(-1,0,l),
(47,0,l),
(107,312,ls),
(126,409,o),
(210,486,o),
(310,486,cs),
(382,486,o),
(414,443,o),
(398,363,cs),
(328,0,l),
(376,0,l),
(446,364,ls),
(467,471,o),
(412,527,o),
(320,527,cs),
(231,527,o),
(176,483,o),
(131,426,c),
(129,426,l)
);
}
);
width = 471;
}
);
note = n;
unicode = 110;
},
{
glyphname = o;
kernLeft = c;
kernRight = o;
layers = (
{
hints = (
{
horizontal = 1;
place = (-13, 41);
place = (-13, 41);
type = Stem;
},
{
horizontal = 1;
place = (488, 40);
place = (488, 40);
type = Stem;
},
{
place = (22, 49);
place = (22, 49);
type = Stem;
},
{
place = (429, 49);
place = (429, 49);
type = Stem;
}
);
layerId = m01;
shapes = (
{
closed = 1;
nodes = (
(398,-13,o),
(478,163,o),
(478,308,cs),
(478,442,o),
(395,528,o),
(278,528,cs),
(100,528,o),
(22,350,o),
(22,203,cs),
(22,69,o),
(107,-13,o),
(224,-13,cs)
);
},
{
closed = 1;
nodes = (
(71,338,o),
(136,488,o),
(276,488,cs),
(384,488,o),
(429,400,o),
(429,304,cs),
(429,176,o),
(364,28,o),
(225,28,cs),
(120,28,o),
(71,108,o),
(71,208,cs)
);
}
);
width = 500;
}
);
note = o;
unicode = 111;
},
{
glyphname = p;
kernLeft = p;
kernRight = thorn;
layers = (
{
hints = (
{
horizontal = 1;
place = (-166, 21);
target = up;
type = BottomGhost;
},
{
horizontal = 1;
place = (-11, 40);
place = (-11, 40);
type = Stem;
},
{
horizontal = 1;
place = (487, 41);
place = (487, 41);
type = Stem;
},
{
place = (439, 50);
place = (439, 50);
type = Stem;
},
{
horizontal = 1;
place = (517, -20);
target = down;
type = TopGhost;
}
);
layerId = m01;
shapes = (
{
closed = 1;
nodes = (
(-34,-166,l),
(14,-166,l),
(65,98,l),
(67,98,l),
(92,29,o),
(158,-11,o),
(233,-11,cs),
(408,-11,o),
(488,158,o),
(489,319,cs),
(490,445,o),
(419,528,o),
(308,528,cs),
(229,528,o),
(174,492,o),
(131,428,c),
(129,428,l),
(147,517,l),
(99,517,l)
);
},
{
closed = 1;
nodes = (
(87,326,o),
(159,487,o),
(299,487,cs),
(399,487,o),
(439,406,o),
(439,318,cs),
(439,188,o),
(380,29,o),
(236,29,cs),
(137,29,o),
(85,93,o),
(86,198,cs)
);
}
);
width = 508;
}
);
note = p;
unicode = 112;
},
{
glyphname = q;
kernLeft = d;
kernRight = q;
layers = (
{
hints = (
{
horizontal = 1;
place = (-166, 21);
target = up;
type = BottomGhost;
},
{
horizontal = 1;
place = (-13, 40);
place = (-13, 40);
type = Stem;
},
{
horizontal = 1;
place = (517, -20);
target = down;
type = TopGhost;
},
{
place = (20, 50);
place = (20, 50);
type = Stem;
},
{
horizontal = 1;
place = (487, 41);
place = (487, 41);
type = Stem;
}
);
layerId = m01;
shapes = (
{
closed = 1;
nodes = (
(510,517,l),
(462,517,l),
(442,417,l),
(440,417,l),
(416,486,o),
(358,528,o),
(282,528,cs),
(117,528,o),
(21,359,o),
(20,198,cs),
(19,66,o),
(92,-13,o),
(203,-13,cs),
(282,-13,o),
(335,22,o),
(375,83,c),
(377,83,l),
(330,-166,l),
(377,-166,l)
);
},
{
closed = 1;
nodes = (
(422,191,o),
(349,27,o),
(209,27,cs),
(109,27,o),
(70,105,o),
(70,199,cs),
(70,334,o),
(143,487,o),
(278,487,cs),
(374,487,o),
(424,416,o),
(423,319,cs)
);
}
);
width = 510;
}
);
note = q;
unicode = 113;
},
{
glyphname = r;
kernLeft = m;
kernRight = r;
layers = (
{
hints = (
{
horizontal = 1;
place = (0, 21);
target = up;
type = BottomGhost;
},
{
horizontal = 1;
place = (517, -20);
target = down;
type = TopGhost;
},
{
place = (-1, 317);
place = (-1, 317);
type = Stem;
},
{
horizontal = 1;
place = (472, 48);
place = (472, 48);
type = Stem;
}
);
layerId = m01;
shapes = (
{
closed = 1;
nodes = (
(147,517,l),
(99,517,l),
(-1,0,l),
(47,0,l),
(101,278,ls),
(121,382,o),
(175,435,o),
(232,460,cs),
(255,470,o),
(278,473,o),
(307,472,c),
(316,520,l),
(274,520,o),
(252,516,o),
(216,498,cs),
(183,481,o),
(151,450,o),
(129,415,c),
(127,415,l)
);
}
);
width = 280;
}
);
note = r;
unicode = 114;
},
{
glyphname = s;
kernLeft = scaron;
kernRight = scaron;
layers = (
{
hints = (
{
horizontal = 1;
place = (-13, 42);
place = (-13, 42);
type = Stem;
},
{
horizontal = 1;
place = (486, 42);
place = (486, 42);
type = Stem;
},
{
place = (-3, 48);
place = (-3, 48);
type = Stem;
},
{
place = (56, 47);
place = (56, 47);
type = Stem;
},
{
place = (329, 48);
place = (329, 48);
type = Stem;
},
{
place = (355, 46);
place = (355, 46);
type = Stem;
}
);
layerId = m01;
shapes = (
{
closed = 1;
nodes = (
(300,-13,o),
(377,50,o),
(377,143,cs),
(377,226,o),
(317,256,o),
(232,288,cs),
(135,324,o),
(103,345,o),
(103,393,cs),
(103,463,o),
(163,486,o),
(229,486,cs),
(300,486,o),
(350,450,o),
(355,381,c),
(401,381,l),
(396,473,o),
(332,528,o),
(231,528,cs),
(137,528,o),
(56,482,o),
(56,392,cs),
(56,317,o),
(103,286,o),
(203,249,cs),
(294,215,o),
(329,192,o),
(329,142,cs),
(329,69,o),
(275,29,o),
(194,29,cs),
(100,29,o),
(50,69,o),
(45,156,c),
(-3,156,l),
(-2,36,o),
(86,-13,o),
(192,-13,cs)
);
}
);
width = 423;
}
);
note = s;
unicode = 115;
},
{
glyphname = t;
kernLeft = t;
kernRight = t;
layers = (
{
hints = (
{
horizontal = 1;
place = (-4, 41);
place = (-4, 41);
type = Stem;
},
{
horizontal = 1;
place = (477, 40);
place = (477, 40);
type = Stem;
},
{
place = (58, 51);
place = (58, 51);
type = Stem;
}
);
layerId = m01;
shapes = (
{
closed = 1;
nodes = (
(56,477,l),
(134,477,l),
(61,99,ls),
(48,34,o),
(73,-4,o),
(140,-4,cs),
(156,-4,o),
(174,-1,o),
(184,3,c),
(192,44,l),
(189,44,l),
(179,40,o),
(161,37,o),
(146,37,cs),
(112,37,o),
(102,55,o),
(109,93,cs),
(183,477,l),
(275,477,l),
(283,517,l),
(191,517,l),
(221,673,l),
(172,673,l),
(142,517,l),
(64,517,l)
);
}
);
width = 262;
}
);
note = t;
unicode = 116;
},
{
glyphname = u;
kernLeft = u;
kernRight = u;
layers = (
{
hints = (
{
horizontal = 1;
place = (0, 21);
target = up;
type = BottomGhost;
},
{
horizontal = 1;
place = (517, -20);
target = down;
type = TopGhost;
},
{
place = (21, 48);
place = (21, 48);
type = Stem;
},
{
horizontal = 1;
place = (-12, 41);
place = (-12, 41);
type = Stem;
}
);
layerId = m01;
shapes = (
{
closed = 1;
nodes = (
(318,0,l),
(366,0,l),
(466,517,l),
(418,517,l),
(360,216,ls),
(340,111,o),
(259,29,o),
(159,29,cs),
(84,29,o),
(58,77,o),
(73,156,cs),
(143,517,l),
(95,517,l),
(25,155,ls),
(4,47,o),
(57,-12,o),
(149,-12,cs),
(238,-12,o),
(291,35,o),
(333,87,c),
(335,87,l)
);
}
);
width = 465;
}
);
note = u;
unicode = 117;
},
{
glyphname = v;
kernLeft = v;
kernRight = v;
layers = (
{
hints = (
{
horizontal = 1;
place = (0, 43);
place = (0, 43);
type = Stem;
},
{
horizontal = 1;
place = (517, -20);
target = down;
type = TopGhost;
},
{
place = (57, 420);
place = (57, 420);
type = Stem;
}
);
layerId = m01;
shapes = (
{
closed = 1;
nodes = (
(145,0,l),
(205,0,l),
(477,517,l),
(427,517,l),
(253,184,ls),
(224,129,o),
(182,43,o),
(182,43,c),
(180,43,l),
(180,43,o),
(170,132,o),
(160,189,cs),
(107,517,l),
(57,517,l)
);
}
);
width = 438;
}
);
note = v;
unicode = 118;
},
{
glyphname = w;
kernLeft = w;
kernRight = w;
layers = (
{
hints = (
{
horizontal = 1;
place = (0, 45);
place = (0, 45);
type = Stem;
},
{
horizontal = 1;
place = (517, -20);
target = down;
type = TopGhost;
},
{
place = (61, 646);
place = (61, 646);
type = Stem;
},
{
horizontal = 1;
place = (465, 52);
place = (465, 52);
type = Stem;
}
);
layerId = m01;
shapes = (
{
closed = 1;
nodes = (
(114,0,l),
(174,0,l),
(324,342,ls),
(347,395,o),
(373,465,o),
(373,465,c),
(375,465,l),
(375,465,o),
(376,395,o),
(381,342,cs),
(413,0,l),
(471,0,l),
(707,517,l),
(658,517,l),
(517,199,ls),
(492,143,o),
(450,45,o),
(450,45,c),
(448,45,l),
(448,45,o),
(446,139,o),
(441,190,cs),
(410,517,l),
(356,517,l),
(213,190,ls),
(190,138,o),
(151,45,o),
(151,45,c),
(149,45,l),
(149,45,o),
(148,140,o),
(142,197,cs),
(111,517,l),
(61,517,l)
);
}
);
width = 674;
}
);
note = w;
unicode = 119;
},
{
glyphname = x;
kernLeft = x;
kernRight = x;
layers = (
{
hints = (
{
horizontal = 1;
place = (0, 21);
target = up;
type = BottomGhost;
},
{
horizontal = 1;
place = (517, -20);
target = down;
type = TopGhost;
},
{
place = (-36, 483);
place = (-36, 483);
type = Stem;
}
);
layerId = m01;
shapes = (
{
closed = 1;
nodes = (
(-36,0,l),
(19,0,l),
(213,242,l),
(215,242,l),
(328,0,l),
(384,0,l),
(250,272,l),
(447,517,l),
(391,517,l),
(227,309,l),
(225,309,l),
(131,517,l),
(75,517,l),
(191,279,l)
);
}
);
width = 439;
}
);
note = x;
unicode = 120;
},
{
glyphname = y;
kernLeft = yacute;
kernRight = yacute;
layers = (
{
hints = (
{
horizontal = 1;
place = (-171, 45);
place = (-171, 45);
type = Stem;
},
{
horizontal = 1;
place = (517, -20);
target = down;
type = TopGhost;
},
{
place = (-4, 485);
place = (-4, 485);
type = Stem;
},
{
horizontal = 1;
place = (-165, 21);
target = up;
type = BottomGhost;
}
);
layerId = m01;
shapes = (
{
closed = 1;
nodes = (
(101,-171,o),
(143,-145,o),
(179,-75,cs),
(481,517,l),
(430,517,l),
(259,175,ls),
(232,121,o),
(197,45,o),
(197,45,c),
(195,45,l),
(195,45,o),
(184,121,o),
(172,177,cs),
(101,517,l),
(52,517,l),
(165,-7,l),
(140,-55,ls),
(116,-103,o),
(86,-126,o),
(46,-126,cs),
(22,-126,o),
(15,-123,o),
(7,-121,c),
(5,-121,l),
(-4,-165,l),
(6,-168,o),
(19,-171,o),
(43,-171,cs)
);
}
);
width = 448;
}
);
note = y;
unicode = 121;
},
{
glyphname = z;
kernLeft = zcaron;
kernRight = zcaron;
layers = (
{
hints = (
{
horizontal = 1;
place = (0, 42);
place = (0, 42);
type = Stem;
},
{
horizontal = 1;
place = (475, 42);
place = (475, 42);
type = Stem;
},
{
place = (-26, 457);
place = (-26, 457);
type = Stem;
}
);
layerId = m01;
shapes = (
{
closed = 1;
nodes = (
(-26,0,l),
(339,0,l),
(347,42,l),
(41,42,l),
(41,45,l),
(423,477,l),
(431,517,l),
(95,517,l),
(87,475,l),
(360,475,l),
(360,472,l),
(-18,44,l)
);
}
);
width = 413;
}
);
note = z;
unicode = 122;
},
{
glyphname = braceleft;
kernRight = bracketleft;
layers = (
{
hints = (
{
horizontal = 1;
place = (-118, 45);
place = (-118, 45);
type = Stem;
},
{
horizontal = 1;
place = (710, 44);
place = (710, 44);
type = Stem;
},
{
place = (89, 49);
place = (89, 49);
type = Stem;
}
);
layerId = m01;
shapes = (
{
closed = 1;
nodes = (
(155,-118,l),
(164,-73,l),
(143,-73,ls),
(99,-73,o),
(80,-55,o),
(90,-5,cs),
(134,223,ls),
(145,277,o),
(130,304,o),
(98,319,c),
(98,321,l),
(138,332,o),
(160,357,o),
(169,403,cs),
(213,631,ls),
(225,694,o),
(246,710,o),
(296,710,cs),
(315,710,l),
(324,754,l),
(296,754,ls),
(213,754,o),
(182,722,o),
(165,637,cs),
(122,415,ls),
(112,366,o),
(93,346,o),
(41,345,c),
(32,300,l),
(85,299,o),
(95,275,o),
(86,228,cs),
(43,6,ls),
(29,-67,o),
(52,-118,o),
(139,-118,cs)
);
}
);
width = 277;
}
);
note = braceleft;
unicode = 123;
},
{
glyphname = bar;
layers = (
{
hints = (
{
horizontal = 1;
place = (-118, 872);
place = (-118, 872);
type = Stem;
},
{
place = (98, 46);
place = (98, 46);
type = Stem;
}
);
layerId = m01;
shapes = (
{
closed = 1;
nodes = (
(98,-118,l),
(144,-118,l),
(144,754,l),
(98,754,l)
);
}
);
width = 198;
}
);
note = bar;
unicode = 124;
},
{
glyphname = braceright;
kernLeft = bracketright;
layers = (
{
hints = (
{
horizontal = 1;
place = (-118, 45);
place = (-118, 45);
type = Stem;
},
{
horizontal = 1;
place = (710, 44);
place = (710, 44);
type = Stem;
},
{
place = (162, 49);
place = (162, 49);
type = Stem;
}
);
layerId = m01;
shapes = (
{
closed = 1;
nodes = (
(145,754,l),
(136,710,l),
(157,710,ls),
(201,710,o),
(220,691,o),
(210,641,cs),
(166,413,ls),
(155,359,o),
(170,332,o),
(202,317,c),
(202,315,l),
(162,304,o),
(140,279,o),
(131,233,cs),
(87,5,ls),
(75,-58,o),
(54,-73,o),
(4,-73,cs),
(-15,-73,l),
(-24,-118,l),
(4,-118,ls),
(87,-118,o),
(118,-86,o),
(135,-1,cs),
(178,221,ls),
(188,270,o),
(207,290,o),
(259,291,c),
(268,336,l),
(215,337,o),
(205,361,o),
(214,408,cs),
(257,630,ls),
(271,703,o),
(248,754,o),
(161,754,cs)
);
}
);
width = 277;
}
);
note = braceright;
unicode = 125;
},
{
glyphname = asciitilde;
layers = (
{
hints = (
{
horizontal = 1;
place = (287, 45);
place = (287, 45);
type = Stem;
},
{
place = (46, 309);
place = (46, 309);
type = Stem;
},
{
horizontal = 1;
place = (341, 45);
place = (341, 45);
type = Stem;
}
);
layerId = m01;
shapes = (
{
closed = 1;
nodes = (
(309,287,o),
(345,320,o),
(355,384,c),
(310,384,l),
(305,350,o),
(285,332,o),
(264,332,cs),
(225,332,o),
(195,386,o),
(138,386,cs),
(93,386,o),
(58,354,o),
(46,288,c),
(91,288,l),
(97,322,o),
(115,341,o),
(136,341,cs),
(170,341,o),
(210,287,o),
(264,287,cs)
);
}
);
width = 373;
}
);
note = asciitilde;
unicode = 126;
},
{
glyphname = Adieresis;
kernLeft = A;
kernRight = A;
layers = (
{
hints = (
{
horizontal = 1;
place = (0, 21);
target = up;
type = BottomGhost;
},
{
horizontal = 1;
place = (230, 43);
place = (230, 43);
type = Stem;
},
{
horizontal = 1;
place = (664, 51);
place = (664, 51);
type = Stem;
},
{
horizontal = 1;
place = (755, 80);
place = (755, 80);
type = Stem;
},
{
place = (-45, 589);
place = (-45, 589);
type = Stem;
}
);
layerId = m01;
shapes = (
{
closed = 1;
nodes = (
(492,0,l),
(544,0,l),
(399,715,l),
(340,715,l),
(-45,0,l),
(7,0,l),
(131,230,l),
(446,230,l)
);
},
{
closed = 1;
nodes = (
(306,556,ls),
(332,604,o),
(360,664,o),
(360,664,c),
(362,664,l),
(362,664,o),
(373,598,o),
(381,557,cs),
(437,273,l),
(154,273,l)
);
},
{
closed = 1;
nodes = (
(270,755,l),
(319,755,l),
(335,835,l),
(286,835,l)
);
},
{
closed = 1;
nodes = (
(419,755,l),
(468,755,l),
(484,835,l),
(435,835,l)
);
}
);
width = 602;
}
);
note = Adieresis;
unicode = 196;
},
{
glyphname = Aring;
kernLeft = A;
kernRight = A;
layers = (
{
hints = (
{
horizontal = 1;
place = (0, 21);
target = up;
type = BottomGhost;
},
{
horizontal = 1;
place = (230, 43);
place = (230, 43);
type = Stem;
},
{
horizontal = 1;
place = (664, 51);
place = (664, 51);
type = Stem;
},
{
horizontal = 1;
place = (879, 33);
place = (879, 33);
type = Stem;
},
{
place = (292, 38);
place = (292, 38);
type = Stem;
},
{
place = (428, 38);
place = (428, 38);
type = Stem;
},
{
horizontal = 1;
place = (742, 33);
place = (742, 33);
type = Stem;
}
);
layerId = m01;
shapes = (
{
closed = 1;
nodes = (
(492,0,l),
(544,0,l),
(399,715,l),
(340,715,l),
(-45,0,l),
(7,0,l),
(131,230,l),
(446,230,l)
);
},
{
closed = 1;
nodes = (
(306,556,ls),
(332,604,o),
(360,664,o),
(360,664,c),
(362,664,l),
(362,664,o),
(373,598,o),
(381,557,cs),
(437,273,l),
(154,273,l)
);
},
{
closed = 1;
nodes = (
(427,742,o),
(466,780,o),
(466,827,cs),
(466,874,o),
(427,912,o),
(379,912,cs),
(331,912,o),
(292,874,o),
(292,827,cs),
(292,780,o),
(331,742,o),
(379,742,cs)
);
},
{
closed = 1;
nodes = (
(350,775,o),
(330,798,o),
(330,827,cs),
(330,856,o),
(350,879,o),
(379,879,cs),
(408,879,o),
(428,856,o),
(428,827,cs),
(428,798,o),
(408,775,o),
(379,775,cs)
);
}
);
width = 602;
}
);
note = Aring;
unicode = 197;
},
{
glyphname = Ccedilla;
kernLeft = C;
kernRight = C;
layers = (
{
hints = (
{
horizontal = 1;
place = (-184, 34);
place = (-184, 34);
type = Stem;
},
{
horizontal = 1;
place = (-84, 31);
place = (-84, 31);
type = Stem;
},
{
horizontal = 1;
place = (-11, 43);
place = (-11, 43);
type = Stem;
},
{
horizontal = 1;
place = (685, 44);
place = (685, 44);
type = Stem;
},
{
place = (46, 54);
place = (46, 54);
type = Stem;
},
{
place = (313, 47);
place = (313, 47);
type = Stem;
},
{
horizontal = 1;
place = (-184, 21);
target = up;
type = BottomGhost;
}
);
layerId = m01;
shapes = (
{
closed = 1;
nodes = (
(310,-184,o),
(360,-161,o),
(360,-108,cs),
(360,-72,o),
(331,-50,o),
(285,-53,c),
(285,-51,l),
(326,-13,l),
(484,-9,o),
(583,98,o),
(621,259,c),
(572,259,l),
(540,123,o),
(450,32,o),
(319,32,cs),
(164,32,o),
(100,139,o),
(100,286,cs),
(100,469,o),
(186,685,o),
(402,685,cs),
(510,685,o),
(578,624,o),
(593,519,c),
(643,519,l),
(625,661,o),
(530,729,o),
(405,729,cs),
(160,729,o),
(46,490,o),
(46,285,cs),
(46,119,o),
(128,3,o),
(282,-11,c),
(223,-69,l),
(234,-91,l),
(244,-88,o),
(257,-84,o),
(273,-84,cs),
(296,-84,o),
(313,-92,o),
(313,-111,cs),
(313,-137,o),
(289,-150,o),
(253,-150,cs),
(228,-150,o),
(207,-144,o),
(187,-136,c),
(173,-162,l),
(195,-175,o),
(221,-184,o),
(261,-184,cs)
);
}
);
width = 641;
}
);
note = Ccedilla;
unicode = 199;
},
{
glyphname = Eacute;
kernRight = E;
layers = (
{
hints = (
{
horizontal = 1;
place = (0, 47);
place = (0, 47);
type = Stem;
},
{
horizontal = 1;
place = (347, 44);
place = (347, 44);
type = Stem;
},
{
horizontal = 1;
place = (670, 45);
place = (670, 45);
type = Stem;
},
{
place = (11, 580);
place = (11, 580);
type = Stem;
},
{
horizontal = 1;
place = (670, 193);
place = (670, 193);
type = Stem;
}
);
layerId = m01;
shapes = (
{
closed = 1;
nodes = (
(11,0,l),
(477,0,l),
(486,47,l),
(71,47,l),
(129,347,l),
(498,347,l),
(507,391,l),
(138,391,l),
(192,670,l),
(583,670,l),
(591,715,l),
(149,715,l)
);
},
{
closed = 1;
nodes = (
(354,753,l),
(398,753,l),
(497,863,l),
(429,863,l)
);
}
);
width = 559;
}
);
note = Eacute;
unicode = 201;
},
{
glyphname = Ntilde;
layers = (
{
hints = (
{
horizontal = 1;
place = (0, 21);
target = up;
type = BottomGhost;
},
{
horizontal = 1;
place = (715, -20);
target = down;
type = TopGhost;
},
{
horizontal = 1;
place = (760, 43);
place = (760, 43);
type = Stem;
},
{
place = (11, 643);
place = (11, 643);
type = Stem;
},
{
horizontal = 1;
place = (642, 73);
place = (642, 73);
type = Stem;
},
{
horizontal = 1;
place = (0, 75);
place = (0, 75);
type = Stem;
},
{
horizontal = 1;
place = (803, 43);
place = (803, 43);
type = Stem;
}
);
layerId = m01;
shapes = (
{
closed = 1;
nodes = (
(11,0,l),
(60,0,l),
(184,642,l),
(186,642,l),
(186,642,o),
(218,561,o),
(247,494,cs),
(461,0,l),
(516,0,l),
(654,715,l),
(604,715,l),
(480,75,l),
(478,75,l),
(478,75,o),
(455,142,o),
(425,210,cs),
(206,715,l),
(149,715,l)
);
},
{
closed = 1;
nodes = (
(521,760,o),
(555,789,o),
(564,844,c),
(523,844,l),
(518,818,o),
(503,803,o),
(486,803,cs),
(458,803,o),
(412,846,o),
(370,846,cs),
(335,846,o),
(303,819,o),
(292,762,c),
(333,762,l),
(338,788,o),
(354,803,o),
(368,803,cs),
(396,803,o),
(444,760,o),
(484,760,cs)
);
}
);
width = 627;
}
);
note = Ntilde;
unicode = 209;
},
{
glyphname = Odieresis;
kernLeft = C;
kernRight = O;
layers = (
{
hints = (
{
horizontal = 1;
place = (-13, 46);
place = (-13, 46);
type = Stem;
},
{
horizontal = 1;
place = (683, 46);
place = (683, 46);
type = Stem;
},
{
place = (45, 54);
place = (45, 54);
type = Stem;
},
{
place = (627, 54);
place = (627, 54);
type = Stem;
},
{
horizontal = 1;
place = (755, 80);
place = (755, 80);
type = Stem;
}
);
layerId = m01;
shapes = (
{
closed = 1;
nodes = (
(563,-13,o),
(681,207,o),
(681,419,cs),
(681,611,o),
(558,729,o),
(396,729,cs),
(170,729,o),
(45,507,o),
(45,295,cs),
(45,102,o),
(167,-13,o),
(328,-13,cs)
);
},
{
closed = 1;
nodes = (
(99,491,o),
(199,683,o),
(394,683,cs),
(540,683,o),
(627,571,o),
(627,419,cs),
(627,226,o),
(526,33,o),
(330,33,cs),
(182,33,o),
(99,145,o),
(99,295,cs)
);
},
{
closed = 1;
nodes = (
(316,755,l),
(365,755,l),
(381,835,l),
(332,835,l)
);
},
{
closed = 1;
nodes = (
(465,755,l),
(514,755,l),
(530,835,l),
(481,835,l)
);
}
);
width = 689;
}
);
note = Odieresis;
unicode = 214;
},
{
glyphname = Udieresis;
kernLeft = U;
kernRight = U;
layers = (
{
hints = (
{
horizontal = 1;
place = (-11, 45);
place = (-11, 45);
type = Stem;
},
{
horizontal = 1;
place = (715, -20);
target = down;
type = TopGhost;
},
{
horizontal = 1;
place = (755, 80);
place = (755, 80);
type = Stem;
},
{
place = (45, 51);
place = (45, 51);
type = Stem;
}
);
layerId = m01;
shapes = (
{
closed = 1;
nodes = (
(416,-11,o),
(509,60,o),
(537,209,cs),
(635,715,l),
(584,715,l),
(487,214,ls),
(463,85,o),
(393,34,o),
(276,34,cs),
(132,34,o),
(75,101,o),
(103,245,cs),
(194,715,l),
(143,715,l),
(52,245,ls),
(17,62,o),
(121,-11,o),
(271,-11,cs)
);
},
{
closed = 1;
nodes = (
(294,755,l),
(343,755,l),
(359,835,l),
(310,835,l)
);
},
{
closed = 1;
nodes = (
(443,755,l),
(492,755,l),
(508,835,l),
(459,835,l)
);
}
);
width = 602;
}
);
note = Udieresis;
unicode = 220;
},
{
glyphname = aacute;
kernLeft = a;
kernRight = a;
layers = (
{
hints = (
{
horizontal = 1;
place = (-8, 37);
place = (-8, 37);
type = Stem;
},
{
horizontal = 1;
place = (487, 41);
place = (487, 41);
type = Stem;
},
{
horizontal = 1;
place = (588, 127);
place = (588, 127);
type = Stem;
},
{
place = (-1, 50);
place = (-1, 50);
type = Stem;
},
{
place = (391, 46);
place = (391, 46);
type = Stem;
},
{
horizontal = 1;
place = (-13, 40);
place = (-13, 40);
type = Stem;
}
);
layerId = m01;
shapes = (
{
closed = 1;
nodes = (
(410,-8,o),
(419,-6,o),
(427,-2,c),
(433,32,l),
(430,32,l),
(393,23,o),
(372,35,o),
(380,77,cs),
(432,339,ls),
(460,480,o),
(373,528,o),
(265,528,cs),
(150,528,o),
(75,468,o),
(56,370,c),
(105,370,l),
(122,449,o),
(176,487,o),
(264,487,cs),
(334,487,o),
(391,461,o),
(391,390,cs),
(391,348,o),
(379,326,o),
(351,314,cs),
(313,298,o),
(246,303,o),
(159,292,cs),
(56,279,o),
(-1,221,o),
(-1,129,cs),
(-1,38,o),
(77,-13,o),
(164,-13,cs),
(258,-13,o),
(306,32,o),
(330,68,c),
(333,68,l),
(326,31,o),
(341,-8,o),
(395,-8,cs)
);
},
{
closed = 1;
nodes = (
(48,198,o),
(77,238,o),
(161,252,cs),
(233,264,o),
(313,258,o),
(373,282,c),
(353,181,ls),
(338,105,o),
(283,27,o),
(169,27,cs),
(99,27,o),
(50,66,o),
(49,129,cs)
);
},
{
closed = 1;
nodes = (
(255,588,l),
(298,588,l),
(398,715,l),
(330,715,l)
);
}
);
width = 481;
}
);
note = aacute;
unicode = 225;
},
{
glyphname = agrave;
kernLeft = a;
kernRight = a;
layers = (
{
hints = (
{
horizontal = 1;
place = (-8, 37);
place = (-8, 37);
type = Stem;
},
{
horizontal = 1;
place = (487, 41);
place = (487, 41);
type = Stem;
},
{
horizontal = 1;
place = (588, 127);
place = (588, 127);
type = Stem;
},
{
place = (-1, 50);
place = (-1, 50);
type = Stem;
},
{
place = (391, 46);
place = (391, 46);
type = Stem;
},
{
horizontal = 1;
place = (-13, 40);
place = (-13, 40);
type = Stem;
}
);
layerId = m01;
shapes = (
{
closed = 1;
nodes = (
(410,-8,o),
(419,-6,o),
(427,-2,c),
(433,32,l),
(430,32,l),
(393,23,o),
(372,35,o),
(380,77,cs),
(432,339,ls),
(460,480,o),
(373,528,o),
(265,528,cs),
(150,528,o),
(75,468,o),
(56,370,c),
(105,370,l),
(122,449,o),
(176,487,o),
(264,487,cs),
(334,487,o),
(391,461,o),
(391,390,cs),
(391,348,o),
(379,326,o),
(351,314,cs),
(313,298,o),
(246,303,o),
(159,292,cs),
(56,279,o),
(-1,221,o),
(-1,129,cs),
(-1,38,o),
(77,-13,o),
(164,-13,cs),
(258,-13,o),
(306,32,o),
(330,68,c),
(333,68,l),
(326,31,o),
(341,-8,o),
(395,-8,cs)
);
},
{
closed = 1;
nodes = (
(48,198,o),
(77,238,o),
(161,252,cs),
(233,264,o),
(313,258,o),
(373,282,c),
(353,181,ls),
(338,105,o),
(283,27,o),
(169,27,cs),
(99,27,o),
(50,66,o),
(49,129,cs)
);
},
{
closed = 1;
nodes = (
(314,588,l),
(267,715,l),
(203,715,l),
(272,588,l)
);
}
);
width = 481;
}
);
note = agrave;
unicode = 224;
},
{
glyphname = acircumflex;
kernLeft = a;
kernRight = a;
layers = (
{
hints = (
{
horizontal = 1;
place = (-8, 37);
place = (-8, 37);
type = Stem;
},
{
horizontal = 1;
place = (487, 41);
place = (487, 41);
type = Stem;
},
{
horizontal = 1;
place = (592, 106);
place = (592, 106);
type = Stem;
},
{
place = (-1, 50);
place = (-1, 50);
type = Stem;
},
{
place = (391, 46);
place = (391, 46);
type = Stem;
},
{
horizontal = 1;
place = (-13, 40);
place = (-13, 40);
type = Stem;
},
{
horizontal = 1;
place = (668, 30);
place = (668, 30);
type = Stem;
}
);
layerId = m01;
shapes = (
{
closed = 1;
nodes = (
(410,-8,o),
(419,-6,o),
(427,-2,c),
(433,32,l),
(430,32,l),
(393,23,o),
(372,35,o),
(380,77,cs),
(432,339,ls),
(460,480,o),
(373,528,o),
(265,528,cs),
(150,528,o),
(75,468,o),
(56,370,c),
(105,370,l),
(122,449,o),
(176,487,o),
(264,487,cs),
(334,487,o),
(391,461,o),
(391,390,cs),
(391,348,o),
(379,326,o),
(351,314,cs),
(313,298,o),
(246,303,o),
(159,292,cs),
(56,279,o),
(-1,221,o),
(-1,129,cs),
(-1,38,o),
(77,-13,o),
(164,-13,cs),
(258,-13,o),
(306,32,o),
(330,68,c),
(333,68,l),
(326,31,o),
(341,-8,o),
(395,-8,cs)
);
},
{
closed = 1;
nodes = (
(48,198,o),
(77,238,o),
(161,252,cs),
(233,264,o),
(313,258,o),
(373,282,c),
(353,181,ls),
(338,105,o),
(283,27,o),
(169,27,cs),
(99,27,o),
(50,66,o),
(49,129,cs)
);
},
{
closed = 1;
nodes = (
(167,592,l),
(223,592,l),
(289,668,l),
(291,668,l),
(332,592,l),
(385,592,l),
(325,698,l),
(263,698,l)
);
}
);
width = 481;
}
);
note = acircumflex;
unicode = 226;
},
{
glyphname = adieresis;
kernLeft = a;
kernRight = a;
layers = (
{
hints = (
{
horizontal = 1;
place = (-8, 37);
place = (-8, 37);
type = Stem;
},
{
horizontal = 1;
place = (487, 41);
place = (487, 41);
type = Stem;
},
{
horizontal = 1;
place = (635, 80);
place = (635, 80);
type = Stem;
},
{
place = (-1, 50);
place = (-1, 50);
type = Stem;
},
{
place = (391, 46);
place = (391, 46);
type = Stem;
},
{
horizontal = 1;
place = (-13, 40);
place = (-13, 40);
type = Stem;
}
);
layerId = m01;
shapes = (
{
closed = 1;
nodes = (
(410,-8,o),
(419,-6,o),
(427,-2,c),
(433,32,l),
(430,32,l),
(393,23,o),
(372,35,o),
(380,77,cs),
(432,339,ls),
(460,480,o),
(373,528,o),
(265,528,cs),
(150,528,o),
(75,468,o),
(56,370,c),
(105,370,l),
(122,449,o),
(176,487,o),
(264,487,cs),
(334,487,o),
(391,461,o),
(391,390,cs),
(391,348,o),
(379,326,o),
(351,314,cs),
(313,298,o),
(246,303,o),
(159,292,cs),
(56,279,o),
(-1,221,o),
(-1,129,cs),
(-1,38,o),
(77,-13,o),
(164,-13,cs),
(258,-13,o),
(306,32,o),
(330,68,c),
(333,68,l),
(326,31,o),
(341,-8,o),
(395,-8,cs)
);
},
{
closed = 1;
nodes = (
(48,198,o),
(77,238,o),
(161,252,cs),
(233,264,o),
(313,258,o),
(373,282,c),
(353,181,ls),
(338,105,o),
(283,27,o),
(169,27,cs),
(99,27,o),
(50,66,o),
(49,129,cs)
);
},
{
closed = 1;
nodes = (
(183,635,l),
(232,635,l),
(247,715,l),
(198,715,l)
);
},
{
closed = 1;
nodes = (
(332,635,l),
(381,635,l),
(396,715,l),
(347,715,l)
);
}
);
width = 481;
}
);
note = adieresis;
unicode = 228;
},
{
glyphname = atilde;
kernLeft = a;
kernRight = a;
layers = (
{
hints = (
{
horizontal = 1;
place = (-8, 37);
place = (-8, 37);
type = Stem;
},
{
horizontal = 1;
place = (487, 41);
place = (487, 41);
type = Stem;
},
{
horizontal = 1;
place = (643, 43);
place = (643, 43);
type = Stem;
},
{
place = (-1, 50);
place = (-1, 50);
type = Stem;
},
{
place = (391, 46);
place = (391, 46);
type = Stem;
},
{
horizontal = 1;
place = (-13, 40);
place = (-13, 40);
type = Stem;
},
{
horizontal = 1;
place = (600, 43);
place = (600, 43);
type = Stem;
}
);
layerId = m01;
shapes = (
{
closed = 1;
nodes = (
(410,-8,o),
(419,-6,o),
(427,-2,c),
(433,32,l),
(430,32,l),
(393,23,o),
(372,35,o),
(380,77,cs),
(432,339,ls),
(460,480,o),
(373,528,o),
(265,528,cs),
(150,528,o),
(75,468,o),
(56,370,c),
(105,370,l),
(122,449,o),
(176,487,o),
(264,487,cs),
(334,487,o),
(391,461,o),
(391,390,cs),
(391,348,o),
(379,326,o),
(351,314,cs),
(313,298,o),
(246,303,o),
(159,292,cs),
(56,279,o),
(-1,221,o),
(-1,129,cs),
(-1,38,o),
(77,-13,o),
(164,-13,cs),
(258,-13,o),
(306,32,o),
(330,68,c),
(333,68,l),
(326,31,o),
(341,-8,o),
(395,-8,cs)
);
},
{
closed = 1;
nodes = (
(48,198,o),
(77,238,o),
(161,252,cs),
(233,264,o),
(313,258,o),
(373,282,c),
(353,181,ls),
(338,105,o),
(283,27,o),
(169,27,cs),
(99,27,o),
(50,66,o),
(49,129,cs)
);
},
{
closed = 1;
nodes = (
(375,600,o),
(409,629,o),
(418,684,c),
(377,684,l),
(372,658,o),
(357,643,o),
(340,643,cs),
(312,643,o),
(269,686,o),
(227,686,cs),
(192,686,o),
(160,659,o),
(149,602,c),
(190,602,l),
(195,628,o),
(211,643,o),
(225,643,cs),
(253,643,o),
(298,600,o),
(338,600,cs)
);
}
);
width = 481;
}
);
note = atilde;
unicode = 227;
},
{
glyphname = aring;
kernLeft = a;
kernRight = a;
layers = (
{
hints = (
{
horizontal = 1;
place = (-8, 37);
place = (-8, 37);
type = Stem;
},
{
horizontal = 1;
place = (487, 41);
place = (487, 41);
type = Stem;
},
{
horizontal = 1;
place = (576, 33);
place = (576, 33);
type = Stem;
},
{
horizontal = 1;
place = (713, 33);
place = (713, 33);
type = Stem;
},
{
place = (-1, 50);
place = (-1, 50);
type = Stem;
},
{
place = (199, 38);
place = (199, 38);
type = Stem;
},
{
place = (391, 46);
place = (391, 46);
type = Stem;
},
{
horizontal = 1;
place = (-13, 40);
place = (-13, 40);
type = Stem;
},
{
place = (335, 38);
place = (335, 38);
type = Stem;
}
);
layerId = m01;
shapes = (
{
closed = 1;
nodes = (
(410,-8,o),
(419,-6,o),
(427,-2,c),
(433,32,l),
(430,32,l),
(393,23,o),
(372,35,o),
(380,77,cs),
(432,339,ls),
(460,480,o),
(373,528,o),
(265,528,cs),
(150,528,o),
(75,468,o),
(56,370,c),
(105,370,l),
(122,449,o),
(176,487,o),
(264,487,cs),
(334,487,o),
(391,461,o),
(391,390,cs),
(391,348,o),
(379,326,o),
(351,314,cs),
(313,298,o),
(246,303,o),
(159,292,cs),
(56,279,o),
(-1,221,o),
(-1,129,cs),
(-1,38,o),
(77,-13,o),
(164,-13,cs),
(258,-13,o),
(306,32,o),
(330,68,c),
(333,68,l),
(326,31,o),
(341,-8,o),
(395,-8,cs)
);
},
{
closed = 1;
nodes = (
(48,198,o),
(77,238,o),
(161,252,cs),
(233,264,o),
(313,258,o),
(373,282,c),
(353,181,ls),
(338,105,o),
(283,27,o),
(169,27,cs),
(99,27,o),
(50,66,o),
(49,129,cs)
);
},
{
closed = 1;
nodes = (
(334,576,o),
(373,614,o),
(373,661,cs),
(373,708,o),
(334,746,o),
(286,746,cs),
(238,746,o),
(199,708,o),
(199,661,cs),
(199,614,o),
(238,576,o),
(286,576,cs)
);
},
{
closed = 1;
nodes = (
(257,609,o),
(237,632,o),
(237,661,cs),
(237,690,o),
(257,713,o),
(286,713,cs),
(315,713,o),
(335,690,o),
(335,661,cs),
(335,632,o),
(315,609,o),
(286,609,cs)
);
}
);
width = 481;
}
);
note = aring;
unicode = 229;
},
{
glyphname = ccedilla;
kernLeft = c;
kernRight = c;
layers = (
{
hints = (
{
horizontal = 1;
place = (-184, 34);
place = (-184, 34);
type = Stem;
},
{
horizontal = 1;
place = (-84, 31);
place = (-84, 31);
type = Stem;
},
{
horizontal = 1;
place = (-11, 40);
place = (-11, 40);
type = Stem;
},
{
horizontal = 1;
place = (487, 41);
place = (487, 41);
type = Stem;
},
{
place = (22, 49);
place = (22, 49);
type = Stem;
},
{
place = (219, 47);
place = (219, 47);
type = Stem;
},
{
place = (409, 46);
place = (409, 46);
type = Stem;
},
{
horizontal = 1;
place = (-184, 21);
target = up;
type = BottomGhost;
}
);
layerId = m01;
shapes = (
{
closed = 1;
nodes = (
(216,-184,o),
(266,-161,o),
(266,-108,cs),
(266,-72,o),
(237,-50,o),
(191,-53,c),
(191,-51,l),
(233,-13,l),
(335,-7,o),
(408,68,o),
(435,175,c),
(388,175,l),
(366,90,o),
(305,30,o),
(222,29,cs),
(115,29,o),
(71,102,o),
(71,205,cs),
(71,336,o),
(133,487,o),
(280,487,cs),
(369,487,o),
(403,424,o),
(409,368,c),
(455,368,l),
(444,466,o),
(380,528,o),
(281,528,cs),
(105,528,o),
(22,358,o),
(22,204,cs),
(22,73,o),
(88,1,o),
(188,-11,c),
(129,-69,l),
(140,-91,l),
(150,-88,o),
(163,-84,o),
(179,-84,cs),
(202,-84,o),
(219,-92,o),
(219,-111,cs),
(219,-137,o),
(195,-150,o),
(159,-150,cs),
(134,-150,o),
(113,-144,o),
(93,-136,c),
(79,-162,l),
(101,-175,o),
(127,-184,o),
(167,-184,cs)
);
}
);
width = 461;
}
);
note = ccedilla;
unicode = 231;
},
{
glyphname = eacute;
kernLeft = c;
kernRight = e;
layers = (
{
hints = (
{
horizontal = 1;
place = (-13, 42);
place = (-13, 42);
type = Stem;
},
{
horizontal = 1;
place = (253, 40);
place = (253, 40);
type = Stem;
},
{
horizontal = 1;
place = (487, 41);
place = (487, 41);
type = Stem;
},
{
horizontal = 1;
place = (588, 127);
place = (588, 127);
type = Stem;
},
{
place = (22, 49);
place = (22, 49);
type = Stem;
},
{
place = (413, 47);
place = (413, 47);
type = Stem;
}
);
layerId = m01;
shapes = (
{
closed = 1;
nodes = (
(453,253,l),
(465,324,o),
(468,418,o),
(414,477,cs),
(383,511,o),
(343,528,o),
(283,528,cs),
(104,528,o),
(22,348,o),
(22,204,cs),
(22,66,o),
(98,-13,o),
(220,-13,cs),
(324,-13,o),
(402,46,o),
(436,154,c),
(388,154,l),
(363,81,o),
(306,29,o),
(223,29,cs),
(113,29,o),
(71,106,o),
(71,205,cs),
(71,221,o),
(72,237,o),
(74,253,c)
);
},
{
closed = 1;
nodes = (
(389,487,o),
(425,400,o),
(409,293,c),
(81,293,l),
(104,394,o),
(169,487,o),
(281,487,cs)
);
},
{
closed = 1;
nodes = (
(261,588,l),
(304,588,l),
(404,715,l),
(336,715,l)
);
}
);
width = 477;
}
);
note = eacute;
unicode = 233;
},
{
glyphname = egrave;
kernLeft = c;
kernRight = e;
layers = (
{
hints = (
{
horizontal = 1;
place = (-13, 42);
place = (-13, 42);
type = Stem;
},
{
horizontal = 1;
place = (253, 40);
place = (253, 40);
type = Stem;
},
{
horizontal = 1;
place = (487, 41);
place = (487, 41);
type = Stem;
},
{
horizontal = 1;
place = (588, 127);
place = (588, 127);
type = Stem;
},
{
place = (22, 49);
place = (22, 49);
type = Stem;
},
{
place = (413, 47);
place = (413, 47);
type = Stem;
}
);
layerId = m01;
shapes = (
{
closed = 1;
nodes = (
(453,253,l),
(465,324,o),
(468,418,o),
(414,477,cs),
(383,511,o),
(343,528,o),
(283,528,cs),
(104,528,o),
(22,348,o),
(22,204,cs),
(22,66,o),
(98,-13,o),
(220,-13,cs),
(324,-13,o),
(402,46,o),
(436,154,c),
(388,154,l),
(363,81,o),
(306,29,o),
(223,29,cs),
(113,29,o),
(71,106,o),
(71,205,cs),
(71,221,o),
(72,237,o),
(74,253,c)
);
},
{
closed = 1;
nodes = (
(389,487,o),
(425,400,o),
(409,293,c),
(81,293,l),
(104,394,o),
(169,487,o),
(281,487,cs)
);
},
{
closed = 1;
nodes = (
(324,588,l),
(277,715,l),
(213,715,l),
(282,588,l)
);
}
);
width = 477;
}
);
note = egrave;
unicode = 232;
},
{
glyphname = ecircumflex;
kernLeft = c;
kernRight = e;
layers = (
{
hints = (
{
horizontal = 1;
place = (-13, 42);
place = (-13, 42);
type = Stem;
},
{
horizontal = 1;
place = (253, 40);
place = (253, 40);
type = Stem;
},
{
horizontal = 1;
place = (487, 41);
place = (487, 41);
type = Stem;
},
{
horizontal = 1;
place = (592, 106);
place = (592, 106);
type = Stem;
},
{
place = (22, 49);
place = (22, 49);
type = Stem;
},
{
place = (413, 47);
place = (413, 47);
type = Stem;
},
{
horizontal = 1;
place = (668, 30);
place = (668, 30);
type = Stem;
}
);
layerId = m01;
shapes = (
{
closed = 1;
nodes = (
(453,253,l),
(465,324,o),
(468,418,o),
(414,477,cs),
(383,511,o),
(343,528,o),
(283,528,cs),
(104,528,o),
(22,348,o),
(22,204,cs),
(22,66,o),
(98,-13,o),
(220,-13,cs),
(324,-13,o),
(402,46,o),
(436,154,c),
(388,154,l),
(363,81,o),
(306,29,o),
(223,29,cs),
(113,29,o),
(71,106,o),
(71,205,cs),
(71,221,o),
(72,237,o),
(74,253,c)
);
},
{
closed = 1;
nodes = (
(389,487,o),
(425,400,o),
(409,293,c),
(81,293,l),
(104,394,o),
(169,487,o),
(281,487,cs)
);
},
{
closed = 1;
nodes = (
(181,592,l),
(237,592,l),
(303,668,l),
(305,668,l),
(346,592,l),
(399,592,l),
(339,698,l),
(277,698,l)
);
}
);
width = 477;
}
);
note = ecircumflex;
unicode = 234;
},
{
glyphname = edieresis;
kernLeft = c;
kernRight = e;
layers = (
{
hints = (
{
horizontal = 1;
place = (-13, 42);
place = (-13, 42);
type = Stem;
},
{
horizontal = 1;
place = (253, 40);
place = (253, 40);
type = Stem;
},
{
horizontal = 1;
place = (487, 41);
place = (487, 41);
type = Stem;
},
{
horizontal = 1;
place = (635, 80);
place = (635, 80);
type = Stem;
},
{
place = (22, 49);
place = (22, 49);
type = Stem;
},
{
place = (413, 47);
place = (413, 47);
type = Stem;
}
);
layerId = m01;
shapes = (
{
closed = 1;
nodes = (
(453,253,l),
(465,324,o),
(468,418,o),
(414,477,cs),
(383,511,o),
(343,528,o),
(283,528,cs),
(104,528,o),
(22,348,o),
(22,204,cs),
(22,66,o),
(98,-13,o),
(220,-13,cs),
(324,-13,o),
(402,46,o),
(436,154,c),
(388,154,l),
(363,81,o),
(306,29,o),
(223,29,cs),
(113,29,o),
(71,106,o),
(71,205,cs),
(71,221,o),
(72,237,o),
(74,253,c)
);
},
{
closed = 1;
nodes = (
(389,487,o),
(425,400,o),
(409,293,c),
(81,293,l),
(104,394,o),
(169,487,o),
(281,487,cs)
);
},
{
closed = 1;
nodes = (
(199,635,l),
(248,635,l),
(263,715,l),
(214,715,l)
);
},
{
closed = 1;
nodes = (
(348,635,l),
(397,635,l),
(412,715,l),
(363,715,l)
);
}
);
width = 477;
}
);
note = edieresis;
unicode = 235;
},
{
glyphname = iacute;
kernLeft = b;
layers = (
{
hints = (
{
horizontal = 1;
place = (0, 21);
target = up;
type = BottomGhost;
},
{
horizontal = 1;
place = (517, -20);
target = down;
type = TopGhost;
},
{
horizontal = 1;
place = (588, 127);
place = (588, 127);
type = Stem;
},
{
place = (2, 246);
place = (2, 246);
type = Stem;
}
);
layerId = m01;
shapes = (
{
closed = 1;
nodes = (
(120,588,l),
(162,588,l),
(248,715,l),
(183,715,l)
);
},
{
closed = 1;
nodes = (
(2,0,l),
(50,0,l),
(150,517,l),
(102,517,l)
);
}
);
width = 153;
}
);
note = iacute;
unicode = 237;
},
{
glyphname = igrave;
kernLeft = b;
layers = (
{
hints = (
{
horizontal = 1;
place = (0, 21);
target = up;
type = BottomGhost;
},
{
horizontal = 1;
place = (517, -20);
target = down;
type = TopGhost;
},
{
horizontal = 1;
place = (588, 127);
place = (588, 127);
type = Stem;
},
{
place = (2, 155);
place = (2, 155);
type = Stem;
}
);
layerId = m01;
shapes = (
{
closed = 1;
nodes = (
(2,0,l),
(50,0,l),
(150,517,l),
(102,517,l)
);
},
{
closed = 1;
nodes = (
(157,588,l),
(121,715,l),
(60,715,l),
(115,588,l)
);
}
);
width = 153;
}
);
note = igrave;
unicode = 236;
},
{
glyphname = icircumflex;
kernLeft = b;
layers = (
{
hints = (
{
horizontal = 1;
place = (0, 21);
target = up;
type = BottomGhost;
},
{
horizontal = 1;
place = (517, -20);
target = down;
type = TopGhost;
},
{
horizontal = 1;
place = (592, 106);
place = (592, 106);
type = Stem;
},
{
place = (2, 224);
place = (2, 224);
type = Stem;
},
{
horizontal = 1;
place = (667, 31);
place = (667, 31);
type = Stem;
}
);
layerId = m01;
shapes = (
{
closed = 1;
nodes = (
(2,0,l),
(50,0,l),
(150,517,l),
(102,517,l)
);
},
{
closed = 1;
nodes = (
(39,592,l),
(91,592,l),
(146,667,l),
(148,667,l),
(178,592,l),
(226,592,l),
(181,698,l),
(120,698,l)
);
}
);
width = 153;
}
);
note = icircumflex;
unicode = 238;
},
{
glyphname = idieresis;
kernLeft = b;
layers = (
{
hints = (
{
horizontal = 1;
place = (0, 21);
target = up;
type = BottomGhost;
},
{
horizontal = 1;
place = (517, -20);
target = down;
type = TopGhost;
},
{
horizontal = 1;
place = (635, 80);
place = (635, 80);
type = Stem;
},
{
place = (2, 231);
place = (2, 231);
type = Stem;
}
);
layerId = m01;
shapes = (
{
closed = 1;
nodes = (
(2,0,l),
(50,0,l),
(150,517,l),
(102,517,l)
);
},
{
closed = 1;
nodes = (
(70,635,l),
(118,635,l),
(133,715,l),
(85,715,l)
);
},
{
closed = 1;
nodes = (
(170,635,l),
(218,635,l),
(233,715,l),
(185,715,l)
);
}
);
width = 153;
}
);
note = idieresis;
unicode = 239;
},
{
glyphname = ntilde;
kernLeft = m;
kernRight = h;
layers = (
{
hints = (
{
horizontal = 1;
place = (0, 21);
target = up;
type = BottomGhost;
},
{
horizontal = 1;
place = (517, -20);
target = down;
type = TopGhost;
},
{
horizontal = 1;
place = (643, 43);
place = (643, 43);
type = Stem;
},
{
place = (402, 48);
place = (402, 48);
type = Stem;
},
{
horizontal = 1;
place = (486, 41);
place = (486, 41);
type = Stem;
},
{
horizontal = 1;
place = (600, 43);
place = (600, 43);
type = Stem;
}
);
layerId = m01;
shapes = (
{
closed = 1;
nodes = (
(147,517,l),
(99,517,l),
(-1,0,l),
(47,0,l),
(107,312,ls),
(126,409,o),
(210,486,o),
(310,486,cs),
(382,486,o),
(414,443,o),
(398,363,cs),
(328,0,l),
(376,0,l),
(446,364,ls),
(467,471,o),
(412,527,o),
(320,527,cs),
(231,527,o),
(176,483,o),
(131,426,c),
(129,426,l)
);
},
{
closed = 1;
nodes = (
(386,600,o),
(420,629,o),
(429,684,c),
(388,684,l),
(383,658,o),
(368,643,o),
(351,643,cs),
(323,643,o),
(280,686,o),
(238,686,cs),
(203,686,o),
(171,659,o),
(160,602,c),
(201,602,l),
(206,628,o),
(222,643,o),
(236,643,cs),
(264,643,o),
(309,600,o),
(349,600,cs)
);
}
);
width = 471;
}
);
note = ntilde;
unicode = 241;
},
{
glyphname = oacute;
kernLeft = c;
kernRight = o;
layers = (
{
hints = (
{
horizontal = 1;
place = (-13, 41);
place = (-13, 41);
type = Stem;
},
{
horizontal = 1;
place = (488, 40);
place = (488, 40);
type = Stem;
},
{
horizontal = 1;
place = (588, 127);
place = (588, 127);
type = Stem;
},
{
place = (22, 49);
place = (22, 49);
type = Stem;
},
{
place = (429, 49);
place = (429, 49);
type = Stem;
}
);
layerId = m01;
shapes = (
{
closed = 1;
nodes = (
(398,-13,o),
(478,163,o),
(478,308,cs),
(478,442,o),
(395,528,o),
(278,528,cs),
(100,528,o),
(22,350,o),
(22,203,cs),
(22,69,o),
(107,-13,o),
(224,-13,cs)
);
},
{
closed = 1;
nodes = (
(71,338,o),
(136,488,o),
(276,488,cs),
(384,488,o),
(429,400,o),
(429,304,cs),
(429,176,o),
(364,28,o),
(225,28,cs),
(120,28,o),
(71,108,o),
(71,208,cs)
);
},
{
closed = 1;
nodes = (
(269,588,l),
(312,588,l),
(412,715,l),
(344,715,l)
);
}
);
width = 500;
}
);
note = oacute;
unicode = 243;
},
{
glyphname = ograve;
kernLeft = c;
kernRight = o;
layers = (
{
hints = (
{
horizontal = 1;
place = (-13, 41);
place = (-13, 41);
type = Stem;
},
{
horizontal = 1;
place = (488, 40);
place = (488, 40);
type = Stem;
},
{
horizontal = 1;
place = (588, 127);
place = (588, 127);
type = Stem;
},
{
place = (22, 49);
place = (22, 49);
type = Stem;
},
{
place = (429, 49);
place = (429, 49);
type = Stem;
}
);
layerId = m01;
shapes = (
{
closed = 1;
nodes = (
(398,-13,o),
(478,163,o),
(478,308,cs),
(478,442,o),
(395,528,o),
(278,528,cs),
(100,528,o),
(22,350,o),
(22,203,cs),
(22,69,o),
(107,-13,o),
(224,-13,cs)
);
},
{
closed = 1;
nodes = (
(71,338,o),
(136,488,o),
(276,488,cs),
(384,488,o),
(429,400,o),
(429,304,cs),
(429,176,o),
(364,28,o),
(225,28,cs),
(120,28,o),
(71,108,o),
(71,208,cs)
);
},
{
closed = 1;
nodes = (
(321,588,l),
(274,715,l),
(210,715,l),
(279,588,l)
);
}
);
width = 500;
}
);
note = ograve;
unicode = 242;
},
{
glyphname = ocircumflex;
kernLeft = c;
kernRight = o;
layers = (
{
hints = (
{
horizontal = 1;
place = (-13, 41);
place = (-13, 41);
type = Stem;
},
{
horizontal = 1;
place = (488, 40);
place = (488, 40);
type = Stem;
},
{
horizontal = 1;
place = (592, 106);
place = (592, 106);
type = Stem;
},
{
place = (22, 49);
place = (22, 49);
type = Stem;
},
{
place = (429, 49);
place = (429, 49);
type = Stem;
},
{
horizontal = 1;
place = (668, 30);
place = (668, 30);
type = Stem;
}
);
layerId = m01;
shapes = (
{
closed = 1;
nodes = (
(398,-13,o),
(478,163,o),
(478,308,cs),
(478,442,o),
(395,528,o),
(278,528,cs),
(100,528,o),
(22,350,o),
(22,203,cs),
(22,69,o),
(107,-13,o),
(224,-13,cs)
);
},
{
closed = 1;
nodes = (
(71,338,o),
(136,488,o),
(276,488,cs),
(384,488,o),
(429,400,o),
(429,304,cs),
(429,176,o),
(364,28,o),
(225,28,cs),
(120,28,o),
(71,108,o),
(71,208,cs)
);
},
{
closed = 1;
nodes = (
(188,592,l),
(244,592,l),
(310,668,l),
(312,668,l),
(353,592,l),
(406,592,l),
(346,698,l),
(284,698,l)
);
}
);
width = 500;
}
);
note = ocircumflex;
unicode = 244;
},
{
glyphname = odieresis;
kernLeft = c;
kernRight = o;
layers = (
{
hints = (
{
horizontal = 1;
place = (-13, 41);
place = (-13, 41);
type = Stem;
},
{
horizontal = 1;
place = (488, 40);
place = (488, 40);
type = Stem;
},
{
horizontal = 1;
place = (635, 80);
place = (635, 80);
type = Stem;
},
{
place = (22, 49);
place = (22, 49);
type = Stem;
},
{
place = (429, 49);
place = (429, 49);
type = Stem;
}
);
layerId = m01;
shapes = (
{
closed = 1;
nodes = (
(398,-13,o),
(478,163,o),
(478,308,cs),
(478,442,o),
(395,528,o),
(278,528,cs),
(100,528,o),
(22,350,o),
(22,203,cs),
(22,69,o),
(107,-13,o),
(224,-13,cs)
);
},
{
closed = 1;
nodes = (
(71,338,o),
(136,488,o),
(276,488,cs),
(384,488,o),
(429,400,o),
(429,304,cs),
(429,176,o),
(364,28,o),
(225,28,cs),
(120,28,o),
(71,108,o),
(71,208,cs)
);
},
{
closed = 1;
nodes = (
(202,635,l),
(251,635,l),
(266,715,l),
(217,715,l)
);
},
{
closed = 1;
nodes = (
(351,635,l),
(400,635,l),
(415,715,l),
(366,715,l)
);
}
);
width = 500;
}
);
note = odieresis;
unicode = 246;
},
{
glyphname = otilde;
kernLeft = c;
kernRight = o;
layers = (
{
hints = (
{
horizontal = 1;
place = (-13, 41);
place = (-13, 41);
type = Stem;
},
{
horizontal = 1;
place = (488, 40);
place = (488, 40);
type = Stem;
},
{
horizontal = 1;
place = (643, 43);
place = (643, 43);
type = Stem;
},
{
place = (22, 49);
place = (22, 49);
type = Stem;
},
{
place = (429, 49);
place = (429, 49);
type = Stem;
},
{
horizontal = 1;
place = (600, 43);
place = (600, 43);
type = Stem;
}
);
layerId = m01;
shapes = (
{
closed = 1;
nodes = (
(398,-13,o),
(478,163,o),
(478,308,cs),
(478,442,o),
(395,528,o),
(278,528,cs),
(100,528,o),
(22,350,o),
(22,203,cs),
(22,69,o),
(107,-13,o),
(224,-13,cs)
);
},
{
closed = 1;
nodes = (
(71,338,o),
(136,488,o),
(276,488,cs),
(384,488,o),
(429,400,o),
(429,304,cs),
(429,176,o),
(364,28,o),
(225,28,cs),
(120,28,o),
(71,108,o),
(71,208,cs)
);
},
{
closed = 1;
nodes = (
(390,600,o),
(424,629,o),
(433,684,c),
(392,684,l),
(387,658,o),
(372,643,o),
(355,643,cs),
(327,643,o),
(284,686,o),
(242,686,cs),
(207,686,o),
(175,659,o),
(164,602,c),
(205,602,l),
(210,628,o),
(226,643,o),
(240,643,cs),
(268,643,o),
(313,600,o),
(353,600,cs)
);
}
);
width = 500;
}
);
note = otilde;
unicode = 245;
},
{
glyphname = uacute;
kernLeft = u;
kernRight = u;
layers = (
{
hints = (
{
horizontal = 1;
place = (0, 21);
target = up;
type = BottomGhost;
},
{
horizontal = 1;
place = (517, -20);
target = down;
type = TopGhost;
},
{
horizontal = 1;
place = (588, 127);
place = (588, 127);
type = Stem;
},
{
place = (21, 48);
place = (21, 48);
type = Stem;
},
{
horizontal = 1;
place = (-12, 41);
place = (-12, 41);
type = Stem;
}
);
layerId = m01;
shapes = (
{
closed = 1;
nodes = (
(318,0,l),
(366,0,l),
(466,517,l),
(418,517,l),
(360,216,ls),
(340,111,o),
(259,29,o),
(159,29,cs),
(84,29,o),
(58,77,o),
(73,156,cs),
(143,517,l),
(95,517,l),
(25,155,ls),
(4,47,o),
(57,-12,o),
(149,-12,cs),
(238,-12,o),
(291,35,o),
(333,87,c),
(335,87,l)
);
},
{
closed = 1;
nodes = (
(254,588,l),
(297,588,l),
(397,715,l),
(329,715,l)
);
}
);
width = 465;
}
);
note = uacute;
unicode = 250;
},
{
glyphname = ugrave;
kernLeft = u;
kernRight = u;
layers = (
{
hints = (
{
horizontal = 1;
place = (0, 21);
target = up;
type = BottomGhost;
},
{
horizontal = 1;
place = (517, -20);
target = down;
type = TopGhost;
},
{
horizontal = 1;
place = (588, 127);
place = (588, 127);
type = Stem;
},
{
place = (21, 48);
place = (21, 48);
type = Stem;
},
{
horizontal = 1;
place = (-12, 41);
place = (-12, 41);
type = Stem;
}
);
layerId = m01;
shapes = (
{
closed = 1;
nodes = (
(318,0,l),
(366,0,l),
(466,517,l),
(418,517,l),
(360,216,ls),
(340,111,o),
(259,29,o),
(159,29,cs),
(84,29,o),
(58,77,o),
(73,156,cs),
(143,517,l),
(95,517,l),
(25,155,ls),
(4,47,o),
(57,-12,o),
(149,-12,cs),
(238,-12,o),
(291,35,o),
(333,87,c),
(335,87,l)
);
},
{
closed = 1;
nodes = (
(317,588,l),
(270,715,l),
(206,715,l),
(275,588,l)
);
}
);
width = 465;
}
);
note = ugrave;
unicode = 249;
},
{
glyphname = ucircumflex;
kernLeft = u;
kernRight = u;
layers = (
{
hints = (
{
horizontal = 1;
place = (0, 21);
target = up;
type = BottomGhost;
},
{
horizontal = 1;
place = (517, -20);
target = down;
type = TopGhost;
},
{
horizontal = 1;
place = (592, 106);
place = (592, 106);
type = Stem;
},
{
place = (21, 48);
place = (21, 48);
type = Stem;
},
{
horizontal = 1;
place = (-12, 41);
place = (-12, 41);
type = Stem;
},
{
horizontal = 1;
place = (668, 30);
place = (668, 30);
type = Stem;
}
);
layerId = m01;
shapes = (
{
closed = 1;
nodes = (
(318,0,l),
(366,0,l),
(466,517,l),
(418,517,l),
(360,216,ls),
(340,111,o),
(259,29,o),
(159,29,cs),
(84,29,o),
(58,77,o),
(73,156,cs),
(143,517,l),
(95,517,l),
(25,155,ls),
(4,47,o),
(57,-12,o),
(149,-12,cs),
(238,-12,o),
(291,35,o),
(333,87,c),
(335,87,l)
);
},
{
closed = 1;
nodes = (
(180,592,l),
(236,592,l),
(302,668,l),
(304,668,l),
(345,592,l),
(398,592,l),
(338,698,l),
(276,698,l)
);
}
);
width = 465;
}
);
note = ucircumflex;
unicode = 251;
},
{
glyphname = udieresis;
kernLeft = u;
kernRight = u;
layers = (
{
hints = (
{
horizontal = 1;
place = (0, 21);
target = up;
type = BottomGhost;
},
{
horizontal = 1;
place = (517, -20);
target = down;
type = TopGhost;
},
{
horizontal = 1;
place = (635, 80);
place = (635, 80);
type = Stem;
},
{
place = (21, 48);
place = (21, 48);
type = Stem;
},
{
horizontal = 1;
place = (-12, 41);
place = (-12, 41);
type = Stem;
}
);
layerId = m01;
shapes = (
{
closed = 1;
nodes = (
(318,0,l),
(366,0,l),
(466,517,l),
(418,517,l),
(360,216,ls),
(340,111,o),
(259,29,o),
(159,29,cs),
(84,29,o),
(58,77,o),
(73,156,cs),
(143,517,l),
(95,517,l),
(25,155,ls),
(4,47,o),
(57,-12,o),
(149,-12,cs),
(238,-12,o),
(291,35,o),
(333,87,c),
(335,87,l)
);
},
{
closed = 1;
nodes = (
(193,635,l),
(242,635,l),
(257,715,l),
(208,715,l)
);
},
{
closed = 1;
nodes = (
(342,635,l),
(391,635,l),
(406,715,l),
(357,715,l)
);
}
);
width = 465;
}
);
note = udieresis;
unicode = 252;
},
{
glyphname = dagger;
layers = (
{
hints = (
{
horizontal = 1;
place = (472, 42);
place = (472, 42);
type = Stem;
},
{
horizontal = 1;
place = (715, -20);
target = down;
type = TopGhost;
},
{
place = (79, 420);
place = (79, 420);
type = Stem;
}
);
layerId = m01;
shapes = (
{
closed = 1;
nodes = (
(79,472,l),
(260,472,l),
(148,-104,l),
(198,-104,l),
(310,472,l),
(491,472,l),
(499,514,l),
(318,514,l),
(357,715,l),
(307,715,l),
(268,514,l),
(87,514,l)
);
}
);
width = 488;
}
);
note = dagger;
unicode = 8224;
},
{
glyphname = degree;
layers = (
{
hints = (
{
horizontal = 1;
place = (461, 38);
place = (461, 38);
type = Stem;
},
{
horizontal = 1;
place = (661, 38);
place = (661, 38);
type = Stem;
},
{
place = (100, 45);
place = (100, 45);
type = Stem;
},
{
place = (291, 45);
place = (291, 45);
type = Stem;
}
);
layerId = m01;
shapes = (
{
closed = 1;
nodes = (
(285,461,o),
(336,514,o),
(336,580,cs),
(336,646,o),
(285,699,o),
(218,699,cs),
(152,699,o),
(100,646,o),
(100,580,cs),
(100,514,o),
(152,461,o),
(218,461,cs)
);
},
{
closed = 1;
nodes = (
(174,499,o),
(145,533,o),
(145,580,cs),
(145,626,o),
(174,661,o),
(218,661,cs),
(263,661,o),
(291,626,o),
(291,580,cs),
(291,533,o),
(263,499,o),
(218,499,cs)
);
}
);
width = 313;
}
);
note = degree;
unicode = 176;
},
{
glyphname = cent;
layers = (
{
hints = (
{
horizontal = 1;
place = (-13, 42);
place = (-13, 42);
type = Stem;
},
{
horizontal = 1;
place = (486, 105);
place = (486, 105);
type = Stem;
},
{
place = (22, 49);
place = (22, 49);
type = Stem;
},
{
place = (408, 47);
place = (408, 47);
type = Stem;
},
{
horizontal = 1;
place = (-8, 21);
target = up;
type = BottomGhost;
}
);
layerId = m01;
shapes = (
{
closed = 1;
nodes = (
(221,-13,ls),
(330,-13,o),
(407,64,o),
(435,175,c),
(388,174,l),
(366,89,o),
(305,30,o),
(222,29,cs),
(220,29,l),
(308,484,l),
(376,472,o),
(402,417,o),
(408,368,c),
(455,368,l),
(447,458,o),
(395,513,o),
(316,525,c),
(329,591,l),
(289,591,l),
(277,528,l),
(106,525,o),
(22,356,o),
(22,204,cs),
(22,79,o),
(81,9,o),
(173,-8,c),
(158,-85,l),
(198,-85,l),
(212,-13,l)
);
},
{
closed = 1;
nodes = (
(71,332,o),
(130,479,o),
(269,486,c),
(181,33,l),
(103,50,o),
(71,116,o),
(71,205,cs)
);
}
);
width = 461;
}
);
note = cent;
unicode = 162;
},
{
glyphname = sterling;
layers = (
{
hints = (
{
horizontal = 1;
place = (-2, 21);
target = up;
type = BottomGhost;
},
{
horizontal = 1;
place = (37, 40);
place = (37, 40);
type = Stem;
},
{
horizontal = 1;
place = (314, 41);
place = (314, 41);
type = Stem;
},
{
horizontal = 1;
place = (656, 43);
place = (656, 43);
type = Stem;
},
{
place = (137, 48);
place = (137, 48);
type = Stem;
},
{
place = (460, 49);
place = (460, 49);
type = Stem;
},
{
horizontal = 1;
place = (-10, 44);
place = (-10, 44);
type = Stem;
},
{
place = (98, 52);
place = (98, 52);
type = Stem;
}
);
layerId = m01;
shapes = (
{
closed = 1;
nodes = (
(60,355,l),
(51,314,l),
(130,314,l),
(134,295,o),
(137,276,o),
(137,258,cs),
(137,156,o),
(74,88,o),
(-2,43,c),
(22,-2,l),
(53,16,o),
(90,37,o),
(138,37,cs),
(200,37,o),
(250,-10,o),
(329,-10,cs),
(381,-10,o),
(419,11,o),
(460,39,c),
(435,76,l),
(404,53,o),
(369,34,o),
(331,34,cs),
(263,34,o),
(218,77,o),
(153,77,cs),
(123,77,o),
(103,71,o),
(81,60,c),
(80,62,l),
(144,109,o),
(185,178,o),
(185,260,cs),
(185,277,o),
(183,296,o),
(180,314,c),
(340,314,l),
(349,355,l),
(172,355,l),
(162,400,o),
(150,445,o),
(150,486,cs),
(150,595,o),
(220,656,o),
(312,656,cs),
(418,656,o),
(462,590,o),
(460,488,c),
(509,488,l),
(513,614,o),
(443,699,o),
(314,699,cs),
(192,699,o),
(98,613,o),
(98,484,cs),
(98,441,o),
(110,397,o),
(121,355,c)
);
}
);
width = 520;
}
);
note = sterling;
unicode = 163;
},
{
glyphname = section;
layers = (
{
hints = (
{
horizontal = 1;
place = (-182, 44);
place = (-182, 44);
type = Stem;
},
{
horizontal = 1;
place = (655, 44);
place = (655, 44);
type = Stem;
},
{
place = (44, 50);
place = (44, 50);
type = Stem;
},
{
place = (163, 51);
place = (163, 51);
type = Stem;
},
{
place = (331, 51);
place = (331, 51);
type = Stem;
},
{
place = (443, 50);
place = (443, 50);
type = Stem;
},
{
place = (28, 52);
place = (28, 52);
type = Stem;
},
{
place = (450, 50);
place = (450, 50);
type = Stem;
}
);
layerId = m01;
shapes = (
{
closed = 1;
nodes = (
(44,242,o),
(99,196,o),
(202,114,cs),
(297,39,o),
(331,5,o),
(331,-47,cs),
(331,-107,o),
(291,-138,o),
(220,-138,cs),
(132,-138,o),
(84,-85,o),
(80,2,c),
(28,2,l),
(30,-111,o),
(109,-182,o),
(217,-182,cs),
(318,-182,o),
(382,-130,o),
(382,-47,cs),
(382,-15,o),
(372,12,o),
(353,39,c),
(434,62,o),
(493,104,o),
(493,188,cs),
(493,273,o),
(424,327,o),
(338,392,cs),
(254,455,o),
(214,489,o),
(214,547,cs),
(214,621,o),
(265,655,o),
(330,655,cs),
(407,655,o),
(445,602,o),
(450,530,c),
(500,530,l),
(496,636,o),
(437,699,o),
(331,699,cs),
(240,699,o),
(163,643,o),
(163,545,cs),
(163,518,o),
(171,494,o),
(184,471,c),
(112,455,o),
(44,403,o),
(44,321,cs)
);
},
{
closed = 1;
nodes = (
(135,228,o),
(94,266,o),
(94,324,cs),
(94,392,o),
(146,425,o),
(210,438,c),
(236,408,o),
(272,380,o),
(311,351,cs),
(393,289,o),
(443,245,o),
(443,186,cs),
(443,120,o),
(390,84,o),
(328,70,c),
(303,97,o),
(269,125,o),
(230,155,cs)
);
}
);
width = 539;
}
);
note = section;
unicode = 167;
},
{
glyphname = bullet;
layers = (
{
hints = (
{
horizontal = 1;
place = (225, 201);
place = (225, 201);
type = Stem;
},
{
place = (48, 201);
place = (48, 201);
type = Stem;
}
);
layerId = m01;
shapes = (
{
closed = 1;
nodes = (
(204,225,o),
(249,270,o),
(249,325,cs),
(249,380,o),
(204,426,o),
(149,426,cs),
(93,426,o),
(48,380,o),
(48,325,cs),
(48,270,o),
(93,225,o),
(149,225,cs)
);
}
);
width = 273;
}
);
note = bullet;
unicode = 8226;
},
{
glyphname = paragraph;
layers = (
{
hints = (
{
horizontal = 1;
place = (0, 21);
target = up;
type = BottomGhost;
},
{
horizontal = 1;
place = (665, 50);
place = (665, 50);
type = Stem;
},
{
place = (80, 422);
place = (80, 422);
type = Stem;
}
);
layerId = m01;
shapes = (
{
closed = 1;
nodes = (
(263,382,l),
(189,0,l),
(238,0,l),
(367,665,l),
(444,665,l),
(315,0,l),
(364,0,l),
(502,715,l),
(292,715,ls),
(233,715,o),
(187,700,o),
(151,673,cs),
(107,640,o),
(80,589,o),
(80,524,cs),
(80,437,o),
(142,382,o),
(244,382,cs)
);
}
);
width = 475;
}
);
note = paragraph;
unicode = 182;
},
{
glyphname = germandbls;
kernLeft = germandbls;
kernRight = germandbls;
layers = (
{
hints = (
{
horizontal = 1;
place = (-5, 42);
place = (-5, 42);
type = Stem;
},
{
horizontal = 1;
place = (379, 41);
place = (379, 41);
type = Stem;
},
{
horizontal = 1;
place = (683, 40);
place = (683, 40);
type = Stem;
},
{
place = (378, 50);
place = (378, 50);
type = Stem;
},
{
horizontal = 1;
place = (0, 21);
target = up;
type = BottomGhost;
},
{
place = (401, 47);
place = (401, 47);
type = Stem;
}
);
layerId = m01;
shapes = (
{
closed = 1;
nodes = (
(343,-5,o),
(428,92,o),
(428,234,cs),
(428,309,o),
(388,373,o),
(330,397,c),
(330,399,l),
(396,423,o),
(448,478,o),
(448,570,cs),
(448,669,o),
(379,723,o),
(296,723,cs),
(199,723,o),
(127,659,o),
(106,556,cs),
(-1,0,l),
(47,0,l),
(154,551,ls),
(170,634,o),
(222,683,o),
(293,683,cs),
(357,683,o),
(401,639,o),
(401,569,cs),
(401,483,o),
(351,420,o),
(248,420,cs),
(216,420,l),
(208,379,l),
(245,379,ls),
(332,379,o),
(378,319,o),
(378,232,cs),
(378,113,o),
(314,38,o),
(208,37,cs),
(181,37,o),
(158,41,o),
(139,50,c),
(137,50,l),
(129,8,l),
(147,1,o),
(172,-5,o),
(206,-5,cs)
);
}
);
width = 461;
}
);
note = germandbls;
unicode = 223;
},
{
glyphname = registered;
layers = (
{
hints = (
{
horizontal = 1;
place = (244, 30);
place = (244, 30);
type = Stem;
},
{
horizontal = 1;
place = (470, 32);
place = (470, 32);
type = Stem;
},
{
horizontal = 1;
place = (588, 33);
place = (588, 33);
type = Stem;
},
{
horizontal = 1;
place = (698, 30);
place = (698, 30);
type = Stem;
},
{
place = (67, 36);
place = (67, 36);
type = Stem;
},
{
place = (211, 40);
place = (211, 40);
type = Stem;
},
{
place = (369, 40);
place = (369, 40);
type = Stem;
},
{
place = (505, 36);
place = (505, 36);
type = Stem;
}
);
layerId = m01;
shapes = (
{
closed = 1;
nodes = (
(437,244,o),
(541,346,o),
(541,486,cs),
(541,625,o),
(437,728,o),
(304,728,cs),
(171,728,o),
(67,625,o),
(67,486,cs),
(67,346,o),
(171,244,o),
(304,244,cs)
);
},
{
closed = 1;
nodes = (
(187,274,o),
(103,363,o),
(103,486,cs),
(103,608,o),
(187,698,o),
(304,698,cs),
(421,698,o),
(505,608,o),
(505,486,cs),
(505,363,o),
(421,274,o),
(304,274,cs)
);
},
{
closed = 1;
nodes = (
(211,359,l),
(251,359,l),
(251,470,l),
(309,470,ls),
(345,470,o),
(361,454,o),
(362,419,cs),
(364,385,o),
(366,362,o),
(373,359,c),
(412,359,l),
(412,361,l),
(405,365,o),
(405,387,o),
(401,426,cs),
(399,461,o),
(387,478,o),
(361,485,c),
(361,486,l),
(394,495,o),
(409,518,o),
(409,549,cs),
(409,592,o),
(377,621,o),
(329,621,cs),
(211,621,l)
);
},
{
closed = 1;
nodes = (
(251,588,l),
(321,588,ls),
(354,588,o),
(369,570,o),
(369,544,cs),
(369,518,o),
(352,502,o),
(320,502,cs),
(251,502,l)
);
}
);
width = 520;
}
);
note = registered;
unicode = 174;
},
{
glyphname = copyright;
kernLeft = copyright;
kernRight = copyright;
layers = (
{
hints = (
{
horizontal = 1;
place = (-17, 32);
place = (-17, 32);
type = Stem;
},
{
horizontal = 1;
place = (122, 43);
place = (122, 43);
type = Stem;
},
{
horizontal = 1;
place = (548, 43);
place = (548, 43);
type = Stem;
},
{
horizontal = 1;
place = (696, 32);
place = (696, 32);
type = Stem;
},
{
place = (55, 40);
place = (55, 40);
type = Stem;
},
{
place = (217, 52);
place = (217, 52);
type = Stem;
},
{
place = (555, 49);
place = (555, 49);
type = Stem;
},
{
place = (743, 40);
place = (743, 40);
type = Stem;
}
);
layerId = m01;
shapes = (
{
closed = 1;
nodes = (
(623,-17,o),
(783,141,o),
(783,355,cs),
(783,569,o),
(623,728,o),
(419,728,cs),
(215,728,o),
(55,569,o),
(55,355,cs),
(55,141,o),
(215,-17,o),
(419,-17,cs)
);
},
{
closed = 1;
nodes = (
(232,15,o),
(95,159,o),
(95,355,cs),
(95,551,o),
(232,696,o),
(419,696,cs),
(606,696,o),
(743,551,o),
(743,355,cs),
(743,159,o),
(606,15,o),
(419,15,cs)
);
},
{
closed = 1;
nodes = (
(480,122,o),
(527,143,o),
(558,177,cs),
(585,206,o),
(601,247,o),
(604,290,c),
(555,290,l),
(548,218,o),
(502,165,o),
(421,165,cs),
(322,165,o),
(269,246,o),
(269,355,cs),
(269,462,o),
(320,548,o),
(423,548,cs),
(492,548,o),
(536,509,o),
(547,452,c),
(597,452,l),
(582,536,o),
(519,591,o),
(423,591,cs),
(295,591,o),
(217,492,o),
(217,355,cs),
(217,218,o),
(299,122,o),
(421,122,cs)
);
}
);
width = 799;
}
);
note = copyright;
unicode = 169;
},
{
glyphname = trademark;
layers = (
{
hints = (
{
horizontal = 1;
place = (429, 50);
place = (429, 50);
type = Stem;
},
{
horizontal = 1;
place = (679, 36);
place = (679, 36);
type = Stem;
},
{
place = (114, 549);
place = (114, 549);
type = Stem;
}
);
layerId = m01;
shapes = (
{
closed = 1;
nodes = (
(336,429,l),
(373,429,l),
(419,668,l),
(421,668,l),
(421,668,o),
(427,615,o),
(433,569,cs),
(452,429,l),
(492,429,l),
(565,569,ls),
(589,615,o),
(614,668,o),
(614,668,c),
(616,668,l),
(570,429,l),
(608,429,l),
(663,715,l),
(603,715,l),
(482,479,l),
(481,479,l),
(448,715,l),
(391,715,l)
);
},
{
closed = 1;
nodes = (
(114,679,l),
(206,679,l),
(158,429,l),
(197,429,l),
(245,679,l),
(337,679,l),
(344,715,l),
(121,715,l)
);
}
);
width = 624;
}
);
note = trademark;
unicode = 8482;
},
{
glyphname = acute;
layers = (
{
hints = (
{
horizontal = 1;
place = (588, 127);
place = (588, 127);
type = Stem;
},
{
place = (273, 143);
place = (273, 143);
type = Stem;
}
);
layerId = m01;
shapes = (
{
closed = 1;
nodes = (
(273,588,l),
(316,588,l),
(416,715,l),
(348,715,l)
);
}
);
width = 492;
}
);
note = acute;
unicode = 180;
},
{
glyphname = dieresis;
layers = (
{
hints = (
{
horizontal = 1;
place = (635, 80);
place = (635, 80);
type = Stem;
},
{
place = (230, 213);
place = (230, 213);
type = Stem;
}
);
layerId = m01;
shapes = (
{
closed = 1;
nodes = (
(230,635,l),
(279,635,l),
(294,715,l),
(245,715,l)
);
},
{
closed = 1;
nodes = (
(379,635,l),
(428,635,l),
(443,715,l),
(394,715,l)
);
}
);
width = 512;
}
);
note = dieresis;
unicode = 168;
},
{
glyphname = notequal;
layers = (
{
hints = (
{
horizontal = 1;
place = (212, 45);
place = (212, 45);
type = Stem;
},
{
horizontal = 1;
place = (362, 45);
place = (362, 45);
type = Stem;
},
{
place = (46, 430);
place = (46, 430);
type = Stem;
},
{
horizontal = 1;
place = (362, 163);
place = (362, 163);
type = Stem;
}
);
layerId = m01;
shapes = (
{
closed = 1;
nodes = (
(75,362,l),
(268,362,l),
(207,257,l),
(55,257,l),
(46,212,l),
(181,212,l),
(110,88,l),
(158,88,l),
(229,212,l),
(438,212,l),
(447,257,l),
(255,257,l),
(316,362,l),
(467,362,l),
(476,407,l),
(342,407,l),
(410,525,l),
(362,525,l),
(294,407,l),
(85,407,l)
);
}
);
width = 502;
}
);
note = notequal;
unicode = 8800;
},
{
glyphname = AE;
kernLeft = AE;
kernRight = E;
layers = (
{
hints = (
{
horizontal = 1;
place = (0, 47);
place = (0, 47);
type = Stem;
},
{
horizontal = 1;
place = (230, 43);
place = (230, 43);
type = Stem;
},
{
horizontal = 1;
place = (347, 44);
place = (347, 44);
type = Stem;
},
{
horizontal = 1;
place = (670, 45);
place = (670, 45);
type = Stem;
},
{
place = (-43, 991);
place = (-43, 991);
type = Stem;
}
);
layerId = m01;
shapes = (
{
closed = 1;
nodes = (
(398,0,l),
(834,0,l),
(843,47,l),
(458,47,l),
(516,347,l),
(855,347,l),
(864,391,l),
(525,391,l),
(579,670,l),
(940,670,l),
(948,715,l),
(387,715,l),
(-43,0,l),
(11,0,l),
(149,230,l),
(442,230,l)
);
},
{
closed = 1;
nodes = (
(414,670,l),
(527,670,l),
(451,273,l),
(175,273,l)
);
}
);
width = 920;
}
);
note = AE;
unicode = 198;
},
{
glyphname = Oslash;
kernLeft = C;
kernRight = O;
layers = (
{
hints = (
{
horizontal = 1;
place = (-13, 46);
place = (-13, 46);
type = Stem;
},
{
horizontal = 1;
place = (683, 46);
place = (683, 46);
type = Stem;
},
{
place = (45, 54);
place = (45, 54);
type = Stem;
},
{
place = (627, 54);
place = (627, 54);
type = Stem;
}
);
layerId = m01;
shapes = (
{
closed = 1;
nodes = (
(45,-16,l),
(124,72,l),
(175,18,o),
(246,-13,o),
(328,-13,cs),
(563,-13,o),
(681,207,o),
(681,419,cs),
(681,502,o),
(657,572,o),
(617,624,c),
(686,702,l),
(657,729,l),
(590,654,l),
(540,702,o),
(472,729,o),
(396,729,cs),
(170,729,o),
(45,507,o),
(45,295,cs),
(45,218,o),
(64,153,o),
(98,103,c),
(16,11,l)
);
},
{
closed = 1;
nodes = (
(627,226,o),
(526,33,o),
(330,33,cs),
(255,33,o),
(197,62,o),
(157,110,c),
(582,585,l),
(611,541,o),
(627,483,o),
(627,419,cs)
);
},
{
closed = 1;
nodes = (
(99,491,o),
(199,683,o),
(394,683,cs),
(462,683,o),
(517,658,o),
(557,617,c),
(134,143,l),
(111,185,o),
(99,237,o),
(99,295,cs)
);
}
);
width = 689;
}
);
note = Oslash;
unicode = 216;
},
{
glyphname = infinity;
layers = (
{
hints = (
{
horizontal = 1;
place = (134, 42);
place = (134, 42);
type = Stem;
},
{
horizontal = 1;
place = (434, 41);
place = (434, 41);
type = Stem;
},
{
place = (44, 50);
place = (44, 50);
type = Stem;
},
{
place = (633, 50);
place = (633, 50);
type = Stem;
}
);
layerId = m01;
shapes = (
{
closed = 1;
nodes = (
(276,134,o),
(325,194,o),
(366,261,c),
(407,194,o),
(453,134,o),
(532,134,cs),
(626,134,o),
(683,203,o),
(683,305,cs),
(683,406,o),
(626,475,o),
(532,475,cs),
(453,475,o),
(407,415,o),
(366,348,c),
(325,415,o),
(276,475,o),
(194,475,cs),
(92,475,o),
(44,396,o),
(44,305,cs),
(44,213,o),
(92,134,o),
(194,134,cs)
);
},
{
closed = 1;
nodes = (
(261,434,o),
(301,372,o),
(341,304,c),
(301,237,o),
(261,176,o),
(194,176,cs),
(125,176,o),
(94,234,o),
(94,305,cs),
(94,375,o),
(125,434,o),
(194,434,cs)
);
},
{
closed = 1;
nodes = (
(469,176,o),
(432,237,o),
(392,304,c),
(432,372,o),
(469,434,o),
(532,434,cs),
(601,434,o),
(633,375,o),
(633,305,cs),
(633,234,o),
(601,176,o),
(532,176,cs)
);
}
);
width = 715;
}
);
note = infinity;
unicode = 8734;
},
{
glyphname = plusminus;
layers = (
{
hints = (
{
horizontal = 1;
place = (0, 45);
place = (0, 45);
type = Stem;
},
{
horizontal = 1;
place = (314, 45);
place = (314, 45);
type = Stem;
},
{
place = (5, 461);
place = (5, 461);
type = Stem;
}
);
layerId = m01;
shapes = (
{
closed = 1;
nodes = (
(65,314,l),
(236,314,l),
(201,134,l),
(251,134,l),
(286,314,l),
(457,314,l),
(466,359,l),
(295,359,l),
(330,536,l),
(280,536,l),
(245,359,l),
(74,359,l)
);
},
{
closed = 1;
nodes = (
(5,0,l),
(397,0,l),
(405,45,l),
(13,45,l)
);
}
);
width = 502;
}
);
note = plusminus;
unicode = 177;
},
{
glyphname = lessequal;
layers = (
{
hints = (
{
horizontal = 1;
place = (0, 45);
place = (0, 45);
type = Stem;
},
{
place = (-1, 479);
place = (-1, 479);
type = Stem;
}
);
layerId = m01;
shapes = (
{
closed = 1;
nodes = (
(-1,0,l),
(380,0,l),
(388,45,l),
(7,45,l)
);
},
{
closed = 1;
nodes = (
(402,117,l),
(412,164,l),
(102,311,l),
(102,313,l),
(468,455,l),
(478,506,l),
(65,344,l),
(54,287,l)
);
}
);
width = 483;
}
);
note = lessequal;
unicode = 8804;
},
{
glyphname = greaterequal;
layers = (
{
hints = (
{
horizontal = 1;
place = (0, 45);
place = (0, 45);
type = Stem;
},
{
place = (3, 446);
place = (3, 446);
type = Stem;
}
);
layerId = m01;
shapes = (
{
closed = 1;
nodes = (
(3,0,l),
(384,0,l),
(392,45,l),
(11,45,l)
);
},
{
closed = 1;
nodes = (
(101,506,l),
(91,459,l),
(401,312,l),
(401,310,l),
(35,168,l),
(25,117,l),
(438,279,l),
(449,336,l)
);
}
);
width = 483;
}
);
note = greaterequal;
unicode = 8805;
},
{
glyphname = yen;
layers = (
{
hints = (
{
horizontal = 1;
place = (0, 21);
target = up;
type = BottomGhost;
},
{
horizontal = 1;
place = (170, 40);
place = (170, 40);
type = Stem;
},
{
horizontal = 1;
place = (286, 40);
place = (286, 40);
type = Stem;
},
{
horizontal = 1;
place = (686, -20);
target = down;
type = TopGhost;
},
{
place = (39, 544);
place = (39, 544);
type = Stem;
}
);
layerId = m01;
shapes = (
{
closed = 1;
nodes = (
(62,286,l),
(240,286,l),
(225,210,l),
(47,210,l),
(39,170,l),
(218,170,l),
(185,0,l),
(234,0,l),
(267,170,l),
(444,170,l),
(452,210,l),
(274,210,l),
(289,286,l),
(467,286,l),
(475,326,l),
(309,326,l),
(583,686,l),
(526,686,l),
(278,354,l),
(276,354,l),
(149,686,l),
(95,686,l),
(237,326,l),
(70,326,l)
);
}
);
width = 512;
}
);
note = yen;
unicode = 165;
},
{
glyphname = mu;
layers = (
{
hints = (
{
horizontal = 1;
place = (-166, 21);
target = up;
type = BottomGhost;
},
{
horizontal = 1;
place = (-12, 41);
place = (-12, 41);
type = Stem;
},
{
horizontal = 1;
place = (517, -20);
target = down;
type = TopGhost;
},
{
place = (57, 16);
place = (57, 16);
type = Stem;
},
{
horizontal = 1;
place = (0, 21);
target = up;
type = BottomGhost;
}
);
layerId = m01;
shapes = (
{
closed = 1;
nodes = (
(244,-12,o),
(295,35,o),
(337,87,c),
(339,87,l),
(322,0,l),
(370,0,l),
(470,517,l),
(422,517,l),
(364,216,ls),
(344,111,o),
(263,29,o),
(163,29,cs),
(88,29,o),
(62,77,o),
(77,156,cs),
(147,517,l),
(99,517,l),
(-34,-166,l),
(14,-166,l),
(55,42,l),
(57,42,l),
(75,1,o),
(114,-12,o),
(156,-12,cs)
);
}
);
width = 465;
}
);
note = mu;
unicode = 181;
},
{
glyphname = partialdiff;
layers = (
{
hints = (
{
horizontal = 1;
place = (-12, 42);
place = (-12, 42);
type = Stem;
},
{
horizontal = 1;
place = (439, 44);
place = (439, 44);
type = Stem;
},
{
horizontal = 1;
place = (720, -20);
target = down;
type = TopGhost;
},
{
place = (25, 54);
place = (25, 54);
type = Stem;
},
{
place = (406, 54);
place = (406, 54);
type = Stem;
}
);
layerId = m01;
shapes = (
{
closed = 1;
nodes = (
(373,455,o),
(316,483,o),
(250,483,cs),
(119,483,o),
(25,371,o),
(25,214,cs),
(25,84,o),
(102,-12,o),
(230,-12,cs),
(381,-12,o),
(460,117,o),
(460,307,cs),
(460,483,o),
(388,694,o),
(118,720,c),
(118,677,l),
(318,654,o),
(384,515,o),
(406,396,c)
);
},
{
closed = 1;
nodes = (
(79,347,o),
(143,439,o),
(250,439,cs),
(351,439,o),
(406,363,o),
(406,264,cs),
(406,140,o),
(342,30,o),
(230,30,cs),
(120,30,o),
(79,127,o),
(79,215,cs)
);
}
);
width = 495;
}
);
note = partialdiff;
unicode = 8706;
},
{
glyphname = summation;
layers = (
{
hints = (
{
horizontal = 1;
place = (-100, 45);
place = (-100, 45);
type = Stem;
},
{
horizontal = 1;
place = (669, 46);
place = (669, 46);
type = Stem;
},
{
place = (88, 63);
place = (88, 63);
type = Stem;
},
{
place = (403, 51);
place = (403, 51);
type = Stem;
}
);
layerId = m01;
shapes = (
{
closed = 1;
nodes = (
(584,-100,l),
(584,-55,l),
(151,-55,l),
(151,-53,l),
(454,314,l),
(454,345,l),
(151,667,l),
(151,669,l),
(584,669,l),
(584,715,l),
(88,715,l),
(88,663,l),
(403,329,l),
(403,327,l),
(88,-60,l),
(88,-100,l)
);
}
);
width = 624;
}
);
note = summation;
unicode = 8721;
},
{
glyphname = product;
layers = (
{
hints = (
{
horizontal = 1;
place = (668, 47);
place = (668, 47);
type = Stem;
},
{
place = (95, 52);
place = (95, 52);
type = Stem;
},
{
place = (545, 52);
place = (545, 52);
type = Stem;
}
);
layerId = m01;
shapes = (
{
closed = 1;
nodes = (
(545,668,l),
(545,-100,l),
(597,-100,l),
(597,715,l),
(95,715,l),
(95,-100,l),
(147,-100,l),
(147,668,l)
);
}
);
width = 656;
}
);
note = product;
unicode = 8719;
},
{
glyphname = pi;
layers = (
{
hints = (
{
horizontal = 1;
place = (-4, 41);
place = (-4, 41);
type = Stem;
},
{
horizontal = 1;
place = (477, 40);
place = (477, 40);
type = Stem;
},
{
place = (355, 50);
place = (355, 50);
type = Stem;
},
{
horizontal = 1;
place = (0, 21);
target = up;
type = BottomGhost;
}
);
layerId = m01;
shapes = (
{
closed = 1;
nodes = (
(479,477,l),
(559,477,l),
(567,517,l),
(68,517,l),
(60,477,l),
(140,477,l),
(48,0,l),
(97,0,l),
(189,477,l),
(431,477,l),
(358,99,ls),
(346,38,o),
(369,-4,o),
(436,-4,cs),
(452,-4,o),
(470,-1,o),
(480,3,c),
(488,44,l),
(485,44,l),
(475,40,o),
(457,37,o),
(442,37,cs),
(408,37,o),
(398,55,o),
(405,93,cs)
);
}
);
width = 550;
}
);
note = pi;
unicode = 960;
},
{
glyphname = integral;
layers = (
{
hints = (
{
horizontal = 1;
place = (-176, 43);
place = (-176, 43);
type = Stem;
},
{
horizontal = 1;
place = (698, 43);
place = (698, 43);
type = Stem;
},
{
place = (164, 49);
place = (164, 49);
type = Stem;
},
{
horizontal = 1;
place = (730, -20);
target = down;
type = TopGhost;
},
{
horizontal = 1;
place = (-165, 21);
target = up;
type = BottomGhost;
}
);
layerId = m01;
shapes = (
{
closed = 1;
nodes = (
(213,622,ls),
(213,674,o),
(241,698,o),
(280,698,cs),
(298,698,o),
(319,693,o),
(330,687,c),
(333,687,l),
(333,730,l),
(314,738,o),
(296,741,o),
(275,741,cs),
(211,741,o),
(164,697,o),
(164,621,cs),
(164,-57,ls),
(164,-109,o),
(136,-133,o),
(97,-133,cs),
(79,-133,o),
(58,-128,o),
(47,-122,c),
(44,-122,l),
(44,-165,l),
(63,-173,o),
(81,-176,o),
(102,-176,cs),
(166,-176,o),
(213,-132,o),
(213,-56,cs)
);
}
);
width = 369;
}
);
note = integral;
unicode = 8747;
},
{
glyphname = ordfeminine;
layers = (
{
hints = (
{
horizontal = 1;
place = (233, 41);
place = (233, 41);
type = Stem;
},
{
horizontal = 1;
place = (659, 40);
place = (659, 40);
type = Stem;
},
{
place = (57, 51);
place = (57, 51);
type = Stem;
},
{
place = (395, 48);
place = (395, 48);
type = Stem;
},
{
horizontal = 1;
place = (228, 40);
place = (228, 40);
type = Stem;
}
);
layerId = m01;
shapes = (
{
closed = 1;
nodes = (
(417,233,o),
(425,235,o),
(433,238,c),
(440,274,l),
(437,274,l),
(403,266,o),
(388,278,o),
(394,314,cs),
(439,537,ls),
(463,657,o),
(385,699,o),
(292,699,cs),
(190,699,o),
(123,645,o),
(107,559,c),
(155,559,l),
(170,626,o),
(216,659,o),
(291,659,cs),
(349,659,o),
(395,637,o),
(395,578,cs),
(395,545,o),
(386,527,o),
(365,517,cs),
(335,503,o),
(281,502,o),
(205,495,cs),
(116,484,o),
(57,440,o),
(57,352,cs),
(57,276,o),
(120,228,o),
(201,228,cs),
(278,228,o),
(320,266,o),
(343,299,c),
(346,299,l),
(341,267,o),
(355,233,o),
(403,233,cs)
);
},
{
closed = 1;
nodes = (
(108,417,o),
(141,446,o),
(206,456,cs),
(272,465,o),
(333,462,o),
(380,481,c),
(364,401,ls),
(349,331,o),
(303,268,o),
(207,268,cs),
(148,268,o),
(109,301,o),
(108,354,cs)
);
}
);
width = 456;
}
);
note = ordfeminine;
unicode = 170;
},
{
glyphname = ordmasculine;
layers = (
{
hints = (
{
horizontal = 1;
place = (228, 41);
place = (228, 41);
type = Stem;
},
{
horizontal = 1;
place = (660, 39);
place = (660, 39);
type = Stem;
},
{
place = (64, 50);
place = (64, 50);
type = Stem;
},
{
place = (417, 50);
place = (417, 50);
type = Stem;
}
);
layerId = m01;
shapes = (
{
closed = 1;
nodes = (
(394,228,o),
(467,376,o),
(467,506,cs),
(467,624,o),
(393,699,o),
(290,699,cs),
(137,699,o),
(64,550,o),
(64,418,cs),
(64,299,o),
(140,228,o),
(243,228,cs)
);
},
{
closed = 1;
nodes = (
(114,533,o),
(170,660,o),
(288,660,cs),
(379,660,o),
(417,585,o),
(417,503,cs),
(417,391,o),
(361,269,o),
(244,269,cs),
(155,269,o),
(114,336,o),
(114,421,cs)
);
}
);
width = 452;
}
);
note = ordmasculine;
unicode = 186;
},
{
glyphname = Omega;
layers = (
{
hints = (
{
horizontal = 1;
place = (0, 45);
place = (0, 45);
type = Stem;
},
{
horizontal = 1;
place = (683, 46);
place = (683, 46);
type = Stem;
},
{
place = (46, 55);
place = (46, 55);
type = Stem;
},
{
place = (619, 55);
place = (619, 55);
type = Stem;
}
);
layerId = m01;
shapes = (
{
closed = 1;
nodes = (
(101,477,o),
(185,683,o),
(392,683,cs),
(528,683,o),
(619,588,o),
(619,436,cs),
(619,248,o),
(530,105,o),
(354,47,c),
(345,0,l),
(599,0,l),
(608,45,l),
(448,45,l),
(448,47,l),
(593,117,o),
(674,259,o),
(674,436,cs),
(674,601,o),
(570,729,o),
(394,729,cs),
(172,729,o),
(46,517,o),
(46,319,cs),
(46,198,o),
(98,100,o),
(172,47,c),
(172,45,l),
(3,45,l),
(-6,0,l),
(234,0,l),
(243,50,l),
(156,95,o),
(101,196,o),
(101,320,cs)
);
}
);
width = 679;
}
);
note = Omega;
unicode = 8486;
},
{
glyphname = ae;
kernLeft = a;
kernRight = e;
layers = (
{
hints = (
{
horizontal = 1;
place = (-13, 42);
place = (-13, 42);
type = Stem;
},
{
horizontal = 1;
place = (253, 40);
place = (253, 40);
type = Stem;
},
{
horizontal = 1;
place = (487, 41);
place = (487, 41);
type = Stem;
},
{
place = (-1, 50);
place = (-1, 50);
type = Stem;
},
{
place = (385, 39);
place = (385, 39);
type = Stem;
},
{
place = (747, 47);
place = (747, 47);
type = Stem;
}
);
layerId = m01;
shapes = (
{
closed = 1;
nodes = (
(144,528,o),
(73,468,o),
(54,370,c),
(103,370,l),
(120,449,o),
(171,487,o),
(258,487,cs),
(328,487,o),
(385,461,o),
(385,390,cs),
(385,348,o),
(372,326,o),
(344,314,cs),
(306,298,o),
(243,303,o),
(156,292,cs),
(57,279,o),
(-1,221,o),
(-1,129,cs),
(-1,38,o),
(77,-13,o),
(161,-13,cs),
(241,-13,o),
(330,18,o),
(371,132,c),
(390,40,o),
(455,-13,o),
(554,-13,cs),
(658,-13,o),
(736,46,o),
(770,154,c),
(722,154,l),
(697,81,o),
(640,29,o),
(557,29,cs),
(447,29,o),
(404,106,o),
(404,205,cs),
(404,221,o),
(405,237,o),
(407,253,c),
(787,253,l),
(799,324,o),
(802,418,o),
(748,477,cs),
(717,511,o),
(677,528,o),
(617,528,cs),
(529,528,o),
(465,482,o),
(424,418,c),
(411,497,o),
(343,528,o),
(259,528,cs)
);
},
{
closed = 1;
nodes = (
(48,198,o),
(78,238,o),
(158,252,cs),
(230,265,o),
(306,258,o),
(366,282,c),
(346,181,ls),
(330,100,o),
(280,27,o),
(166,27,cs),
(99,27,o),
(50,66,o),
(49,129,cs)
);
},
{
closed = 1;
nodes = (
(723,487,o),
(759,400,o),
(743,293,c),
(414,293,l),
(437,394,o),
(503,487,o),
(615,487,cs)
);
}
);
width = 811;
}
);
note = ae;
unicode = 230;
},
{
glyphname = oslash;
kernLeft = c;
kernRight = o;
layers = (
{
hints = (
{
horizontal = 1;
place = (-13, 41);
place = (-13, 41);
type = Stem;
},
{
horizontal = 1;
place = (488, 40);
place = (488, 40);
type = Stem;
},
{
place = (22, 49);
place = (22, 49);
type = Stem;
},
{
place = (429, 49);
place = (429, 49);
type = Stem;
},
{
horizontal = 1;
place = (528, -20);
target = down;
type = TopGhost;
},
{
horizontal = 1;
place = (-13, 21);
target = up;
type = BottomGhost;
}
);
layerId = m01;
shapes = (
{
closed = 1;
nodes = (
(398,-13,o),
(478,163,o),
(478,308,cs),
(478,362,o),
(463,409,o),
(438,446,c),
(490,506,l),
(464,530,l),
(414,474,l),
(379,508,o),
(332,528,o),
(278,528,cs),
(100,528,o),
(22,350,o),
(22,203,cs),
(22,151,o),
(35,106,o),
(59,71,c),
(4,9,l),
(30,-15,l),
(81,43,l),
(117,7,o),
(167,-13,o),
(224,-13,cs)
);
},
{
closed = 1;
nodes = (
(429,176,o),
(364,28,o),
(225,28,cs),
(174,28,o),
(136,46,o),
(111,77,c),
(406,410,l),
(421,379,o),
(429,342,o),
(429,304,cs)
);
},
{
closed = 1;
nodes = (
(71,338,o),
(136,488,o),
(276,488,cs),
(325,488,o),
(361,470,o),
(385,441,c),
(91,108,l),
(78,137,o),
(71,171,o),
(71,208,cs)
);
}
);
width = 500;
}
);
note = oslash;
unicode = 248;
},
{
glyphname = questiondown;
kernRight = questiondown;
layers = (
{
hints = (
{
horizontal = 1;
place = (-140, 45);
place = (-140, 45);
type = Stem;
},
{
horizontal = 1;
place = (509, 79);
place = (509, 79);
type = Stem;
},
{
place = (-5, 53);
place = (-5, 53);
type = Stem;
}
);
layerId = m01;
shapes = (
{
closed = 1;
nodes = (
(257,415,l),
(238,310,o),
(207,280,o),
(142,233,cs),
(57,171,o),
(-5,122,o),
(-5,19,cs),
(-5,-89,o),
(81,-140,o),
(172,-140,cs),
(309,-140,o),
(393,-45,o),
(409,71,c),
(357,71,l),
(338,-35,o),
(270,-95,o),
(177,-95,cs),
(106,-95,o),
(48,-56,o),
(48,19,cs),
(48,109,o),
(108,152,o),
(170,197,cs),
(251,256,o),
(283,287,o),
(306,415,c)
);
},
{
closed = 1;
nodes = (
(344,588,l),
(284,588,l),
(269,509,l),
(329,509,l)
);
}
);
width = 479;
}
);
note = questiondown;
unicode = 191;
},
{
glyphname = exclamdown;
kernRight = exclamdown;
layers = (
{
hints = (
{
horizontal = 1;
place = (509, 79);
place = (509, 79);
type = Stem;
},
{
place = (-5, 195);
place = (-5, 195);
type = Stem;
}
);
layerId = m01;
shapes = (
{
closed = 1;
nodes = (
(144,415,l),
(110,415,l),
(40,108,l),
(-5,-127,l),
(49,-127,l),
(93,102,l)
);
},
{
closed = 1;
nodes = (
(190,588,l),
(130,588,l),
(115,509,l),
(175,509,l)
);
}
);
width = 194;
}
);
note = exclamdown;
unicode = 161;
},
{
glyphname = logicalnot;
layers = (
{
hints = (
{
horizontal = 1;
place = (326, 45);
place = (326, 45);
type = Stem;
},
{
place = (68, 381);
place = (68, 381);
type = Stem;
}
);
layerId = m01;
shapes = (
{
closed = 1;
nodes = (
(68,326,l),
(391,326,l),
(354,135,l),
(403,135,l),
(449,371,l),
(77,371,l)
);
}
);
width = 502;
}
);
note = logicalnot;
unicode = 172;
},
{
glyphname = radical;
layers = (
{
hints = (
{
horizontal = 1;
place = (-100, 56);
place = (-100, 56);
type = Stem;
},
{
horizontal = 1;
place = (260, 44);
place = (260, 44);
type = Stem;
},
{
horizontal = 1;
place = (715, -20);
target = down;
type = TopGhost;
},
{
place = (32, 531);
place = (32, 531);
type = Stem;
}
);
layerId = m01;
shapes = (
{
closed = 1;
nodes = (
(32,260,l),
(107,260,l),
(252,-100,l),
(307,-100,l),
(563,715,l),
(513,715,l),
(318,92,ls),
(300,36,o),
(280,-44,o),
(280,-44,c),
(278,-44,l),
(278,-44,o),
(254,31,o),
(232,87,cs),
(147,304,l),
(32,304,l)
);
}
);
width = 539;
}
);
note = radical;
unicode = 8730;
},
{
glyphname = florin;
layers = (
{
hints = (
{
horizontal = 1;
place = (-148, 43);
place = (-148, 43);
type = Stem;
},
{
horizontal = 1;
place = (355, 41);
place = (355, 41);
type = Stem;
},
{
horizontal = 1;
place = (642, 43);
place = (642, 43);
type = Stem;
},
{
place = (-44, 401);
place = (-44, 401);
type = Stem;
}
);
layerId = m01;
shapes = (
{
closed = 1;
nodes = (
(62,355,l),
(144,355,l),
(53,-44,ls),
(44,-86,o),
(19,-105,o),
(-20,-105,cs),
(-36,-105,l),
(-44,-148,l),
(-13,-148,ls),
(48,-148,o),
(84,-121,o),
(101,-48,cs),
(193,355,l),
(296,355,l),
(303,396,l),
(202,396,l),
(243,574,ls),
(254,618,o),
(266,642,o),
(306,642,cs),
(349,642,l),
(357,685,l),
(303,685,ls),
(241,685,o),
(211,648,o),
(195,578,cs),
(153,396,l),
(69,396,l)
);
}
);
width = 324;
}
);
note = florin;
unicode = 402;
},
{
glyphname = approxequal;
layers = (
{
hints = (
{
horizontal = 1;
place = (187, 46);
place = (187, 46);
type = Stem;
},
{
horizontal = 1;
place = (332, 46);
place = (332, 46);
type = Stem;
},
{
place = (41, 438);
place = (41, 438);
type = Stem;
},
{
horizontal = 1;
place = (384, 46);
place = (384, 46);
type = Stem;
},
{
horizontal = 1;
place = (239, 46);
place = (239, 46);
type = Stem;
}
);
layerId = m01;
shapes = (
{
closed = 1;
nodes = (
(427,332,o),
(467,367,o),
(479,434,c),
(434,434,l),
(427,397,o),
(403,378,o),
(366,378,cs),
(302,378,o),
(234,430,o),
(172,430,cs),
(114,430,o),
(75,395,o),
(62,328,c),
(107,328,l),
(114,364,o),
(137,384,o),
(169,384,cs),
(220,384,o),
(295,332,o),
(364,332,cs)
);
},
{
closed = 1;
nodes = (
(406,187,o),
(446,222,o),
(458,289,c),
(413,289,l),
(405,252,o),
(382,233,o),
(345,233,cs),
(281,233,o),
(213,285,o),
(151,285,cs),
(93,285,o),
(54,250,o),
(41,183,c),
(86,183,l),
(93,219,o),
(116,239,o),
(148,239,cs),
(199,239,o),
(274,187,o),
(343,187,cs)
);
}
);
width = 502;
}
);
note = approxequal;
unicode = 8776;
},
{
glyphname = Delta;
layers = (
{
hints = (
{
horizontal = 1;
place = (0, 44);
place = (0, 44);
type = Stem;
},
{
horizontal = 1;
place = (668, 47);
place = (668, 47);
type = Stem;
},
{
place = (-28, 577);
place = (-28, 577);
type = Stem;
}
);
layerId = m01;
shapes = (
{
closed = 1;
nodes = (
(-28,0,l),
(542,0,l),
(549,41,l),
(411,715,l),
(352,715,l),
(-21,41,l)
);
},
{
closed = 1;
nodes = (
(318,560,ls),
(345,608,o),
(372,668,o),
(372,668,c),
(374,668,l),
(374,668,o),
(385,603,o),
(394,560,cs),
(498,44,l),
(34,44,l)
);
}
);
width = 614;
}
);
note = Delta;
unicode = 8710;
},
{
glyphname = guillemotleft;
kernLeft = guillemotleft;
kernRight = guillemotleft;
layers = (
{
hints = (
{
horizontal = 1;
place = (126, 291);
place = (126, 291);
type = Stem;
},
{
place = (56, 312);
place = (56, 312);
type = Stem;
}
);
layerId = m01;
shapes = (
{
closed = 1;
nodes = (
(312,126,l),
(323,185,l),
(247,272,l),
(247,274,l),
(355,351,l),
(368,417,l),
(225,308,l),
(212,242,l)
);
},
{
closed = 1;
nodes = (
(156,126,l),
(167,185,l),
(92,272,l),
(92,274,l),
(199,351,l),
(212,417,l),
(69,308,l),
(56,242,l)
);
}
);
width = 396;
}
);
note = guillemotleft;
unicode = 171;
},
{
glyphname = guillemotright;
kernLeft = guillemotright;
kernRight = guillemotright;
layers = (
{
hints = (
{
horizontal = 1;
place = (126, 291);
place = (126, 291);
type = Stem;
},
{
place = (33, 312);
place = (33, 312);
type = Stem;
}
);
layerId = m01;
shapes = (
{
closed = 1;
nodes = (
(89,417,l),
(78,358,l),
(154,271,l),
(154,269,l),
(46,192,l),
(33,126,l),
(176,235,l),
(189,301,l)
);
},
{
closed = 1;
nodes = (
(245,417,l),
(234,358,l),
(309,271,l),
(309,269,l),
(202,192,l),
(189,126,l),
(332,235,l),
(345,301,l)
);
}
);
width = 396;
}
);
note = guillemotright;
unicode = 187;
},
{
glyphname = ellipsis;
kernLeft = comma;
kernRight = comma;
layers = (
{
hints = (
{
horizontal = 1;
place = (0, 79);
place = (0, 79);
type = Stem;
},
{
place = (-10, 75);
place = (-10, 75);
type = Stem;
},
{
place = (170, 75);
place = (170, 75);
type = Stem;
},
{
place = (350, 75);
place = (350, 75);
type = Stem;
}
);
layerId = m01;
shapes = (
{
closed = 1;
nodes = (
(-10,0,l),
(50,0,l),
(65,79,l),
(5,79,l)
);
},
{
closed = 1;
nodes = (
(350,0,l),
(410,0,l),
(425,79,l),
(365,79,l)
);
},
{
closed = 1;
nodes = (
(170,0,l),
(230,0,l),
(245,79,l),
(185,79,l)
);
}
);
width = 501;
}
);
note = ellipsis;
unicode = 8230;
},
{
glyphname = Agrave;
kernLeft = A;
kernRight = A;
layers = (
{
hints = (
{
horizontal = 1;
place = (0, 21);
target = up;
type = BottomGhost;
},
{
horizontal = 1;
place = (230, 43);
place = (230, 43);
type = Stem;
},
{
horizontal = 1;
place = (664, 51);
place = (664, 51);
type = Stem;
},
{
horizontal = 1;
place = (753, 110);
place = (753, 110);
type = Stem;
},
{
place = (-45, 589);
place = (-45, 589);
type = Stem;
}
);
layerId = m01;
shapes = (
{
closed = 1;
nodes = (
(492,0,l),
(544,0,l),
(399,715,l),
(340,715,l),
(-45,0,l),
(7,0,l),
(131,230,l),
(446,230,l)
);
},
{
closed = 1;
nodes = (
(306,556,ls),
(332,604,o),
(360,664,o),
(360,664,c),
(362,664,l),
(362,664,o),
(373,598,o),
(381,557,cs),
(437,273,l),
(154,273,l)
);
},
{
closed = 1;
nodes = (
(399,753,l),
(353,863,l),
(287,863,l),
(356,753,l)
);
}
);
width = 602;
}
);
note = Agrave;
unicode = 192;
},
{
glyphname = Atilde;
kernLeft = A;
kernRight = A;
layers = (
{
hints = (
{
horizontal = 1;
place = (0, 21);
target = up;
type = BottomGhost;
},
{
horizontal = 1;
place = (230, 43);
place = (230, 43);
type = Stem;
},
{
horizontal = 1;
place = (664, 51);
place = (664, 51);
type = Stem;
},
{
horizontal = 1;
place = (760, 43);
place = (760, 43);
type = Stem;
},
{
place = (-45, 589);
place = (-45, 589);
type = Stem;
},
{
horizontal = 1;
place = (803, 43);
place = (803, 43);
type = Stem;
}
);
layerId = m01;
shapes = (
{
closed = 1;
nodes = (
(492,0,l),
(544,0,l),
(399,715,l),
(340,715,l),
(-45,0,l),
(7,0,l),
(131,230,l),
(446,230,l)
);
},
{
closed = 1;
nodes = (
(306,556,ls),
(332,604,o),
(360,664,o),
(360,664,c),
(362,664,l),
(362,664,o),
(373,598,o),
(381,557,cs),
(437,273,l),
(154,273,l)
);
},
{
closed = 1;
nodes = (
(469,760,o),
(503,789,o),
(512,844,c),
(471,844,l),
(466,818,o),
(451,803,o),
(434,803,cs),
(406,803,o),
(360,846,o),
(318,846,cs),
(283,846,o),
(251,819,o),
(240,762,c),
(281,762,l),
(286,788,o),
(302,803,o),
(316,803,cs),
(344,803,o),
(392,760,o),
(432,760,cs)
);
}
);
width = 602;
}
);
note = Atilde;
unicode = 195;
},
{
glyphname = Otilde;
kernLeft = C;
kernRight = O;
layers = (
{
hints = (
{
horizontal = 1;
place = (-13, 46);
place = (-13, 46);
type = Stem;
},
{
horizontal = 1;
place = (683, 46);
place = (683, 46);
type = Stem;
},
{
horizontal = 1;
place = (760, 43);
place = (760, 43);
type = Stem;
},
{
place = (45, 54);
place = (45, 54);
type = Stem;
},
{
place = (627, 54);
place = (627, 54);
type = Stem;
},
{
horizontal = 1;
place = (803, 43);
place = (803, 43);
type = Stem;
}
);
layerId = m01;
shapes = (
{
closed = 1;
nodes = (
(563,-13,o),
(681,207,o),
(681,419,cs),
(681,611,o),
(558,729,o),
(396,729,cs),
(170,729,o),
(45,507,o),
(45,295,cs),
(45,102,o),
(167,-13,o),
(328,-13,cs)
);
},
{
closed = 1;
nodes = (
(99,491,o),
(199,683,o),
(394,683,cs),
(540,683,o),
(627,571,o),
(627,419,cs),
(627,226,o),
(526,33,o),
(330,33,cs),
(182,33,o),
(99,145,o),
(99,295,cs)
);
},
{
closed = 1;
nodes = (
(511,760,o),
(545,789,o),
(554,844,c),
(513,844,l),
(508,818,o),
(493,803,o),
(476,803,cs),
(448,803,o),
(402,846,o),
(360,846,cs),
(325,846,o),
(293,819,o),
(282,762,c),
(323,762,l),
(328,788,o),
(344,803,o),
(358,803,cs),
(386,803,o),
(434,760,o),
(474,760,cs)
);
}
);
width = 689;
}
);
note = Otilde;
unicode = 213;
},
{
glyphname = OE;
kernLeft = C;
kernRight = E;
layers = (
{
hints = (
{
horizontal = 1;
place = (-13, 46);
place = (-13, 46);
type = Stem;
},
{
horizontal = 1;
place = (347, 44);
place = (347, 44);
type = Stem;
},
{
horizontal = 1;
place = (670, 45);
place = (670, 45);
type = Stem;
},
{
place = (55, 54);
place = (55, 54);
type = Stem;
},
{
place = (628, 22);
place = (628, 22);
type = Stem;
},
{
horizontal = 1;
place = (0, 47);
place = (0, 47);
type = Stem;
},
{
horizontal = 1;
place = (683, 46);
place = (683, 46);
type = Stem;
}
);
layerId = m01;
shapes = (
{
closed = 1;
nodes = (
(420,-13,o),
(500,33,o),
(556,104,c),
(536,0,l),
(1002,0,l),
(1011,47,l),
(596,47,l),
(654,347,l),
(1023,347,l),
(1032,391,l),
(663,391,l),
(717,670,l),
(1108,670,l),
(1116,715,l),
(674,715,l),
(650,588,l),
(619,667,o),
(550,729,o),
(423,729,cs),
(199,729,o),
(55,507,o),
(55,295,cs),
(55,102,o),
(159,-13,o),
(321,-13,cs)
);
},
{
closed = 1;
nodes = (
(109,491,o),
(228,683,o),
(422,683,cs),
(562,683,o),
(650,582,o),
(623,447,cs),
(584,249,ls),
(557,110,o),
(435,33,o),
(323,33,cs),
(174,33,o),
(109,145,o),
(109,295,cs)
);
}
);
width = 1078;
}
);
note = OE;
unicode = 338;
},
{
glyphname = oe;
kernLeft = c;
kernRight = e;
layers = (
{
hints = (
{
horizontal = 1;
place = (-13, 41);
place = (-13, 41);
type = Stem;
},
{
horizontal = 1;
place = (253, 40);
place = (253, 40);
type = Stem;
},
{
horizontal = 1;
place = (488, 40);
place = (488, 40);
type = Stem;
},
{
place = (22, 49);
place = (22, 49);
type = Stem;
},
{
place = (429, 42);
place = (429, 42);
type = Stem;
},
{
place = (813, 47);
place = (813, 47);
type = Stem;
}
);
layerId = m01;
shapes = (
{
closed = 1;
nodes = (
(330,-13,o),
(398,52,o),
(435,136,c),
(455,40,o),
(520,-13,o),
(620,-13,cs),
(724,-13,o),
(802,46,o),
(836,154,c),
(788,154,l),
(763,81,o),
(706,29,o),
(623,29,cs),
(513,29,o),
(471,106,o),
(471,205,cs),
(471,221,o),
(472,237,o),
(474,253,c),
(853,253,l),
(865,324,o),
(868,418,o),
(814,477,cs),
(783,511,o),
(743,528,o),
(683,528,cs),
(574,528,o),
(502,459,o),
(464,373,c),
(443,469,o),
(375,528,o),
(278,528,cs),
(100,528,o),
(22,350,o),
(22,203,cs),
(22,69,o),
(107,-13,o),
(224,-13,cs)
);
},
{
closed = 1;
nodes = (
(71,338,o),
(136,488,o),
(276,488,cs),
(384,488,o),
(429,400,o),
(429,304,cs),
(429,176,o),
(364,28,o),
(225,28,cs),
(120,28,o),
(71,108,o),
(71,208,cs)
);
},
{
closed = 1;
nodes = (
(789,487,o),
(825,400,o),
(809,293,c),
(481,293,l),
(504,394,o),
(569,487,o),
(681,487,cs)
);
}
);
width = 877;
}
);
note = oe;
unicode = 339;
},
{
glyphname = endash;
kernLeft = hyphen;
kernRight = hyphen;
layers = (
{
hints = (
{
horizontal = 1;
place = (234, 42);
place = (234, 42);
type = Stem;
},
{
place = (32, 409);
place = (32, 409);
type = Stem;
}
);
layerId = m01;
shapes = (
{
closed = 1;
nodes = (
(32,234,l),
(433,234,l),
(441,276,l),
(40,276,l)
);
}
);
width = 475;
}
);
note = endash;
unicode = 8211;
},
{
glyphname = emdash;
kernLeft = hyphen;
kernRight = hyphen;
layers = (
{
hints = (
{
horizontal = 1;
place = (234, 42);
place = (234, 42);
type = Stem;
},
{
place = (32, 665);
place = (32, 665);
type = Stem;
}
);
layerId = m01;
shapes = (
{
closed = 1;
nodes = (
(32,234,l),
(689,234,l),
(697,276,l),
(40,276,l)
);
}
);
width = 731;
}
);
note = emdash;
unicode = 8212;
},
{
glyphname = quotedblleft;
kernLeft = quotedblleft;
kernRight = quotedblleft;
layers = (
{
hints = (
{
horizontal = 1;
place = (546, 76);
place = (546, 76);
type = Stem;
},
{
horizontal = 1;
place = (717, -20);
target = down;
type = TopGhost;
},
{
place = (97, 205);
place = (97, 205);
type = Stem;
},
{
horizontal = 1;
place = (688, 29);
place = (688, 29);
type = Stem;
}
);
layerId = m01;
shapes = (
{
closed = 1;
nodes = (
(302,717,l),
(260,711,o),
(236,686,o),
(226,634,cs),
(209,546,l),
(267,546,l),
(281,622,l),
(256,622,l),
(259,638,ls),
(265,670,o),
(277,680,o),
(296,688,c)
);
},
{
closed = 1;
nodes = (
(190,717,l),
(148,711,o),
(124,686,o),
(114,634,cs),
(97,546,l),
(155,546,l),
(169,622,l),
(144,622,l),
(147,638,ls),
(153,670,o),
(165,680,o),
(184,688,c)
);
}
);
width = 252;
}
);
note = quotedblleft;
unicode = 8220;
},
{
glyphname = quotedblright;
kernLeft = quotedblright;
kernRight = quotedblright;
layers = (
{
hints = (
{
horizontal = 1;
place = (639, 76);
place = (639, 76);
type = Stem;
},
{
place = (94, 205);
place = (94, 205);
type = Stem;
}
);
layerId = m01;
shapes = (
{
closed = 1;
nodes = (
(94,544,l),
(136,550,o),
(160,575,o),
(170,627,cs),
(187,715,l),
(129,715,l),
(115,639,l),
(140,639,l),
(137,623,ls),
(131,591,o),
(119,581,o),
(100,573,c)
);
},
{
closed = 1;
nodes = (
(206,544,l),
(248,550,o),
(272,575,o),
(282,627,cs),
(299,715,l),
(241,715,l),
(227,639,l),
(252,639,l),
(249,623,ls),
(243,591,o),
(231,581,o),
(212,573,c)
);
}
);
width = 252;
}
);
note = quotedblright;
unicode = 8221;
},
{
glyphname = quoteleft;
kernLeft = quotedblleft;
kernRight = quotedblleft;
layers = (
{
hints = (
{
horizontal = 1;
place = (546, 76);
place = (546, 76);
type = Stem;
},
{
horizontal = 1;
place = (717, -20);
target = down;
type = TopGhost;
},
{
place = (97, 93);
place = (97, 93);
type = Stem;
}
);
layerId = m01;
shapes = (
{
closed = 1;
nodes = (
(190,717,l),
(148,711,o),
(124,686,o),
(114,634,cs),
(97,546,l),
(155,546,l),
(169,622,l),
(144,622,l),
(147,638,ls),
(153,670,o),
(165,680,o),
(184,688,c)
);
}
);
width = 141;
}
);
note = quoteleft;
unicode = 8216;
},
{
glyphname = quoteright;
kernLeft = quotedblright;
kernRight = quotedblright;
layers = (
{
hints = (
{
horizontal = 1;
place = (639, 76);
place = (639, 76);
type = Stem;
},
{
place = (94, 93);
place = (94, 93);
type = Stem;
}
);
layerId = m01;
shapes = (
{
closed = 1;
nodes = (
(94,544,l),
(136,550,o),
(160,575,o),
(170,627,cs),
(187,715,l),
(129,715,l),
(115,639,l),
(140,639,l),
(137,623,ls),
(131,591,o),
(119,581,o),
(100,573,c)
);
}
);
width = 141;
}
);
note = quoteright;
unicode = 8217;
},
{
glyphname = divide;
kernLeft = minus;
kernRight = minus;
layers = (
{
hints = (
{
place = (124, 75);
place = (124, 75);
type = Stem;
},
{
place = (304, 45);
place = (304, 45);
type = Stem;
},
{
place = (454, 75);
place = (454, 75);
type = Stem;
},
{
place = (63, 401);
place = (63, 401);
type = Stem;
}
);
layerId = m01;
shapes = (
{
closed = 1;
nodes = (
(63,304,l),
(455,304,l),
(464,349,l),
(72,349,l)
);
},
{
closed = 1;
nodes = (
(193,124,l),
(253,124,l),
(268,199,l),
(208,199,l)
);
},
{
closed = 1;
nodes = (
(258,454,l),
(318,454,l),
(333,529,l),
(273,529,l)
);
}
);
width = 502;
}
);
note = divide;
unicode = 247;
},
{
glyphname = lozenge;
layers = (
{
hints = (
{
horizontal = 1;
place = (0, 21);
target = up;
type = BottomGhost;
},
{
horizontal = 1;
place = (715, -20);
target = down;
type = TopGhost;
},
{
place = (52, 450);
place = (52, 450);
type = Stem;
},
{
horizontal = 1;
place = (0, 52);
place = (0, 52);
type = Stem;
},
{
horizontal = 1;
place = (663, 52);
place = (663, 52);
type = Stem;
}
);
layerId = m01;
shapes = (
{
closed = 1;
nodes = (
(502,356,l),
(301,715,l),
(252,715,l),
(52,357,l),
(253,0,l),
(302,0,l)
);
},
{
closed = 1;
nodes = (
(277,52,l),
(107,358,l),
(275,663,l),
(277,663,l),
(447,355,l),
(279,52,l)
);
}
);
width = 520;
}
);
note = lozenge;
unicode = 9674;
},
{
glyphname = ydieresis;
kernLeft = yacute;
kernRight = yacute;
layers = (
{
hints = (
{
horizontal = 1;
place = (-171, 45);
place = (-171, 45);
type = Stem;
},
{
horizontal = 1;
place = (517, -20);
target = down;
type = TopGhost;
},
{
horizontal = 1;
place = (635, 80);
place = (635, 80);
type = Stem;
},
{
place = (-4, 485);
place = (-4, 485);
type = Stem;
},
{
horizontal = 1;
place = (-165, 21);
target = up;
type = BottomGhost;
}
);
layerId = m01;
shapes = (
{
closed = 1;
nodes = (
(101,-171,o),
(143,-145,o),
(179,-75,cs),
(481,517,l),
(430,517,l),
(259,175,ls),
(232,121,o),
(197,45,o),
(197,45,c),
(195,45,l),
(195,45,o),
(184,121,o),
(172,177,cs),
(101,517,l),
(52,517,l),
(165,-7,l),
(140,-55,ls),
(116,-103,o),
(86,-126,o),
(46,-126,cs),
(22,-126,o),
(15,-123,o),
(7,-121,c),
(5,-121,l),
(-4,-165,l),
(6,-168,o),
(19,-171,o),
(43,-171,cs)
);
},
{
closed = 1;
nodes = (
(178,635,l),
(227,635,l),
(242,715,l),
(193,715,l)
);
},
{
closed = 1;
nodes = (
(327,635,l),
(376,635,l),
(391,715,l),
(342,715,l)
);
}
);
width = 448;
}
);
note = ydieresis;
unicode = 255;
},
{
glyphname = Ydieresis;
kernLeft = Yacute;
kernRight = Yacute;
layers = (
{
hints = (
{
horizontal = 1;
place = (0, 21);
target = up;
type = BottomGhost;
},
{
horizontal = 1;
place = (715, -20);
target = down;
type = TopGhost;
},
{
horizontal = 1;
place = (755, 80);
place = (755, 80);
type = Stem;
},
{
place = (82, 545);
place = (82, 545);
type = Stem;
}
);
layerId = m01;
shapes = (
{
closed = 1;
nodes = (
(197,0,l),
(248,0,l),
(308,312,l),
(627,715,l),
(570,715,l),
(293,360,l),
(291,360,l),
(136,715,l),
(82,715,l),
(258,318,l)
);
},
{
closed = 1;
nodes = (
(261,755,l),
(310,755,l),
(326,835,l),
(277,835,l)
);
},
{
closed = 1;
nodes = (
(410,755,l),
(459,755,l),
(475,835,l),
(426,835,l)
);
}
);
width = 546;
}
);
note = Ydieresis;
unicode = 376;
},
{
glyphname = fraction;
layers = (
{
hints = (
{
horizontal = 1;
place = (0, 21);
target = up;
type = BottomGhost;
},
{
horizontal = 1;
place = (715, -20);
target = down;
type = TopGhost;
},
{
place = (-220, 668);
place = (-220, 668);
type = Stem;
}
);
layerId = m01;
shapes = (
{
closed = 1;
nodes = (
(-220,0,l),
(-168,0,l),
(448,715,l),
(396,715,l)
);
}
);
width = 190;
}
);
note = fraction;
unicode = 8260;
},
{
glyphname = Euro;
layers = (
{
hints = (
{
horizontal = 1;
place = (-13, 44);
place = (-13, 44);
type = Stem;
},
{
horizontal = 1;
place = (260, 40);
place = (260, 40);
type = Stem;
},
{
horizontal = 1;
place = (383, 40);
place = (383, 40);
type = Stem;
},
{
horizontal = 1;
place = (656, 43);
place = (656, 43);
type = Stem;
},
{
place = (90, 53);
place = (90, 53);
type = Stem;
},
{
place = (535, 49);
place = (535, 49);
type = Stem;
},
{
place = (93, 52);
place = (93, 52);
type = Stem;
}
);
layerId = m01;
shapes = (
{
closed = 1;
nodes = (
(377,383,l),
(385,423,l),
(166,423,l),
(199,546,o),
(269,656,o),
(393,656,cs),
(495,656,o),
(529,586,o),
(535,498,c),
(584,498,l),
(579,620,o),
(515,699,o),
(395,699,cs),
(244,699,o),
(154,568,o),
(114,423,c),
(54,423,l),
(46,383,l),
(105,383,l),
(99,355,o),
(95,327,o),
(93,300,c),
(30,300,l),
(22,260,l),
(90,260,l),
(90,242,ls),
(90,97,o),
(161,-13,o),
(298,-13,cs),
(427,-13,o),
(521,74,o),
(560,249,c),
(512,249,l),
(480,112,o),
(408,30,o),
(300,31,cs),
(177,31,o),
(143,141,o),
(143,242,cs),
(143,260,l),
(353,260,l),
(361,300,l),
(145,300,l),
(147,327,o),
(151,355,o),
(157,383,c)
);
}
);
width = 590;
}
);
note = Euro;
unicode = 8364;
},
{
glyphname = guilsinglleft;
kernLeft = guillemotleft;
kernRight = guillemotleft;
layers = (
{
hints = (
{
horizontal = 1;
place = (126, 291);
place = (126, 291);
type = Stem;
},
{
place = (55, 167);
place = (55, 167);
type = Stem;
}
);
layerId = m01;
shapes = (
{
closed = 1;
nodes = (
(165,126,l),
(176,184,l),
(91,270,l),
(91,272,l),
(209,351,l),
(222,417,l),
(68,307,l),
(55,240,l)
);
}
);
width = 250;
}
);
note = guilsinglleft;
unicode = 8249;
},
{
glyphname = guilsinglright;
kernLeft = guillemotright;
kernRight = guillemotright;
layers = (
{
hints = (
{
horizontal = 1;
place = (126, 291);
place = (126, 291);
type = Stem;
},
{
place = (33, 167);
place = (33, 167);
type = Stem;
}
);
layerId = m01;
shapes = (
{
closed = 1;
nodes = (
(90,417,l),
(79,359,l),
(164,273,l),
(164,271,l),
(46,192,l),
(33,126,l),
(187,236,l),
(200,303,l)
);
}
);
width = 250;
}
);
note = guilsinglright;
unicode = 8250;
},
{
glyphname = fi;
kernLeft = f;
layers = (
{
hints = (
{
horizontal = 1;
place = (0, 21);
target = up;
type = BottomGhost;
},
{
horizontal = 1;
place = (477, 40);
place = (477, 40);
type = Stem;
},
{
horizontal = 1;
place = (677, 42);
place = (677, 42);
type = Stem;
},
{
place = (38, 392);
place = (38, 392);
type = Stem;
},
{
horizontal = 1;
place = (636, 79);
place = (636, 79);
type = Stem;
}
);
layerId = m01;
shapes = (
{
closed = 1;
nodes = (
(54,477,l),
(130,477,l),
(38,0,l),
(86,0,l),
(178,477,l),
(272,477,l),
(280,517,l),
(186,517,l),
(206,619,ls),
(213,655,o),
(229,677,o),
(274,677,cs),
(308,677,l),
(316,719,l),
(275,719,ls),
(210,719,o),
(172,691,o),
(159,626,cs),
(138,517,l),
(62,517,l)
);
},
{
closed = 1;
nodes = (
(244,0,l),
(292,0,l),
(392,517,l),
(344,517,l)
);
},
{
closed = 1;
nodes = (
(367,636,l),
(415,636,l),
(430,715,l),
(382,715,l)
);
}
);
width = 395;
}
);
note = fi;
unicode = 64257;
},
{
glyphname = fl;
kernLeft = f;
layers = (
{
hints = (
{
horizontal = 1;
place = (0, 21);
target = up;
type = BottomGhost;
},
{
horizontal = 1;
place = (477, 40);
place = (477, 40);
type = Stem;
},
{
horizontal = 1;
place = (677, 42);
place = (677, 42);
type = Stem;
},
{
place = (38, 392);
place = (38, 392);
type = Stem;
},
{
horizontal = 1;
place = (715, -20);
target = down;
type = TopGhost;
}
);
layerId = m01;
shapes = (
{
closed = 1;
nodes = (
(54,477,l),
(130,477,l),
(38,0,l),
(86,0,l),
(178,477,l),
(272,477,l),
(280,517,l),
(186,517,l),
(206,619,ls),
(213,655,o),
(229,677,o),
(274,677,cs),
(308,677,l),
(316,719,l),
(275,719,ls),
(210,719,o),
(172,691,o),
(159,626,cs),
(138,517,l),
(62,517,l)
);
},
{
closed = 1;
nodes = (
(244,0,l),
(292,0,l),
(430,715,l),
(382,715,l)
);
}
);
width = 392;
}
);
note = fl;
unicode = 64258;
},
{
glyphname = daggerdbl;
layers = (
{
hints = (
{
horizontal = 1;
place = (97, 42);
place = (97, 42);
type = Stem;
},
{
horizontal = 1;
place = (472, 42);
place = (472, 42);
type = Stem;
},
{
horizontal = 1;
place = (715, -20);
target = down;
type = TopGhost;
},
{
place = (6, 493);
place = (6, 493);
type = Stem;
}
);
layerId = m01;
shapes = (
{
closed = 1;
nodes = (
(357,715,l),
(307,715,l),
(268,514,l),
(87,514,l),
(79,472,l),
(260,472,l),
(196,139,l),
(15,139,l),
(6,97,l),
(187,97,l),
(148,-104,l),
(198,-104,l),
(237,97,l),
(418,97,l),
(427,139,l),
(246,139,l),
(310,472,l),
(491,472,l),
(499,514,l),
(318,514,l)
);
}
);
width = 488;
}
);
note = daggerdbl;
unicode = 8225;
},
{
glyphname = periodcentered;
layers = (
{
hints = (
{
horizontal = 1;
place = (271, 79);
place = (271, 79);
type = Stem;
},
{
place = (42, 76);
place = (42, 76);
type = Stem;
}
);
layerId = m01;
shapes = (
{
closed = 1;
nodes = (
(42,271,l),
(102,271,l),
(118,350,l),
(58,350,l)
);
}
);
width = 141;
}
);
note = periodcentered;
unicode = 183;
},
{
glyphname = quotesinglbase;
kernRight = quotesinglbase;
layers = (
{
hints = (
{
horizontal = 1;
place = (0, 76);
place = (0, 76);
type = Stem;
},
{
place = (-30, 93);
place = (-30, 93);
type = Stem;
}
);
layerId = m01;
shapes = (
{
closed = 1;
nodes = (
(-30,-95,l),
(12,-89,o),
(36,-64,o),
(46,-12,cs),
(63,76,l),
(5,76,l),
(-9,0,l),
(16,0,l),
(13,-16,ls),
(7,-48,o),
(-5,-58,o),
(-24,-66,c)
);
}
);
width = 141;
}
);
note = quotesinglbase;
unicode = 8218;
},
{
glyphname = quotedblbase;
kernRight = quotesinglbase;
layers = (
{
hints = (
{
horizontal = 1;
place = (0, 76);
place = (0, 76);
type = Stem;
},
{
place = (-30, 205);
place = (-30, 205);
type = Stem;
}
);
layerId = m01;
shapes = (
{
closed = 1;
nodes = (
(-30,-95,l),
(12,-89,o),
(36,-64,o),
(46,-12,cs),
(63,76,l),
(5,76,l),
(-9,0,l),
(16,0,l),
(13,-16,ls),
(7,-48,o),
(-5,-58,o),
(-24,-66,c)
);
},
{
closed = 1;
nodes = (
(82,-95,l),
(124,-89,o),
(148,-64,o),
(158,-12,cs),
(175,76,l),
(117,76,l),
(103,0,l),
(128,0,l),
(125,-16,ls),
(119,-48,o),
(107,-58,o),
(88,-66,c)
);
}
);
width = 252;
}
);
note = quotedblbase;
unicode = 8222;
},
{
glyphname = perthousand;
kernLeft = percent;
layers = (
{
hints = (
{
horizontal = 1;
place = (-13, 38);
place = (-13, 38);
type = Stem;
},
{
horizontal = 1;
place = (335, 38);
place = (335, 38);
type = Stem;
},
{
horizontal = 1;
place = (661, 38);
place = (661, 38);
type = Stem;
},
{
place = (79, 47);
place = (79, 47);
type = Stem;
},
{
place = (328, 47);
place = (328, 47);
type = Stem;
},
{
place = (413, 47);
place = (413, 47);
type = Stem;
},
{
place = (662, 47);
place = (662, 47);
type = Stem;
},
{
place = (760, 47);
place = (760, 47);
type = Stem;
},
{
place = (1009, 47);
place = (1009, 47);
type = Stem;
},
{
horizontal = 1;
place = (313, 38);
place = (313, 38);
type = Stem;
},
{
horizontal = 1;
place = (0, 21);
target = up;
type = BottomGhost;
},
{
horizontal = 1;
place = (685, -20);
target = down;
type = TopGhost;
}
);
layerId = m01;
shapes = (
{
closed = 1;
nodes = (
(143,699,o),
(79,588,o),
(79,465,cs),
(79,373,o),
(130,313,o),
(208,313,cs),
(314,313,o),
(375,426,o),
(375,547,cs),
(375,638,o),
(327,699,o),
(248,699,cs)
);
},
{
closed = 1;
nodes = (
(328,453,o),
(289,350,o),
(209,351,cs),
(153,352,o),
(126,401,o),
(126,465,cs),
(126,561,o),
(166,661,o),
(247,661,cs),
(304,661,o),
(328,611,o),
(328,547,cs)
);
},
{
closed = 1;
nodes = (
(101,0,l),
(149,0,l),
(689,685,l),
(642,685,l)
);
},
{
closed = 1;
nodes = (
(477,373,o),
(413,262,o),
(413,139,cs),
(413,47,o),
(464,-13,o),
(542,-13,cs),
(648,-13,o),
(709,100,o),
(709,221,cs),
(709,312,o),
(661,373,o),
(582,373,cs)
);
},
{
closed = 1;
nodes = (
(662,127,o),
(623,24,o),
(543,25,cs),
(487,26,o),
(460,75,o),
(460,139,cs),
(460,235,o),
(500,335,o),
(581,335,cs),
(638,335,o),
(662,285,o),
(662,221,cs)
);
},
{
closed = 1;
nodes = (
(824,373,o),
(760,262,o),
(760,139,cs),
(760,47,o),
(811,-13,o),
(889,-13,cs),
(995,-13,o),
(1056,100,o),
(1056,221,cs),
(1056,312,o),
(1008,373,o),
(929,373,cs)
);
},
{
closed = 1;
nodes = (
(1009,127,o),
(970,24,o),
(890,25,cs),
(834,26,o),
(807,75,o),
(807,139,cs),
(807,235,o),
(847,335,o),
(928,335,cs),
(985,335,o),
(1009,285,o),
(1009,221,cs)
);
}
);
width = 1104;
}
);
note = perthousand;
unicode = 8240;
},
{
glyphname = Acircumflex;
kernLeft = A;
kernRight = A;
layers = (
{
hints = (
{
horizontal = 1;
place = (0, 21);
target = up;
type = BottomGhost;
},
{
horizontal = 1;
place = (230, 43);
place = (230, 43);
type = Stem;
},
{
horizontal = 1;
place = (664, 51);
place = (664, 51);
type = Stem;
},
{
horizontal = 1;
place = (752, 101);
place = (752, 101);
type = Stem;
},
{
place = (-45, 589);
place = (-45, 589);
type = Stem;
}
);
layerId = m01;
shapes = (
{
closed = 1;
nodes = (
(492,0,l),
(544,0,l),
(399,715,l),
(340,715,l),
(-45,0,l),
(7,0,l),
(131,230,l),
(446,230,l)
);
},
{
closed = 1;
nodes = (
(306,556,ls),
(332,604,o),
(360,664,o),
(360,664,c),
(362,664,l),
(362,664,o),
(373,598,o),
(381,557,cs),
(437,273,l),
(154,273,l)
);
},
{
closed = 1;
nodes = (
(244,752,l),
(300,752,l),
(379,823,l),
(381,823,l),
(435,752,l),
(488,752,l),
(415,853,l),
(353,853,l)
);
}
);
width = 602;
}
);
note = Acircumflex;
unicode = 194;
},
{
glyphname = Ecircumflex;
kernRight = E;
layers = (
{
hints = (
{
horizontal = 1;
place = (0, 47);
place = (0, 47);
type = Stem;
},
{
horizontal = 1;
place = (347, 44);
place = (347, 44);
type = Stem;
},
{
horizontal = 1;
place = (670, 45);
place = (670, 45);
type = Stem;
},
{
place = (11, 580);
place = (11, 580);
type = Stem;
},
{
horizontal = 1;
place = (670, 183);
place = (670, 183);
type = Stem;
}
);
layerId = m01;
shapes = (
{
closed = 1;
nodes = (
(11,0,l),
(477,0,l),
(486,47,l),
(71,47,l),
(129,347,l),
(498,347,l),
(507,391,l),
(138,391,l),
(192,670,l),
(583,670,l),
(591,715,l),
(149,715,l)
);
},
{
closed = 1;
nodes = (
(264,752,l),
(320,752,l),
(399,823,l),
(401,823,l),
(455,752,l),
(508,752,l),
(435,853,l),
(373,853,l)
);
}
);
width = 559;
}
);
note = Ecircumflex;
unicode = 202;
},
{
glyphname = Aacute;
kernLeft = A;
kernRight = A;
layers = (
{
hints = (
{
horizontal = 1;
place = (0, 21);
target = up;
type = BottomGhost;
},
{
horizontal = 1;
place = (230, 43);
place = (230, 43);
type = Stem;
},
{
horizontal = 1;
place = (664, 51);
place = (664, 51);
type = Stem;
},
{
horizontal = 1;
place = (753, 110);
place = (753, 110);
type = Stem;
},
{
place = (-45, 589);
place = (-45, 589);
type = Stem;
}
);
layerId = m01;
shapes = (
{
closed = 1;
nodes = (
(492,0,l),
(544,0,l),
(399,715,l),
(340,715,l),
(-45,0,l),
(7,0,l),
(131,230,l),
(446,230,l)
);
},
{
closed = 1;
nodes = (
(306,556,ls),
(332,604,o),
(360,664,o),
(360,664,c),
(362,664,l),
(362,664,o),
(373,598,o),
(381,557,cs),
(437,273,l),
(154,273,l)
);
},
{
closed = 1;
nodes = (
(354,753,l),
(398,753,l),
(497,863,l),
(429,863,l)
);
}
);
width = 602;
}
);
note = Aacute;
unicode = 193;
},
{
glyphname = Edieresis;
kernRight = E;
layers = (
{
hints = (
{
horizontal = 1;
place = (0, 47);
place = (0, 47);
type = Stem;
},
{
horizontal = 1;
place = (347, 44);
place = (347, 44);
type = Stem;
},
{
horizontal = 1;
place = (670, 45);
place = (670, 45);
type = Stem;
},
{
place = (11, 580);
place = (11, 580);
type = Stem;
},
{
horizontal = 1;
place = (670, 165);
place = (670, 165);
type = Stem;
}
);
layerId = m01;
shapes = (
{
closed = 1;
nodes = (
(11,0,l),
(477,0,l),
(486,47,l),
(71,47,l),
(129,347,l),
(498,347,l),
(507,391,l),
(138,391,l),
(192,670,l),
(583,670,l),
(591,715,l),
(149,715,l)
);
},
{
closed = 1;
nodes = (
(287,755,l),
(336,755,l),
(352,835,l),
(303,835,l)
);
},
{
closed = 1;
nodes = (
(436,755,l),
(485,755,l),
(501,835,l),
(452,835,l)
);
}
);
width = 559;
}
);
note = Edieresis;
unicode = 203;
},
{
glyphname = Egrave;
kernRight = E;
layers = (
{
hints = (
{
horizontal = 1;
place = (0, 47);
place = (0, 47);
type = Stem;
},
{
horizontal = 1;
place = (347, 44);
place = (347, 44);
type = Stem;
},
{
horizontal = 1;
place = (670, 45);
place = (670, 45);
type = Stem;
},
{
place = (11, 580);
place = (11, 580);
type = Stem;
},
{
horizontal = 1;
place = (670, 193);
place = (670, 193);
type = Stem;
}
);
layerId = m01;
shapes = (
{
closed = 1;
nodes = (
(11,0,l),
(477,0,l),
(486,47,l),
(71,47,l),
(129,347,l),
(498,347,l),
(507,391,l),
(138,391,l),
(192,670,l),
(583,670,l),
(591,715,l),
(149,715,l)
);
},
{
closed = 1;
nodes = (
(413,753,l),
(367,863,l),
(301,863,l),
(370,753,l)
);
}
);
width = 559;
}
);
note = Egrave;
unicode = 200;
},
{
glyphname = Iacute;
layers = (
{
hints = (
{
horizontal = 1;
place = (0, 21);
target = up;
type = BottomGhost;
},
{
horizontal = 1;
place = (715, -20);
target = down;
type = TopGhost;
},
{
horizontal = 1;
place = (753, 110);
place = (753, 110);
type = Stem;
},
{
place = (15, 291);
place = (15, 291);
type = Stem;
}
);
layerId = m01;
shapes = (
{
closed = 1;
nodes = (
(15,0,l),
(66,0,l),
(204,715,l),
(153,715,l)
);
},
{
closed = 1;
nodes = (
(163,753,l),
(207,753,l),
(306,863,l),
(238,863,l)
);
}
);
width = 181;
}
);
note = Iacute;
unicode = 205;
},
{
glyphname = Icircumflex;
layers = (
{
hints = (
{
horizontal = 1;
place = (0, 21);
target = up;
type = BottomGhost;
},
{
horizontal = 1;
place = (715, -20);
target = down;
type = TopGhost;
},
{
horizontal = 1;
place = (752, 101);
place = (752, 101);
type = Stem;
},
{
place = (15, 288);
place = (15, 288);
type = Stem;
}
);
layerId = m01;
shapes = (
{
closed = 1;
nodes = (
(15,0,l),
(66,0,l),
(204,715,l),
(153,715,l)
);
},
{
closed = 1;
nodes = (
(59,752,l),
(115,752,l),
(194,823,l),
(196,823,l),
(250,752,l),
(303,752,l),
(230,853,l),
(168,853,l)
);
}
);
width = 181;
}
);
note = Icircumflex;
unicode = 206;
},
{
glyphname = Idieresis;
layers = (
{
hints = (
{
horizontal = 1;
place = (0, 21);
target = up;
type = BottomGhost;
},
{
horizontal = 1;
place = (715, -20);
target = down;
type = TopGhost;
},
{
horizontal = 1;
place = (755, 80);
place = (755, 80);
type = Stem;
},
{
place = (15, 281);
place = (15, 281);
type = Stem;
}
);
layerId = m01;
shapes = (
{
closed = 1;
nodes = (
(15,0,l),
(66,0,l),
(204,715,l),
(153,715,l)
);
},
{
closed = 1;
nodes = (
(82,755,l),
(131,755,l),
(147,835,l),
(98,835,l)
);
},
{
closed = 1;
nodes = (
(231,755,l),
(280,755,l),
(296,835,l),
(247,835,l)
);
}
);
width = 181;
}
);
note = Idieresis;
unicode = 207;
},
{
glyphname = Igrave;
layers = (
{
hints = (
{
horizontal = 1;
place = (0, 21);
target = up;
type = BottomGhost;
},
{
horizontal = 1;
place = (715, -20);
target = down;
type = TopGhost;
},
{
horizontal = 1;
place = (753, 110);
place = (753, 110);
type = Stem;
},
{
place = (15, 190);
place = (15, 190);
type = Stem;
}
);
layerId = m01;
shapes = (
{
closed = 1;
nodes = (
(15,0,l),
(66,0,l),
(204,715,l),
(153,715,l)
);
},
{
closed = 1;
nodes = (
(205,753,l),
(159,863,l),
(93,863,l),
(162,753,l)
);
}
);
width = 181;
}
);
note = Igrave;
unicode = 204;
},
{
glyphname = Oacute;
kernLeft = C;
kernRight = O;
layers = (
{
hints = (
{
horizontal = 1;
place = (-13, 46);
place = (-13, 46);
type = Stem;
},
{
horizontal = 1;
place = (683, 46);
place = (683, 46);
type = Stem;
},
{
place = (45, 54);
place = (45, 54);
type = Stem;
},
{
place = (627, 54);
place = (627, 54);
type = Stem;
},
{
horizontal = 1;
place = (753, 110);
place = (753, 110);
type = Stem;
}
);
layerId = m01;
shapes = (
{
closed = 1;
nodes = (
(563,-13,o),
(681,207,o),
(681,419,cs),
(681,611,o),
(558,729,o),
(396,729,cs),
(170,729,o),
(45,507,o),
(45,295,cs),
(45,102,o),
(167,-13,o),
(328,-13,cs)
);
},
{
closed = 1;
nodes = (
(99,491,o),
(199,683,o),
(394,683,cs),
(540,683,o),
(627,571,o),
(627,419,cs),
(627,226,o),
(526,33,o),
(330,33,cs),
(182,33,o),
(99,145,o),
(99,295,cs)
);
},
{
closed = 1;
nodes = (
(382,753,l),
(426,753,l),
(525,863,l),
(457,863,l)
);
}
);
width = 689;
}
);
note = Oacute;
unicode = 211;
},
{
glyphname = Ocircumflex;
kernLeft = C;
kernRight = O;
layers = (
{
hints = (
{
horizontal = 1;
place = (-13, 46);
place = (-13, 46);
type = Stem;
},
{
horizontal = 1;
place = (683, 46);
place = (683, 46);
type = Stem;
},
{
place = (45, 54);
place = (45, 54);
type = Stem;
},
{
place = (627, 54);
place = (627, 54);
type = Stem;
},
{
horizontal = 1;
place = (752, 101);
place = (752, 101);
type = Stem;
}
);
layerId = m01;
shapes = (
{
closed = 1;
nodes = (
(563,-13,o),
(681,207,o),
(681,419,cs),
(681,611,o),
(558,729,o),
(396,729,cs),
(170,729,o),
(45,507,o),
(45,295,cs),
(45,102,o),
(167,-13,o),
(328,-13,cs)
);
},
{
closed = 1;
nodes = (
(99,491,o),
(199,683,o),
(394,683,cs),
(540,683,o),
(627,571,o),
(627,419,cs),
(627,226,o),
(526,33,o),
(330,33,cs),
(182,33,o),
(99,145,o),
(99,295,cs)
);
},
{
closed = 1;
nodes = (
(289,752,l),
(345,752,l),
(424,823,l),
(426,823,l),
(480,752,l),
(533,752,l),
(460,853,l),
(398,853,l)
);
}
);
width = 689;
}
);
note = Ocircumflex;
unicode = 212;
},
{
glyphname = Ograve;
kernLeft = C;
kernRight = O;
layers = (
{
hints = (
{
horizontal = 1;
place = (-13, 46);
place = (-13, 46);
type = Stem;
},
{
horizontal = 1;
place = (683, 46);
place = (683, 46);
type = Stem;
},
{
place = (45, 54);
place = (45, 54);
type = Stem;
},
{
place = (627, 54);
place = (627, 54);
type = Stem;
},
{
horizontal = 1;
place = (753, 110);
place = (753, 110);
type = Stem;
}
);
layerId = m01;
shapes = (
{
closed = 1;
nodes = (
(563,-13,o),
(681,207,o),
(681,419,cs),
(681,611,o),
(558,729,o),
(396,729,cs),
(170,729,o),
(45,507,o),
(45,295,cs),
(45,102,o),
(167,-13,o),
(328,-13,cs)
);
},
{
closed = 1;
nodes = (
(99,491,o),
(199,683,o),
(394,683,cs),
(540,683,o),
(627,571,o),
(627,419,cs),
(627,226,o),
(526,33,o),
(330,33,cs),
(182,33,o),
(99,145,o),
(99,295,cs)
);
},
{
closed = 1;
nodes = (
(443,753,l),
(397,863,l),
(331,863,l),
(400,753,l)
);
}
);
width = 689;
}
);
note = Ograve;
unicode = 210;
},
{
glyphname = Uacute;
kernLeft = U;
kernRight = U;
layers = (
{
hints = (
{
horizontal = 1;
place = (-11, 45);
place = (-11, 45);
type = Stem;
},
{
horizontal = 1;
place = (715, -20);
target = down;
type = TopGhost;
},
{
horizontal = 1;
place = (753, 110);
place = (753, 110);
type = Stem;
},
{
place = (45, 51);
place = (45, 51);
type = Stem;
}
);
layerId = m01;
shapes = (
{
closed = 1;
nodes = (
(416,-11,o),
(509,60,o),
(537,209,cs),
(635,715,l),
(584,715,l),
(487,214,ls),
(463,85,o),
(393,34,o),
(276,34,cs),
(132,34,o),
(75,101,o),
(103,245,cs),
(194,715,l),
(143,715,l),
(52,245,ls),
(17,62,o),
(121,-11,o),
(271,-11,cs)
);
},
{
closed = 1;
nodes = (
(360,753,l),
(404,753,l),
(503,863,l),
(435,863,l)
);
}
);
width = 602;
}
);
note = Uacute;
unicode = 218;
},
{
glyphname = Ucircumflex;
kernLeft = U;
kernRight = U;
layers = (
{
hints = (
{
horizontal = 1;
place = (-11, 45);
place = (-11, 45);
type = Stem;
},
{
horizontal = 1;
place = (715, -20);
target = down;
type = TopGhost;
},
{
horizontal = 1;
place = (752, 101);
place = (752, 101);
type = Stem;
},
{
place = (45, 51);
place = (45, 51);
type = Stem;
}
);
layerId = m01;
shapes = (
{
closed = 1;
nodes = (
(416,-11,o),
(509,60,o),
(537,209,cs),
(635,715,l),
(584,715,l),
(487,214,ls),
(463,85,o),
(393,34,o),
(276,34,cs),
(132,34,o),
(75,101,o),
(103,245,cs),
(194,715,l),
(143,715,l),
(52,245,ls),
(17,62,o),
(121,-11,o),
(271,-11,cs)
);
},
{
closed = 1;
nodes = (
(270,752,l),
(326,752,l),
(405,823,l),
(407,823,l),
(461,752,l),
(514,752,l),
(441,853,l),
(379,853,l)
);
}
);
width = 602;
}
);
note = Ucircumflex;
unicode = 219;
},
{
glyphname = Ugrave;
kernLeft = U;
kernRight = U;
layers = (
{
hints = (
{
horizontal = 1;
place = (-11, 45);
place = (-11, 45);
type = Stem;
},
{
horizontal = 1;
place = (715, -20);
target = down;
type = TopGhost;
},
{
horizontal = 1;
place = (753, 110);
place = (753, 110);
type = Stem;
},
{
place = (45, 51);
place = (45, 51);
type = Stem;
}
);
layerId = m01;
shapes = (
{
closed = 1;
nodes = (
(416,-11,o),
(509,60,o),
(537,209,cs),
(635,715,l),
(584,715,l),
(487,214,ls),
(463,85,o),
(393,34,o),
(276,34,cs),
(132,34,o),
(75,101,o),
(103,245,cs),
(194,715,l),
(143,715,l),
(52,245,ls),
(17,62,o),
(121,-11,o),
(271,-11,cs)
);
},
{
closed = 1;
nodes = (
(426,753,l),
(380,863,l),
(314,863,l),
(383,753,l)
);
}
);
width = 602;
}
);
note = Ugrave;
unicode = 217;
},
{
glyphname = dotlessi;
kernLeft = m;
kernRight = u;
layers = (
{
hints = (
{
horizontal = 1;
place = (0, 21);
target = up;
type = BottomGhost;
},
{
horizontal = 1;
place = (517, -20);
target = down;
type = TopGhost;
},
{
place = (2, 148);
place = (2, 148);
type = Stem;
}
);
layerId = m01;
shapes = (
{
closed = 1;
nodes = (
(2,0,l),
(50,0,l),
(150,517,l),
(102,517,l)
);
}
);
width = 153;
}
);
note = dotlessi;
unicode = 305;
},
{
glyphname = circumflex;
layers = (
{
hints = (
{
horizontal = 1;
place = (592, 106);
place = (592, 106);
type = Stem;
},
{
place = (202, 218);
place = (202, 218);
type = Stem;
},
{
horizontal = 1;
place = (668, 30);
place = (668, 30);
type = Stem;
}
);
layerId = m01;
shapes = (
{
closed = 1;
nodes = (
(202,592,l),
(258,592,l),
(324,668,l),
(326,668,l),
(367,592,l),
(420,592,l),
(360,698,l),
(298,698,l)
);
}
);
width = 492;
}
);
note = circumflex;
unicode = 710;
},
{
glyphname = tilde;
layers = (
{
hints = (
{
horizontal = 1;
place = (600, 43);
place = (600, 43);
type = Stem;
},
{
place = (186, 269);
place = (186, 269);
type = Stem;
},
{
horizontal = 1;
place = (643, 43);
place = (643, 43);
type = Stem;
}
);
layerId = m01;
shapes = (
{
closed = 1;
nodes = (
(412,600,o),
(446,629,o),
(455,684,c),
(414,684,l),
(409,658,o),
(394,643,o),
(377,643,cs),
(349,643,o),
(306,686,o),
(264,686,cs),
(229,686,o),
(197,659,o),
(186,602,c),
(227,602,l),
(232,628,o),
(248,643,o),
(262,643,cs),
(290,643,o),
(335,600,o),
(375,600,cs)
);
}
);
width = 492;
}
);
note = tilde;
unicode = 732;
},
{
glyphname = macron;
layers = (
{
hints = (
{
horizontal = 1;
place = (631, 48);
place = (631, 48);
type = Stem;
},
{
place = (199, 237);
place = (199, 237);
type = Stem;
}
);
layerId = m01;
shapes = (
{
closed = 1;
nodes = (
(199,631,l),
(427,631,l),
(436,679,l),
(208,679,l)
);
}
);
width = 492;
}
);
note = macron;
unicode = 175;
},
{
glyphname = breve;
layers = (
{
hints = (
{
horizontal = 1;
place = (589, 106);
place = (589, 106);
type = Stem;
},
{
place = (229, 232);
place = (229, 232);
type = Stem;
},
{
horizontal = 1;
place = (589, 46);
place = (589, 46);
type = Stem;
}
);
layerId = m01;
shapes = (
{
closed = 1;
nodes = (
(403,589,o),
(449,633,o),
(461,695,c),
(415,695,l),
(404,659,o),
(379,635,o),
(338,635,cs),
(296,635,o),
(276,659,o),
(273,695,c),
(229,695,l),
(229,634,o),
(269,589,o),
(336,589,cs)
);
}
);
width = 492;
}
);
note = breve;
unicode = 728;
},
{
glyphname = dotaccent;
layers = (
{
hints = (
{
horizontal = 1;
place = (635, 80);
place = (635, 80);
type = Stem;
},
{
place = (304, 63);
place = (304, 63);
type = Stem;
}
);
layerId = m01;
shapes = (
{
closed = 1;
nodes = (
(304,635,l),
(352,635,l),
(367,715,l),
(319,715,l)
);
}
);
width = 512;
}
);
note = dotaccent;
unicode = 729;
},
{
glyphname = ring;
layers = (
{
hints = (
{
horizontal = 1;
place = (576, 33);
place = (576, 33);
type = Stem;
},
{
horizontal = 1;
place = (713, 33);
place = (713, 33);
type = Stem;
},
{
place = (240, 38);
place = (240, 38);
type = Stem;
},
{
place = (376, 38);
place = (376, 38);
type = Stem;
}
);
layerId = m01;
shapes = (
{
closed = 1;
nodes = (
(375,576,o),
(414,614,o),
(414,661,cs),
(414,708,o),
(375,746,o),
(327,746,cs),
(279,746,o),
(240,708,o),
(240,661,cs),
(240,614,o),
(279,576,o),
(327,576,cs)
);
},
{
closed = 1;
nodes = (
(298,609,o),
(278,632,o),
(278,661,cs),
(278,690,o),
(298,713,o),
(327,713,cs),
(356,713,o),
(376,690,o),
(376,661,cs),
(376,632,o),
(356,609,o),
(327,609,cs)
);
}
);
width = 501;
}
);
note = ring;
unicode = 730;
},
{
glyphname = cedilla;
layers = (
{
hints = (
{
horizontal = 1;
place = (-184, 34);
place = (-184, 34);
type = Stem;
},
{
horizontal = 1;
place = (-84, 31);
place = (-84, 31);
type = Stem;
},
{
place = (192, 47);
place = (192, 47);
type = Stem;
},
{
horizontal = 1;
place = (-184, 21);
target = up;
type = BottomGhost;
}
);
layerId = m01;
shapes = (
{
closed = 1;
nodes = (
(189,-184,o),
(239,-161,o),
(239,-108,cs),
(239,-72,o),
(210,-50,o),
(164,-53,c),
(164,-51,l),
(220,0,l),
(173,0,l),
(102,-69,l),
(113,-91,l),
(123,-88,o),
(136,-84,o),
(152,-84,cs),
(175,-84,o),
(192,-92,o),
(192,-111,cs),
(192,-137,o),
(168,-150,o),
(132,-150,cs),
(107,-150,o),
(86,-144,o),
(66,-136,c),
(52,-162,l),
(74,-175,o),
(100,-184,o),
(140,-184,cs)
);
}
);
width = 492;
}
);
note = cedilla;
unicode = 184;
},
{
glyphname = hungarumlaut;
layers = (
{
hints = (
{
horizontal = 1;
place = (588, 127);
place = (588, 127);
type = Stem;
},
{
place = (218, 235);
place = (218, 235);
type = Stem;
}
);
layerId = m01;
shapes = (
{
closed = 1;
nodes = (
(218,588,l),
(259,588,l),
(330,715,l),
(272,715,l)
);
},
{
closed = 1;
nodes = (
(340,588,l),
(382,588,l),
(453,715,l),
(395,715,l)
);
}
);
width = 492;
}
);
note = hungarumlaut;
unicode = 733;
},
{
glyphname = ogonek;
layers = (
{
hints = (
{
horizontal = 1;
place = (-175, 39);
place = (-175, 39);
type = Stem;
},
{
place = (74, 50);
place = (74, 50);
type = Stem;
}
);
layerId = m01;
shapes = (
{
closed = 1;
nodes = (
(211,-126,l),
(194,-133,o),
(178,-136,o),
(162,-136,cs),
(137,-136,o),
(124,-125,o),
(124,-104,cs),
(124,-68,o),
(159,-35,o),
(222,0,c),
(165,0,l),
(118,-24,o),
(74,-63,o),
(74,-109,cs),
(74,-148,o),
(99,-175,o),
(155,-175,cs),
(175,-175,o),
(195,-169,o),
(207,-163,c),
(214,-126,l)
);
}
);
width = 492;
}
);
note = ogonek;
unicode = 731;
},
{
glyphname = caron;
layers = (
{
hints = (
{
horizontal = 1;
place = (592, 106);
place = (592, 106);
type = Stem;
},
{
place = (220, 218);
place = (220, 218);
type = Stem;
},
{
horizontal = 1;
place = (592, 30);
place = (592, 30);
type = Stem;
}
);
layerId = m01;
shapes = (
{
closed = 1;
nodes = (
(438,698,l),
(382,698,l),
(316,622,l),
(314,622,l),
(273,698,l),
(220,698,l),
(280,592,l),
(342,592,l)
);
}
);
width = 492;
}
);
note = caron;
unicode = 711;
},
{
glyphname = Amacron;
kernLeft = A;
kernRight = A;
layers = (
{
hints = (
{
horizontal = 1;
place = (0, 21);
target = up;
type = BottomGhost;
},
{
horizontal = 1;
place = (230, 43);
place = (230, 43);
type = Stem;
},
{
horizontal = 1;
place = (664, 51);
place = (664, 51);
type = Stem;
},
{
horizontal = 1;
place = (763, 48);
place = (763, 48);
type = Stem;
},
{
place = (-45, 589);
place = (-45, 589);
type = Stem;
}
);
layerId = m01;
shapes = (
{
closed = 1;
nodes = (
(492,0,l),
(544,0,l),
(399,715,l),
(340,715,l),
(-45,0,l),
(7,0,l),
(131,230,l),
(446,230,l)
);
},
{
closed = 1;
nodes = (
(306,556,ls),
(332,604,o),
(360,664,o),
(360,664,c),
(362,664,l),
(362,664,o),
(373,598,o),
(381,557,cs),
(437,273,l),
(154,273,l)
);
},
{
closed = 1;
nodes = (
(257,763,l),
(490,763,l),
(499,811,l),
(266,811,l)
);
}
);
width = 602;
}
);
note = Amacron;
unicode = 256;
},
{
glyphname = Abreve;
kernLeft = A;
kernRight = A;
layers = (
{
hints = (
{
horizontal = 1;
place = (0, 21);
target = up;
type = BottomGhost;
},
{
horizontal = 1;
place = (230, 43);
place = (230, 43);
type = Stem;
},
{
horizontal = 1;
place = (664, 51);
place = (664, 51);
type = Stem;
},
{
horizontal = 1;
place = (753, 46);
place = (753, 46);
type = Stem;
},
{
place = (-45, 589);
place = (-45, 589);
type = Stem;
}
);
layerId = m01;
shapes = (
{
closed = 1;
nodes = (
(492,0,l),
(544,0,l),
(399,715,l),
(340,715,l),
(-45,0,l),
(7,0,l),
(131,230,l),
(446,230,l)
);
},
{
closed = 1;
nodes = (
(306,556,ls),
(332,604,o),
(360,664,o),
(360,664,c),
(362,664,l),
(362,664,o),
(373,598,o),
(381,557,cs),
(437,273,l),
(154,273,l)
);
},
{
closed = 1;
nodes = (
(445,753,o),
(491,797,o),
(503,855,c),
(457,855,l),
(446,822,o),
(421,799,o),
(380,799,cs),
(338,799,o),
(318,822,o),
(315,855,c),
(271,855,l),
(271,798,o),
(311,753,o),
(378,753,cs)
);
}
);
width = 602;
}
);
note = Abreve;
unicode = 258;
},
{
glyphname = Aogonek;
kernLeft = A;
kernRight = A;
layers = (
{
hints = (
{
horizontal = 1;
place = (-175, 39);
place = (-175, 39);
type = Stem;
},
{
horizontal = 1;
place = (0, 21);
target = up;
type = BottomGhost;
},
{
horizontal = 1;
place = (230, 43);
place = (230, 43);
type = Stem;
},
{
horizontal = 1;
place = (664, 51);
place = (664, 51);
type = Stem;
},
{
place = (395, 50);
place = (395, 50);
type = Stem;
}
);
layerId = m01;
shapes = (
{
closed = 1;
nodes = (
(532,-126,l),
(515,-133,o),
(499,-136,o),
(483,-136,cs),
(458,-136,o),
(445,-125,o),
(445,-104,cs),
(445,-68,o),
(480,-35,o),
(543,4,c),
(399,715,l),
(340,715,l),
(-45,0,l),
(7,0,l),
(131,230,l),
(446,230,l),
(490,9,l),
(439,-20,o),
(395,-63,o),
(395,-109,cs),
(395,-148,o),
(420,-175,o),
(476,-175,cs),
(496,-175,o),
(516,-169,o),
(528,-163,c),
(535,-126,l)
);
},
{
closed = 1;
nodes = (
(306,556,ls),
(332,604,o),
(360,664,o),
(360,664,c),
(362,664,l),
(362,664,o),
(373,598,o),
(381,557,cs),
(437,273,l),
(154,273,l)
);
}
);
width = 602;
}
);
note = Aogonek;
unicode = 260;
},
{
glyphname = AEacute;
kernLeft = AE;
kernRight = E;
layers = (
{
hints = (
{
horizontal = 1;
place = (0, 47);
place = (0, 47);
type = Stem;
},
{
horizontal = 1;
place = (230, 43);
place = (230, 43);
type = Stem;
},
{
horizontal = 1;
place = (347, 44);
place = (347, 44);
type = Stem;
},
{
horizontal = 1;
place = (670, 45);
place = (670, 45);
type = Stem;
},
{
place = (-33, 991);
place = (-33, 991);
type = Stem;
},
{
horizontal = 1;
place = (670, 193);
place = (670, 193);
type = Stem;
}
);
layerId = m01;
shapes = (
{
closed = 1;
nodes = (
(408,0,l),
(844,0,l),
(853,47,l),
(468,47,l),
(526,347,l),
(865,347,l),
(874,391,l),
(535,391,l),
(589,670,l),
(950,670,l),
(958,715,l),
(397,715,l),
(-33,0,l),
(21,0,l),
(159,230,l),
(452,230,l)
);
},
{
closed = 1;
nodes = (
(424,670,l),
(537,670,l),
(461,273,l),
(185,273,l)
);
},
{
closed = 1;
nodes = (
(658,753,l),
(702,753,l),
(801,863,l),
(733,863,l)
);
}
);
width = 920;
}
);
note = AEacute;
unicode = 508;
},
